<?xml version="1.0" encoding="utf-8" standalone="no"?>
<!DOCTYPE svg PUBLIC "-//W3C//DTD SVG 1.1//EN"
  "http://www.w3.org/Graphics/SVG/1.1/DTD/svg11.dtd">
<svg xmlns:xlink="http://www.w3.org/1999/xlink" width="784.8pt" height="496.637812pt" viewBox="0 0 784.8 496.637812" xmlns="http://www.w3.org/2000/svg" version="1.1">
 <metadata>
  <rdf:RDF xmlns:dc="http://purl.org/dc/elements/1.1/" xmlns:cc="http://creativecommons.org/ns#" xmlns:rdf="http://www.w3.org/1999/02/22-rdf-syntax-ns#">
   <cc:Work>
    <dc:type rdf:resource="http://purl.org/dc/dcmitype/StillImage"/>
    <dc:date>2026-07-10T20:01:03.728647</dc:date>
    <dc:format>image/svg+xml</dc:format>
    <dc:creator>
     <cc:Agent>
      <dc:title>Matplotlib v3.10.8, https://matplotlib.org/</dc:title>
     </cc:Agent>
    </dc:creator>
   </cc:Work>
  </rdf:RDF>
 </metadata>
 <defs>
  <style type="text/css">*{stroke-linejoin: round; stroke-linecap: butt}</style>
 </defs>
 <g id="figure_1">
  <g id="patch_1">
   <path d="M 0 496.637812 
L 784.8 496.637812 
L 784.8 0 
L 0 0 
z
" style="fill: #ffffff"/>
  </g>
  <g id="axes_1">
   <g id="patch_2">
    <path d="M 287.345455 87.287812 
L 497.454545 87.287812 
L 497.454545 49.945312 
L 287.345455 49.945312 
z
" clip-path="url(#pbbd8cbdb2e)" style="fill: #1f77b4"/>
   </g>
   <g id="patch_3">
    <path d="M 56.225455 173.462812 
L 273.338182 173.462812 
L 273.338182 124.630313 
L 56.225455 124.630313 
z
" clip-path="url(#pbbd8cbdb2e)" style="fill: #1f77b4"/>
   </g>
   <g id="patch_4">
    <path d="M 287.345455 173.462812 
L 497.454545 173.462812 
L 497.454545 124.630313 
L 287.345455 124.630313 
z
" clip-path="url(#pbbd8cbdb2e)" style="fill: #1f77b4"/>
   </g>
   <g id="patch_5">
    <path d="M 518.465455 173.462812 
L 728.574545 173.462812 
L 728.574545 124.630313 
L 518.465455 124.630313 
z
" clip-path="url(#pbbd8cbdb2e)" style="fill: #1f77b4"/>
   </g>
   <g id="patch_6">
    <path d="M 56.225455 279.745313 
L 273.338182 279.745313 
L 273.338182 222.295312 
L 56.225455 222.295312 
z
" clip-path="url(#pbbd8cbdb2e)" style="fill: #1f77b4"/>
   </g>
   <g id="patch_7">
    <path d="M 287.345455 279.745313 
L 497.454545 279.745313 
L 497.454545 222.295312 
L 287.345455 222.295312 
z
" clip-path="url(#pbbd8cbdb2e)" style="fill: #1f77b4"/>
   </g>
   <g id="patch_8">
    <path d="M 518.465455 279.745313 
L 728.574545 279.745313 
L 728.574545 222.295312 
L 518.465455 222.295312 
z
" clip-path="url(#pbbd8cbdb2e)" style="fill: #1f77b4"/>
   </g>
   <g id="patch_9">
    <path d="M 287.345455 394.645312 
L 497.454545 394.645312 
L 497.454545 340.067813 
L 287.345455 340.067813 
z
" clip-path="url(#pbbd8cbdb2e)" style="fill: #1f77b4"/>
   </g>
   <g id="patch_10">
    <path d="M 287.345455 475.075312 
L 497.454545 475.075312 
L 497.454545 437.732813 
L 287.345455 437.732813 
z
" clip-path="url(#pbbd8cbdb2e)" style="fill: #1f77b4"/>
   </g>
   <g id="patch_11">
    <path d="M 390.423762 87.612029 
Q 278.589216 105.95934 168.299269 124.053248 
" clip-path="url(#pbbd8cbdb2e)" style="fill: none; stroke: #000000; stroke-width: 1.4; stroke-linecap: round"/>
    <path d="M 174.278697 125.909708 
L 168.299269 124.053248 
L 173.372094 120.383581 
" clip-path="url(#pbbd8cbdb2e)" style="fill: none; stroke: #000000; stroke-width: 1.4; stroke-linecap: round"/>
   </g>
   <g id="patch_12">
    <path d="M 392.4 89.288955 
Q 392.4 105.960912 392.4 121.067622 
" clip-path="url(#pbbd8cbdb2e)" style="fill: none; stroke: #000000; stroke-width: 1.4; stroke-linecap: round"/>
    <path d="M 395.2 115.467622 
L 392.4 121.067622 
L 389.6 115.467622 
" clip-path="url(#pbbd8cbdb2e)" style="fill: none; stroke: #000000; stroke-width: 1.4; stroke-linecap: round"/>
   </g>
   <g id="patch_13">
    <path d="M 394.371376 87.606331 
Q 507.957918 105.958726 619.999252 124.061459 
" clip-path="url(#pbbd8cbdb2e)" style="fill: none; stroke: #000000; stroke-width: 1.4; stroke-linecap: round"/>
    <path d="M 614.917556 120.404087 
L 619.999252 124.061459 
L 614.024337 125.932392 
" clip-path="url(#pbbd8cbdb2e)" style="fill: none; stroke: #000000; stroke-width: 1.4; stroke-linecap: round"/>
   </g>
   <g id="patch_14">
    <path d="M 164.781818 175.462728 
Q 164.781818 197.879997 164.781818 218.732019 
" clip-path="url(#pbbd8cbdb2e)" style="fill: none; stroke: #000000; stroke-width: 1.4; stroke-linecap: round"/>
    <path d="M 167.581818 213.132019 
L 164.781818 218.732019 
L 161.981818 213.132019 
" clip-path="url(#pbbd8cbdb2e)" style="fill: none; stroke: #000000; stroke-width: 1.4; stroke-linecap: round"/>
   </g>
   <g id="patch_15">
    <path d="M 392.4 175.462728 
Q 392.4 197.879997 392.4 218.732019 
" clip-path="url(#pbbd8cbdb2e)" style="fill: none; stroke: #000000; stroke-width: 1.4; stroke-linecap: round"/>
    <path d="M 395.2 213.132019 
L 392.4 218.732019 
L 389.6 213.132019 
" clip-path="url(#pbbd8cbdb2e)" style="fill: none; stroke: #000000; stroke-width: 1.4; stroke-linecap: round"/>
   </g>
   <g id="patch_16">
    <path d="M 623.52 175.462728 
Q 623.52 197.879997 623.52 218.732019 
" clip-path="url(#pbbd8cbdb2e)" style="fill: none; stroke: #000000; stroke-width: 1.4; stroke-linecap: round"/>
    <path d="M 626.32 213.132019 
L 623.52 218.732019 
L 620.72 213.132019 
" clip-path="url(#pbbd8cbdb2e)" style="fill: none; stroke: #000000; stroke-width: 1.4; stroke-linecap: round"/>
   </g>
   <g id="patch_17">
    <path d="M 166.657815 280.432887 
Q 247.072823 309.905931 326.018184 338.840332 
" clip-path="url(#pbbd8cbdb2e)" style="fill: none; stroke: #000000; stroke-width: 1.4; stroke-linecap: round"/>
    <path d="M 321.723767 334.284239 
L 326.018184 338.840332 
L 319.796659 339.54221 
" clip-path="url(#pbbd8cbdb2e)" style="fill: none; stroke: #000000; stroke-width: 1.4; stroke-linecap: round"/>
   </g>
   <g id="patch_18">
    <path d="M 392.4 281.744526 
Q 392.4 309.907654 392.4 336.505533 
" clip-path="url(#pbbd8cbdb2e)" style="fill: none; stroke: #000000; stroke-width: 1.4; stroke-linecap: round"/>
    <path d="M 395.2 330.905533 
L 392.4 336.505533 
L 389.6 330.905533 
" clip-path="url(#pbbd8cbdb2e)" style="fill: none; stroke: #000000; stroke-width: 1.4; stroke-linecap: round"/>
   </g>
   <g id="patch_19">
    <path d="M 621.639996 280.420001 
Q 539.478531 309.905785 458.790314 338.862855 
" clip-path="url(#pbbd8cbdb2e)" style="fill: none; stroke: #000000; stroke-width: 1.4; stroke-linecap: round"/>
    <path d="M 465.006961 339.606699 
L 458.790314 338.862855 
L 463.115377 334.335844 
" clip-path="url(#pbbd8cbdb2e)" style="fill: none; stroke: #000000; stroke-width: 1.4; stroke-linecap: round"/>
   </g>
   <g id="patch_20">
    <path d="M 392.4 396.64663 
Q 392.4 416.190402 392.4 434.168927 
" clip-path="url(#pbbd8cbdb2e)" style="fill: none; stroke: #000000; stroke-width: 1.4; stroke-linecap: round"/>
    <path d="M 395.2 428.568927 
L 392.4 434.168927 
L 389.6 428.568927 
" clip-path="url(#pbbd8cbdb2e)" style="fill: none; stroke: #000000; stroke-width: 1.4; stroke-linecap: round"/>
   </g>
   <g id="text_1">
    <!-- Define design problem: -->
    <g transform="translate(333.942187 65.777031) scale(0.1 -0.1)">
     <defs>
      <path id="DejaVuSans-44" d="M 1259 4147 
L 1259 519 
L 2022 519 
Q 2988 519 3436 956 
Q 3884 1394 3884 2338 
Q 3884 3275 3436 3711 
Q 2988 4147 2022 4147 
L 1259 4147 
z
M 628 4666 
L 1925 4666 
Q 3281 4666 3915 4102 
Q 4550 3538 4550 2338 
Q 4550 1131 3912 565 
Q 3275 0 1925 0 
L 628 0 
L 628 4666 
z
" transform="scale(0.015625)"/>
      <path id="DejaVuSans-65" d="M 3597 1894 
L 3597 1613 
L 953 1613 
Q 991 1019 1311 708 
Q 1631 397 2203 397 
Q 2534 397 2845 478 
Q 3156 559 3463 722 
L 3463 178 
Q 3153 47 2828 -22 
Q 2503 -91 2169 -91 
Q 1331 -91 842 396 
Q 353 884 353 1716 
Q 353 2575 817 3079 
Q 1281 3584 2069 3584 
Q 2775 3584 3186 3129 
Q 3597 2675 3597 1894 
z
M 3022 2063 
Q 3016 2534 2758 2815 
Q 2500 3097 2075 3097 
Q 1594 3097 1305 2825 
Q 1016 2553 972 2059 
L 3022 2063 
z
" transform="scale(0.015625)"/>
      <path id="DejaVuSans-66" d="M 2375 4863 
L 2375 4384 
L 1825 4384 
Q 1516 4384 1395 4259 
Q 1275 4134 1275 3809 
L 1275 3500 
L 2222 3500 
L 2222 3053 
L 1275 3053 
L 1275 0 
L 697 0 
L 697 3053 
L 147 3053 
L 147 3500 
L 697 3500 
L 697 3744 
Q 697 4328 969 4595 
Q 1241 4863 1831 4863 
L 2375 4863 
z
" transform="scale(0.015625)"/>
      <path id="DejaVuSans-69" d="M 603 3500 
L 1178 3500 
L 1178 0 
L 603 0 
L 603 3500 
z
M 603 4863 
L 1178 4863 
L 1178 4134 
L 603 4134 
L 603 4863 
z
" transform="scale(0.015625)"/>
      <path id="DejaVuSans-6e" d="M 3513 2113 
L 3513 0 
L 2938 0 
L 2938 2094 
Q 2938 2591 2744 2837 
Q 2550 3084 2163 3084 
Q 1697 3084 1428 2787 
Q 1159 2491 1159 1978 
L 1159 0 
L 581 0 
L 581 3500 
L 1159 3500 
L 1159 2956 
Q 1366 3272 1645 3428 
Q 1925 3584 2291 3584 
Q 2894 3584 3203 3211 
Q 3513 2838 3513 2113 
z
" transform="scale(0.015625)"/>
      <path id="DejaVuSans-20" transform="scale(0.015625)"/>
      <path id="DejaVuSans-64" d="M 2906 2969 
L 2906 4863 
L 3481 4863 
L 3481 0 
L 2906 0 
L 2906 525 
Q 2725 213 2448 61 
Q 2172 -91 1784 -91 
Q 1150 -91 751 415 
Q 353 922 353 1747 
Q 353 2572 751 3078 
Q 1150 3584 1784 3584 
Q 2172 3584 2448 3432 
Q 2725 3281 2906 2969 
z
M 947 1747 
Q 947 1113 1208 752 
Q 1469 391 1925 391 
Q 2381 391 2643 752 
Q 2906 1113 2906 1747 
Q 2906 2381 2643 2742 
Q 2381 3103 1925 3103 
Q 1469 3103 1208 2742 
Q 947 2381 947 1747 
z
" transform="scale(0.015625)"/>
      <path id="DejaVuSans-73" d="M 2834 3397 
L 2834 2853 
Q 2591 2978 2328 3040 
Q 2066 3103 1784 3103 
Q 1356 3103 1142 2972 
Q 928 2841 928 2578 
Q 928 2378 1081 2264 
Q 1234 2150 1697 2047 
L 1894 2003 
Q 2506 1872 2764 1633 
Q 3022 1394 3022 966 
Q 3022 478 2636 193 
Q 2250 -91 1575 -91 
Q 1294 -91 989 -36 
Q 684 19 347 128 
L 347 722 
Q 666 556 975 473 
Q 1284 391 1588 391 
Q 1994 391 2212 530 
Q 2431 669 2431 922 
Q 2431 1156 2273 1281 
Q 2116 1406 1581 1522 
L 1381 1569 
Q 847 1681 609 1914 
Q 372 2147 372 2553 
Q 372 3047 722 3315 
Q 1072 3584 1716 3584 
Q 2034 3584 2315 3537 
Q 2597 3491 2834 3397 
z
" transform="scale(0.015625)"/>
      <path id="DejaVuSans-67" d="M 2906 1791 
Q 2906 2416 2648 2759 
Q 2391 3103 1925 3103 
Q 1463 3103 1205 2759 
Q 947 2416 947 1791 
Q 947 1169 1205 825 
Q 1463 481 1925 481 
Q 2391 481 2648 825 
Q 2906 1169 2906 1791 
z
M 3481 434 
Q 3481 -459 3084 -895 
Q 2688 -1331 1869 -1331 
Q 1566 -1331 1297 -1286 
Q 1028 -1241 775 -1147 
L 775 -588 
Q 1028 -725 1275 -790 
Q 1522 -856 1778 -856 
Q 2344 -856 2625 -561 
Q 2906 -266 2906 331 
L 2906 616 
Q 2728 306 2450 153 
Q 2172 0 1784 0 
Q 1141 0 747 490 
Q 353 981 353 1791 
Q 353 2603 747 3093 
Q 1141 3584 1784 3584 
Q 2172 3584 2450 3431 
Q 2728 3278 2906 2969 
L 2906 3500 
L 3481 3500 
L 3481 434 
z
" transform="scale(0.015625)"/>
      <path id="DejaVuSans-70" d="M 1159 525 
L 1159 -1331 
L 581 -1331 
L 581 3500 
L 1159 3500 
L 1159 2969 
Q 1341 3281 1617 3432 
Q 1894 3584 2278 3584 
Q 2916 3584 3314 3078 
Q 3713 2572 3713 1747 
Q 3713 922 3314 415 
Q 2916 -91 2278 -91 
Q 1894 -91 1617 61 
Q 1341 213 1159 525 
z
M 3116 1747 
Q 3116 2381 2855 2742 
Q 2594 3103 2138 3103 
Q 1681 3103 1420 2742 
Q 1159 2381 1159 1747 
Q 1159 1113 1420 752 
Q 1681 391 2138 391 
Q 2594 391 2855 752 
Q 3116 1113 3116 1747 
z
" transform="scale(0.015625)"/>
      <path id="DejaVuSans-72" d="M 2631 2963 
Q 2534 3019 2420 3045 
Q 2306 3072 2169 3072 
Q 1681 3072 1420 2755 
Q 1159 2438 1159 1844 
L 1159 0 
L 581 0 
L 581 3500 
L 1159 3500 
L 1159 2956 
Q 1341 3275 1631 3429 
Q 1922 3584 2338 3584 
Q 2397 3584 2469 3576 
Q 2541 3569 2628 3553 
L 2631 2963 
z
" transform="scale(0.015625)"/>
      <path id="DejaVuSans-6f" d="M 1959 3097 
Q 1497 3097 1228 2736 
Q 959 2375 959 1747 
Q 959 1119 1226 758 
Q 1494 397 1959 397 
Q 2419 397 2687 759 
Q 2956 1122 2956 1747 
Q 2956 2369 2687 2733 
Q 2419 3097 1959 3097 
z
M 1959 3584 
Q 2709 3584 3137 3096 
Q 3566 2609 3566 1747 
Q 3566 888 3137 398 
Q 2709 -91 1959 -91 
Q 1206 -91 779 398 
Q 353 888 353 1747 
Q 353 2609 779 3096 
Q 1206 3584 1959 3584 
z
" transform="scale(0.015625)"/>
      <path id="DejaVuSans-62" d="M 3116 1747 
Q 3116 2381 2855 2742 
Q 2594 3103 2138 3103 
Q 1681 3103 1420 2742 
Q 1159 2381 1159 1747 
Q 1159 1113 1420 752 
Q 1681 391 2138 391 
Q 2594 391 2855 752 
Q 3116 1113 3116 1747 
z
M 1159 2969 
Q 1341 3281 1617 3432 
Q 1894 3584 2278 3584 
Q 2916 3584 3314 3078 
Q 3713 2572 3713 1747 
Q 3713 922 3314 415 
Q 2916 -91 2278 -91 
Q 1894 -91 1617 61 
Q 1341 213 1159 525 
L 1159 0 
L 581 0 
L 581 4863 
L 1159 4863 
L 1159 2969 
z
" transform="scale(0.015625)"/>
      <path id="DejaVuSans-6c" d="M 603 4863 
L 1178 4863 
L 1178 0 
L 603 0 
L 603 4863 
z
" transform="scale(0.015625)"/>
      <path id="DejaVuSans-6d" d="M 3328 2828 
Q 3544 3216 3844 3400 
Q 4144 3584 4550 3584 
Q 5097 3584 5394 3201 
Q 5691 2819 5691 2113 
L 5691 0 
L 5113 0 
L 5113 2094 
Q 5113 2597 4934 2840 
Q 4756 3084 4391 3084 
Q 3944 3084 3684 2787 
Q 3425 2491 3425 1978 
L 3425 0 
L 2847 0 
L 2847 2094 
Q 2847 2600 2669 2842 
Q 2491 3084 2119 3084 
Q 1678 3084 1418 2786 
Q 1159 2488 1159 1978 
L 1159 0 
L 581 0 
L 581 3500 
L 1159 3500 
L 1159 2956 
Q 1356 3278 1631 3431 
Q 1906 3584 2284 3584 
Q 2666 3584 2933 3390 
Q 3200 3197 3328 2828 
z
" transform="scale(0.015625)"/>
      <path id="DejaVuSans-3a" d="M 750 794 
L 1409 794 
L 1409 0 
L 750 0 
L 750 794 
z
M 750 3309 
L 1409 3309 
L 1409 2516 
L 750 2516 
L 750 3309 
z
" transform="scale(0.015625)"/>
     </defs>
     <use xlink:href="#DejaVuSans-44"/>
     <use xlink:href="#DejaVuSans-65" transform="translate(77.001953 0)"/>
     <use xlink:href="#DejaVuSans-66" transform="translate(138.525391 0)"/>
     <use xlink:href="#DejaVuSans-69" transform="translate(173.730469 0)"/>
     <use xlink:href="#DejaVuSans-6e" transform="translate(201.513672 0)"/>
     <use xlink:href="#DejaVuSans-65" transform="translate(264.892578 0)"/>
     <use xlink:href="#DejaVuSans-20" transform="translate(326.416016 0)"/>
     <use xlink:href="#DejaVuSans-64" transform="translate(358.203125 0)"/>
     <use xlink:href="#DejaVuSans-65" transform="translate(421.679688 0)"/>
     <use xlink:href="#DejaVuSans-73" transform="translate(483.203125 0)"/>
     <use xlink:href="#DejaVuSans-69" transform="translate(535.302734 0)"/>
     <use xlink:href="#DejaVuSans-67" transform="translate(563.085938 0)"/>
     <use xlink:href="#DejaVuSans-6e" transform="translate(626.5625 0)"/>
     <use xlink:href="#DejaVuSans-20" transform="translate(689.941406 0)"/>
     <use xlink:href="#DejaVuSans-70" transform="translate(721.728516 0)"/>
     <use xlink:href="#DejaVuSans-72" transform="translate(785.205078 0)"/>
     <use xlink:href="#DejaVuSans-6f" transform="translate(824.068359 0)"/>
     <use xlink:href="#DejaVuSans-62" transform="translate(885.25 0)"/>
     <use xlink:href="#DejaVuSans-6c" transform="translate(948.726562 0)"/>
     <use xlink:href="#DejaVuSans-65" transform="translate(976.509766 0)"/>
     <use xlink:href="#DejaVuSans-6d" transform="translate(1038.033203 0)"/>
     <use xlink:href="#DejaVuSans-3a" transform="translate(1135.445312 0)"/>
    </g>
    <!-- ULS, SLS, fatigue or dynamics -->
    <g transform="translate(317.424219 76.974844) scale(0.1 -0.1)">
     <defs>
      <path id="DejaVuSans-55" d="M 556 4666 
L 1191 4666 
L 1191 1831 
Q 1191 1081 1462 751 
Q 1734 422 2344 422 
Q 2950 422 3222 751 
Q 3494 1081 3494 1831 
L 3494 4666 
L 4128 4666 
L 4128 1753 
Q 4128 841 3676 375 
Q 3225 -91 2344 -91 
Q 1459 -91 1007 375 
Q 556 841 556 1753 
L 556 4666 
z
" transform="scale(0.015625)"/>
      <path id="DejaVuSans-4c" d="M 628 4666 
L 1259 4666 
L 1259 531 
L 3531 531 
L 3531 0 
L 628 0 
L 628 4666 
z
" transform="scale(0.015625)"/>
      <path id="DejaVuSans-53" d="M 3425 4513 
L 3425 3897 
Q 3066 4069 2747 4153 
Q 2428 4238 2131 4238 
Q 1616 4238 1336 4038 
Q 1056 3838 1056 3469 
Q 1056 3159 1242 3001 
Q 1428 2844 1947 2747 
L 2328 2669 
Q 3034 2534 3370 2195 
Q 3706 1856 3706 1288 
Q 3706 609 3251 259 
Q 2797 -91 1919 -91 
Q 1588 -91 1214 -16 
Q 841 59 441 206 
L 441 856 
Q 825 641 1194 531 
Q 1563 422 1919 422 
Q 2459 422 2753 634 
Q 3047 847 3047 1241 
Q 3047 1584 2836 1778 
Q 2625 1972 2144 2069 
L 1759 2144 
Q 1053 2284 737 2584 
Q 422 2884 422 3419 
Q 422 4038 858 4394 
Q 1294 4750 2059 4750 
Q 2388 4750 2728 4690 
Q 3069 4631 3425 4513 
z
" transform="scale(0.015625)"/>
      <path id="DejaVuSans-2c" d="M 750 794 
L 1409 794 
L 1409 256 
L 897 -744 
L 494 -744 
L 750 256 
L 750 794 
z
" transform="scale(0.015625)"/>
      <path id="DejaVuSans-61" d="M 2194 1759 
Q 1497 1759 1228 1600 
Q 959 1441 959 1056 
Q 959 750 1161 570 
Q 1363 391 1709 391 
Q 2188 391 2477 730 
Q 2766 1069 2766 1631 
L 2766 1759 
L 2194 1759 
z
M 3341 1997 
L 3341 0 
L 2766 0 
L 2766 531 
Q 2569 213 2275 61 
Q 1981 -91 1556 -91 
Q 1019 -91 701 211 
Q 384 513 384 1019 
Q 384 1609 779 1909 
Q 1175 2209 1959 2209 
L 2766 2209 
L 2766 2266 
Q 2766 2663 2505 2880 
Q 2244 3097 1772 3097 
Q 1472 3097 1187 3025 
Q 903 2953 641 2809 
L 641 3341 
Q 956 3463 1253 3523 
Q 1550 3584 1831 3584 
Q 2591 3584 2966 3190 
Q 3341 2797 3341 1997 
z
" transform="scale(0.015625)"/>
      <path id="DejaVuSans-74" d="M 1172 4494 
L 1172 3500 
L 2356 3500 
L 2356 3053 
L 1172 3053 
L 1172 1153 
Q 1172 725 1289 603 
Q 1406 481 1766 481 
L 2356 481 
L 2356 0 
L 1766 0 
Q 1100 0 847 248 
Q 594 497 594 1153 
L 594 3053 
L 172 3053 
L 172 3500 
L 594 3500 
L 594 4494 
L 1172 4494 
z
" transform="scale(0.015625)"/>
      <path id="DejaVuSans-75" d="M 544 1381 
L 544 3500 
L 1119 3500 
L 1119 1403 
Q 1119 906 1312 657 
Q 1506 409 1894 409 
Q 2359 409 2629 706 
Q 2900 1003 2900 1516 
L 2900 3500 
L 3475 3500 
L 3475 0 
L 2900 0 
L 2900 538 
Q 2691 219 2414 64 
Q 2138 -91 1772 -91 
Q 1169 -91 856 284 
Q 544 659 544 1381 
z
M 1991 3584 
L 1991 3584 
z
" transform="scale(0.015625)"/>
      <path id="DejaVuSans-79" d="M 2059 -325 
Q 1816 -950 1584 -1140 
Q 1353 -1331 966 -1331 
L 506 -1331 
L 506 -850 
L 844 -850 
Q 1081 -850 1212 -737 
Q 1344 -625 1503 -206 
L 1606 56 
L 191 3500 
L 800 3500 
L 1894 763 
L 2988 3500 
L 3597 3500 
L 2059 -325 
z
" transform="scale(0.015625)"/>
      <path id="DejaVuSans-63" d="M 3122 3366 
L 3122 2828 
Q 2878 2963 2633 3030 
Q 2388 3097 2138 3097 
Q 1578 3097 1268 2742 
Q 959 2388 959 1747 
Q 959 1106 1268 751 
Q 1578 397 2138 397 
Q 2388 397 2633 464 
Q 2878 531 3122 666 
L 3122 134 
Q 2881 22 2623 -34 
Q 2366 -91 2075 -91 
Q 1284 -91 818 406 
Q 353 903 353 1747 
Q 353 2603 823 3093 
Q 1294 3584 2113 3584 
Q 2378 3584 2631 3529 
Q 2884 3475 3122 3366 
z
" transform="scale(0.015625)"/>
     </defs>
     <use xlink:href="#DejaVuSans-55"/>
     <use xlink:href="#DejaVuSans-4c" transform="translate(73.193359 0)"/>
     <use xlink:href="#DejaVuSans-53" transform="translate(128.90625 0)"/>
     <use xlink:href="#DejaVuSans-2c" transform="translate(192.382812 0)"/>
     <use xlink:href="#DejaVuSans-20" transform="translate(224.169922 0)"/>
     <use xlink:href="#DejaVuSans-53" transform="translate(255.957031 0)"/>
     <use xlink:href="#DejaVuSans-4c" transform="translate(319.433594 0)"/>
     <use xlink:href="#DejaVuSans-53" transform="translate(375.146484 0)"/>
     <use xlink:href="#DejaVuSans-2c" transform="translate(438.623047 0)"/>
     <use xlink:href="#DejaVuSans-20" transform="translate(470.410156 0)"/>
     <use xlink:href="#DejaVuSans-66" transform="translate(502.197266 0)"/>
     <use xlink:href="#DejaVuSans-61" transform="translate(537.402344 0)"/>
     <use xlink:href="#DejaVuSans-74" transform="translate(598.681641 0)"/>
     <use xlink:href="#DejaVuSans-69" transform="translate(637.890625 0)"/>
     <use xlink:href="#DejaVuSans-67" transform="translate(665.673828 0)"/>
     <use xlink:href="#DejaVuSans-75" transform="translate(729.150391 0)"/>
     <use xlink:href="#DejaVuSans-65" transform="translate(792.529297 0)"/>
     <use xlink:href="#DejaVuSans-20" transform="translate(854.052734 0)"/>
     <use xlink:href="#DejaVuSans-6f" transform="translate(885.839844 0)"/>
     <use xlink:href="#DejaVuSans-72" transform="translate(947.021484 0)"/>
     <use xlink:href="#DejaVuSans-20" transform="translate(988.134766 0)"/>
     <use xlink:href="#DejaVuSans-64" transform="translate(1019.921875 0)"/>
     <use xlink:href="#DejaVuSans-79" transform="translate(1083.398438 0)"/>
     <use xlink:href="#DejaVuSans-6e" transform="translate(1142.578125 0)"/>
     <use xlink:href="#DejaVuSans-61" transform="translate(1205.957031 0)"/>
     <use xlink:href="#DejaVuSans-6d" transform="translate(1267.236328 0)"/>
     <use xlink:href="#DejaVuSans-69" transform="translate(1364.648438 0)"/>
     <use xlink:href="#DejaVuSans-63" transform="translate(1392.431641 0)"/>
     <use xlink:href="#DejaVuSans-73" transform="translate(1447.412109 0)"/>
    </g>
   </g>
   <g id="text_2">
    <!-- Long/flexible pile -->
    <g transform="translate(122.252131 146.207031) scale(0.1 -0.1)">
     <defs>
      <path id="DejaVuSans-2f" d="M 1625 4666 
L 2156 4666 
L 531 -594 
L 0 -594 
L 1625 4666 
z
" transform="scale(0.015625)"/>
      <path id="DejaVuSans-78" d="M 3513 3500 
L 2247 1797 
L 3578 0 
L 2900 0 
L 1881 1375 
L 863 0 
L 184 0 
L 1544 1831 
L 300 3500 
L 978 3500 
L 1906 2253 
L 2834 3500 
L 3513 3500 
z
" transform="scale(0.015625)"/>
     </defs>
     <use xlink:href="#DejaVuSans-4c"/>
     <use xlink:href="#DejaVuSans-6f" transform="translate(53.962891 0)"/>
     <use xlink:href="#DejaVuSans-6e" transform="translate(115.144531 0)"/>
     <use xlink:href="#DejaVuSans-67" transform="translate(178.523438 0)"/>
     <use xlink:href="#DejaVuSans-2f" transform="translate(242 0)"/>
     <use xlink:href="#DejaVuSans-66" transform="translate(275.691406 0)"/>
     <use xlink:href="#DejaVuSans-6c" transform="translate(310.896484 0)"/>
     <use xlink:href="#DejaVuSans-65" transform="translate(338.679688 0)"/>
     <use xlink:href="#DejaVuSans-78" transform="translate(398.453125 0)"/>
     <use xlink:href="#DejaVuSans-69" transform="translate(457.632812 0)"/>
     <use xlink:href="#DejaVuSans-62" transform="translate(485.416016 0)"/>
     <use xlink:href="#DejaVuSans-6c" transform="translate(548.892578 0)"/>
     <use xlink:href="#DejaVuSans-65" transform="translate(576.675781 0)"/>
     <use xlink:href="#DejaVuSans-20" transform="translate(638.199219 0)"/>
     <use xlink:href="#DejaVuSans-70" transform="translate(669.986328 0)"/>
     <use xlink:href="#DejaVuSans-69" transform="translate(733.462891 0)"/>
     <use xlink:href="#DejaVuSans-6c" transform="translate(761.246094 0)"/>
     <use xlink:href="#DejaVuSans-65" transform="translate(789.029297 0)"/>
    </g>
    <!-- L/D &gt; about 10 -->
    <g transform="translate(126.715412 157.404844) scale(0.1 -0.1)">
     <defs>
      <path id="DejaVuSans-3e" d="M 678 3150 
L 678 3719 
L 4684 2266 
L 4684 1747 
L 678 294 
L 678 863 
L 3897 2003 
L 678 3150 
z
" transform="scale(0.015625)"/>
      <path id="DejaVuSans-31" d="M 794 531 
L 1825 531 
L 1825 4091 
L 703 3866 
L 703 4441 
L 1819 4666 
L 2450 4666 
L 2450 531 
L 3481 531 
L 3481 0 
L 794 0 
L 794 531 
z
" transform="scale(0.015625)"/>
      <path id="DejaVuSans-30" d="M 2034 4250 
Q 1547 4250 1301 3770 
Q 1056 3291 1056 2328 
Q 1056 1369 1301 889 
Q 1547 409 2034 409 
Q 2525 409 2770 889 
Q 3016 1369 3016 2328 
Q 3016 3291 2770 3770 
Q 2525 4250 2034 4250 
z
M 2034 4750 
Q 2819 4750 3233 4129 
Q 3647 3509 3647 2328 
Q 3647 1150 3233 529 
Q 2819 -91 2034 -91 
Q 1250 -91 836 529 
Q 422 1150 422 2328 
Q 422 3509 836 4129 
Q 1250 4750 2034 4750 
z
" transform="scale(0.015625)"/>
     </defs>
     <use xlink:href="#DejaVuSans-4c"/>
     <use xlink:href="#DejaVuSans-2f" transform="translate(55.712891 0)"/>
     <use xlink:href="#DejaVuSans-44" transform="translate(89.404297 0)"/>
     <use xlink:href="#DejaVuSans-20" transform="translate(166.40625 0)"/>
     <use xlink:href="#DejaVuSans-3e" transform="translate(198.193359 0)"/>
     <use xlink:href="#DejaVuSans-20" transform="translate(281.982422 0)"/>
     <use xlink:href="#DejaVuSans-61" transform="translate(313.769531 0)"/>
     <use xlink:href="#DejaVuSans-62" transform="translate(375.048828 0)"/>
     <use xlink:href="#DejaVuSans-6f" transform="translate(438.525391 0)"/>
     <use xlink:href="#DejaVuSans-75" transform="translate(499.707031 0)"/>
     <use xlink:href="#DejaVuSans-74" transform="translate(563.085938 0)"/>
     <use xlink:href="#DejaVuSans-20" transform="translate(602.294922 0)"/>
     <use xlink:href="#DejaVuSans-31" transform="translate(634.082031 0)"/>
     <use xlink:href="#DejaVuSans-30" transform="translate(697.705078 0)"/>
    </g>
   </g>
   <g id="text_3">
    <!-- Intermediate / rigid pile -->
    <g transform="translate(333.478125 146.207031) scale(0.1 -0.1)">
     <defs>
      <path id="DejaVuSans-49" d="M 628 4666 
L 1259 4666 
L 1259 0 
L 628 0 
L 628 4666 
z
" transform="scale(0.015625)"/>
     </defs>
     <use xlink:href="#DejaVuSans-49"/>
     <use xlink:href="#DejaVuSans-6e" transform="translate(29.492188 0)"/>
     <use xlink:href="#DejaVuSans-74" transform="translate(92.871094 0)"/>
     <use xlink:href="#DejaVuSans-65" transform="translate(132.080078 0)"/>
     <use xlink:href="#DejaVuSans-72" transform="translate(193.603516 0)"/>
     <use xlink:href="#DejaVuSans-6d" transform="translate(232.966797 0)"/>
     <use xlink:href="#DejaVuSans-65" transform="translate(330.378906 0)"/>
     <use xlink:href="#DejaVuSans-64" transform="translate(391.902344 0)"/>
     <use xlink:href="#DejaVuSans-69" transform="translate(455.378906 0)"/>
     <use xlink:href="#DejaVuSans-61" transform="translate(483.162109 0)"/>
     <use xlink:href="#DejaVuSans-74" transform="translate(544.441406 0)"/>
     <use xlink:href="#DejaVuSans-65" transform="translate(583.650391 0)"/>
     <use xlink:href="#DejaVuSans-20" transform="translate(645.173828 0)"/>
     <use xlink:href="#DejaVuSans-2f" transform="translate(676.960938 0)"/>
     <use xlink:href="#DejaVuSans-20" transform="translate(710.652344 0)"/>
     <use xlink:href="#DejaVuSans-72" transform="translate(742.439453 0)"/>
     <use xlink:href="#DejaVuSans-69" transform="translate(783.552734 0)"/>
     <use xlink:href="#DejaVuSans-67" transform="translate(811.335938 0)"/>
     <use xlink:href="#DejaVuSans-69" transform="translate(874.8125 0)"/>
     <use xlink:href="#DejaVuSans-64" transform="translate(902.595703 0)"/>
     <use xlink:href="#DejaVuSans-20" transform="translate(966.072266 0)"/>
     <use xlink:href="#DejaVuSans-70" transform="translate(997.859375 0)"/>
     <use xlink:href="#DejaVuSans-69" transform="translate(1061.335938 0)"/>
     <use xlink:href="#DejaVuSans-6c" transform="translate(1089.119141 0)"/>
     <use xlink:href="#DejaVuSans-65" transform="translate(1116.902344 0)"/>
    </g>
    <!-- L/D about 2-10 -->
    <g transform="translate(355.127344 157.404844) scale(0.1 -0.1)">
     <defs>
      <path id="DejaVuSans-32" d="M 1228 531 
L 3431 531 
L 3431 0 
L 469 0 
L 469 531 
Q 828 903 1448 1529 
Q 2069 2156 2228 2338 
Q 2531 2678 2651 2914 
Q 2772 3150 2772 3378 
Q 2772 3750 2511 3984 
Q 2250 4219 1831 4219 
Q 1534 4219 1204 4116 
Q 875 4013 500 3803 
L 500 4441 
Q 881 4594 1212 4672 
Q 1544 4750 1819 4750 
Q 2544 4750 2975 4387 
Q 3406 4025 3406 3419 
Q 3406 3131 3298 2873 
Q 3191 2616 2906 2266 
Q 2828 2175 2409 1742 
Q 1991 1309 1228 531 
z
" transform="scale(0.015625)"/>
      <path id="DejaVuSans-2d" d="M 313 2009 
L 1997 2009 
L 1997 1497 
L 313 1497 
L 313 2009 
z
" transform="scale(0.015625)"/>
     </defs>
     <use xlink:href="#DejaVuSans-4c"/>
     <use xlink:href="#DejaVuSans-2f" transform="translate(55.712891 0)"/>
     <use xlink:href="#DejaVuSans-44" transform="translate(89.404297 0)"/>
     <use xlink:href="#DejaVuSans-20" transform="translate(166.40625 0)"/>
     <use xlink:href="#DejaVuSans-61" transform="translate(198.193359 0)"/>
     <use xlink:href="#DejaVuSans-62" transform="translate(259.472656 0)"/>
     <use xlink:href="#DejaVuSans-6f" transform="translate(322.949219 0)"/>
     <use xlink:href="#DejaVuSans-75" transform="translate(384.130859 0)"/>
     <use xlink:href="#DejaVuSans-74" transform="translate(447.509766 0)"/>
     <use xlink:href="#DejaVuSans-20" transform="translate(486.71875 0)"/>
     <use xlink:href="#DejaVuSans-32" transform="translate(518.505859 0)"/>
     <use xlink:href="#DejaVuSans-2d" transform="translate(582.128906 0)"/>
     <use xlink:href="#DejaVuSans-31" transform="translate(618.212891 0)"/>
     <use xlink:href="#DejaVuSans-30" transform="translate(681.835938 0)"/>
    </g>
   </g>
   <g id="text_4">
    <!-- Complex site condition: -->
    <g transform="translate(564.57625 146.207031) scale(0.1 -0.1)">
     <defs>
      <path id="DejaVuSans-43" d="M 4122 4306 
L 4122 3641 
Q 3803 3938 3442 4084 
Q 3081 4231 2675 4231 
Q 1875 4231 1450 3742 
Q 1025 3253 1025 2328 
Q 1025 1406 1450 917 
Q 1875 428 2675 428 
Q 3081 428 3442 575 
Q 3803 722 4122 1019 
L 4122 359 
Q 3791 134 3420 21 
Q 3050 -91 2638 -91 
Q 1578 -91 968 557 
Q 359 1206 359 2328 
Q 359 3453 968 4101 
Q 1578 4750 2638 4750 
Q 3056 4750 3426 4639 
Q 3797 4528 4122 4306 
z
" transform="scale(0.015625)"/>
     </defs>
     <use xlink:href="#DejaVuSans-43"/>
     <use xlink:href="#DejaVuSans-6f" transform="translate(69.824219 0)"/>
     <use xlink:href="#DejaVuSans-6d" transform="translate(131.005859 0)"/>
     <use xlink:href="#DejaVuSans-70" transform="translate(228.417969 0)"/>
     <use xlink:href="#DejaVuSans-6c" transform="translate(291.894531 0)"/>
     <use xlink:href="#DejaVuSans-65" transform="translate(319.677734 0)"/>
     <use xlink:href="#DejaVuSans-78" transform="translate(379.451172 0)"/>
     <use xlink:href="#DejaVuSans-20" transform="translate(438.630859 0)"/>
     <use xlink:href="#DejaVuSans-73" transform="translate(470.417969 0)"/>
     <use xlink:href="#DejaVuSans-69" transform="translate(522.517578 0)"/>
     <use xlink:href="#DejaVuSans-74" transform="translate(550.300781 0)"/>
     <use xlink:href="#DejaVuSans-65" transform="translate(589.509766 0)"/>
     <use xlink:href="#DejaVuSans-20" transform="translate(651.033203 0)"/>
     <use xlink:href="#DejaVuSans-63" transform="translate(682.820312 0)"/>
     <use xlink:href="#DejaVuSans-6f" transform="translate(737.800781 0)"/>
     <use xlink:href="#DejaVuSans-6e" transform="translate(798.982422 0)"/>
     <use xlink:href="#DejaVuSans-64" transform="translate(862.361328 0)"/>
     <use xlink:href="#DejaVuSans-69" transform="translate(925.837891 0)"/>
     <use xlink:href="#DejaVuSans-74" transform="translate(953.621094 0)"/>
     <use xlink:href="#DejaVuSans-69" transform="translate(992.830078 0)"/>
     <use xlink:href="#DejaVuSans-6f" transform="translate(1020.613281 0)"/>
     <use xlink:href="#DejaVuSans-6e" transform="translate(1081.794922 0)"/>
     <use xlink:href="#DejaVuSans-3a" transform="translate(1145.173828 0)"/>
    </g>
    <!-- layering, scour, installation -->
    <g transform="translate(555.643438 157.404844) scale(0.1 -0.1)">
     <use xlink:href="#DejaVuSans-6c"/>
     <use xlink:href="#DejaVuSans-61" transform="translate(27.783203 0)"/>
     <use xlink:href="#DejaVuSans-79" transform="translate(89.0625 0)"/>
     <use xlink:href="#DejaVuSans-65" transform="translate(148.242188 0)"/>
     <use xlink:href="#DejaVuSans-72" transform="translate(209.765625 0)"/>
     <use xlink:href="#DejaVuSans-69" transform="translate(250.878906 0)"/>
     <use xlink:href="#DejaVuSans-6e" transform="translate(278.662109 0)"/>
     <use xlink:href="#DejaVuSans-67" transform="translate(342.041016 0)"/>
     <use xlink:href="#DejaVuSans-2c" transform="translate(405.517578 0)"/>
     <use xlink:href="#DejaVuSans-20" transform="translate(437.304688 0)"/>
     <use xlink:href="#DejaVuSans-73" transform="translate(469.091797 0)"/>
     <use xlink:href="#DejaVuSans-63" transform="translate(521.191406 0)"/>
     <use xlink:href="#DejaVuSans-6f" transform="translate(576.171875 0)"/>
     <use xlink:href="#DejaVuSans-75" transform="translate(637.353516 0)"/>
     <use xlink:href="#DejaVuSans-72" transform="translate(700.732422 0)"/>
     <use xlink:href="#DejaVuSans-2c" transform="translate(741.845703 0)"/>
     <use xlink:href="#DejaVuSans-20" transform="translate(773.632812 0)"/>
     <use xlink:href="#DejaVuSans-69" transform="translate(805.419922 0)"/>
     <use xlink:href="#DejaVuSans-6e" transform="translate(833.203125 0)"/>
     <use xlink:href="#DejaVuSans-73" transform="translate(896.582031 0)"/>
     <use xlink:href="#DejaVuSans-74" transform="translate(948.681641 0)"/>
     <use xlink:href="#DejaVuSans-61" transform="translate(987.890625 0)"/>
     <use xlink:href="#DejaVuSans-6c" transform="translate(1049.169922 0)"/>
     <use xlink:href="#DejaVuSans-6c" transform="translate(1076.953125 0)"/>
     <use xlink:href="#DejaVuSans-61" transform="translate(1104.736328 0)"/>
     <use xlink:href="#DejaVuSans-74" transform="translate(1166.015625 0)"/>
     <use xlink:href="#DejaVuSans-69" transform="translate(1205.224609 0)"/>
     <use xlink:href="#DejaVuSans-6f" transform="translate(1233.007812 0)"/>
     <use xlink:href="#DejaVuSans-6e" transform="translate(1294.189453 0)"/>
    </g>
   </g>
   <g id="text_5">
    <!-- Use established p-y model -->
    <g transform="translate(98.572443 242.581875) scale(0.1 -0.1)">
     <defs>
      <path id="DejaVuSans-68" d="M 3513 2113 
L 3513 0 
L 2938 0 
L 2938 2094 
Q 2938 2591 2744 2837 
Q 2550 3084 2163 3084 
Q 1697 3084 1428 2787 
Q 1159 2491 1159 1978 
L 1159 0 
L 581 0 
L 581 4863 
L 1159 4863 
L 1159 2956 
Q 1366 3272 1645 3428 
Q 1925 3584 2291 3584 
Q 2894 3584 3203 3211 
Q 3513 2838 3513 2113 
z
" transform="scale(0.015625)"/>
     </defs>
     <use xlink:href="#DejaVuSans-55"/>
     <use xlink:href="#DejaVuSans-73" transform="translate(73.193359 0)"/>
     <use xlink:href="#DejaVuSans-65" transform="translate(125.292969 0)"/>
     <use xlink:href="#DejaVuSans-20" transform="translate(186.816406 0)"/>
     <use xlink:href="#DejaVuSans-65" transform="translate(218.603516 0)"/>
     <use xlink:href="#DejaVuSans-73" transform="translate(280.126953 0)"/>
     <use xlink:href="#DejaVuSans-74" transform="translate(332.226562 0)"/>
     <use xlink:href="#DejaVuSans-61" transform="translate(371.435547 0)"/>
     <use xlink:href="#DejaVuSans-62" transform="translate(432.714844 0)"/>
     <use xlink:href="#DejaVuSans-6c" transform="translate(496.191406 0)"/>
     <use xlink:href="#DejaVuSans-69" transform="translate(523.974609 0)"/>
     <use xlink:href="#DejaVuSans-73" transform="translate(551.757812 0)"/>
     <use xlink:href="#DejaVuSans-68" transform="translate(603.857422 0)"/>
     <use xlink:href="#DejaVuSans-65" transform="translate(667.236328 0)"/>
     <use xlink:href="#DejaVuSans-64" transform="translate(728.759766 0)"/>
     <use xlink:href="#DejaVuSans-20" transform="translate(792.236328 0)"/>
     <use xlink:href="#DejaVuSans-70" transform="translate(824.023438 0)"/>
     <use xlink:href="#DejaVuSans-2d" transform="translate(887.5 0)"/>
     <use xlink:href="#DejaVuSans-79" transform="translate(921.833984 0)"/>
     <use xlink:href="#DejaVuSans-20" transform="translate(981.013672 0)"/>
     <use xlink:href="#DejaVuSans-6d" transform="translate(1012.800781 0)"/>
     <use xlink:href="#DejaVuSans-6f" transform="translate(1110.212891 0)"/>
     <use xlink:href="#DejaVuSans-64" transform="translate(1171.394531 0)"/>
     <use xlink:href="#DejaVuSans-65" transform="translate(1234.871094 0)"/>
     <use xlink:href="#DejaVuSans-6c" transform="translate(1296.394531 0)"/>
    </g>
    <!-- with site-calibrated stiffness -->
    <g transform="translate(94.137287 253.779687) scale(0.1 -0.1)">
     <defs>
      <path id="DejaVuSans-77" d="M 269 3500 
L 844 3500 
L 1563 769 
L 2278 3500 
L 2956 3500 
L 3675 769 
L 4391 3500 
L 4966 3500 
L 4050 0 
L 3372 0 
L 2619 2869 
L 1863 0 
L 1184 0 
L 269 3500 
z
" transform="scale(0.015625)"/>
     </defs>
     <use xlink:href="#DejaVuSans-77"/>
     <use xlink:href="#DejaVuSans-69" transform="translate(81.787109 0)"/>
     <use xlink:href="#DejaVuSans-74" transform="translate(109.570312 0)"/>
     <use xlink:href="#DejaVuSans-68" transform="translate(148.779297 0)"/>
     <use xlink:href="#DejaVuSans-20" transform="translate(212.158203 0)"/>
     <use xlink:href="#DejaVuSans-73" transform="translate(243.945312 0)"/>
     <use xlink:href="#DejaVuSans-69" transform="translate(296.044922 0)"/>
     <use xlink:href="#DejaVuSans-74" transform="translate(323.828125 0)"/>
     <use xlink:href="#DejaVuSans-65" transform="translate(363.037109 0)"/>
     <use xlink:href="#DejaVuSans-2d" transform="translate(424.560547 0)"/>
     <use xlink:href="#DejaVuSans-63" transform="translate(460.644531 0)"/>
     <use xlink:href="#DejaVuSans-61" transform="translate(515.625 0)"/>
     <use xlink:href="#DejaVuSans-6c" transform="translate(576.904297 0)"/>
     <use xlink:href="#DejaVuSans-69" transform="translate(604.6875 0)"/>
     <use xlink:href="#DejaVuSans-62" transform="translate(632.470703 0)"/>
     <use xlink:href="#DejaVuSans-72" transform="translate(695.947266 0)"/>
     <use xlink:href="#DejaVuSans-61" transform="translate(737.060547 0)"/>
     <use xlink:href="#DejaVuSans-74" transform="translate(798.339844 0)"/>
     <use xlink:href="#DejaVuSans-65" transform="translate(837.548828 0)"/>
     <use xlink:href="#DejaVuSans-64" transform="translate(899.072266 0)"/>
     <use xlink:href="#DejaVuSans-20" transform="translate(962.548828 0)"/>
     <use xlink:href="#DejaVuSans-73" transform="translate(994.335938 0)"/>
     <use xlink:href="#DejaVuSans-74" transform="translate(1046.435547 0)"/>
     <use xlink:href="#DejaVuSans-69" transform="translate(1085.644531 0)"/>
     <use xlink:href="#DejaVuSans-66" transform="translate(1113.427734 0)"/>
     <use xlink:href="#DejaVuSans-66" transform="translate(1148.632812 0)"/>
     <use xlink:href="#DejaVuSans-6e" transform="translate(1183.837891 0)"/>
     <use xlink:href="#DejaVuSans-65" transform="translate(1247.216797 0)"/>
     <use xlink:href="#DejaVuSans-73" transform="translate(1308.740234 0)"/>
     <use xlink:href="#DejaVuSans-73" transform="translate(1360.839844 0)"/>
    </g>
    <!-- and capacity checks -->
    <g transform="translate(113.843537 264.9775) scale(0.1 -0.1)">
     <defs>
      <path id="DejaVuSans-6b" d="M 581 4863 
L 1159 4863 
L 1159 1991 
L 2875 3500 
L 3609 3500 
L 1753 1863 
L 3688 0 
L 2938 0 
L 1159 1709 
L 1159 0 
L 581 0 
L 581 4863 
z
" transform="scale(0.015625)"/>
     </defs>
     <use xlink:href="#DejaVuSans-61"/>
     <use xlink:href="#DejaVuSans-6e" transform="translate(61.279297 0)"/>
     <use xlink:href="#DejaVuSans-64" transform="translate(124.658203 0)"/>
     <use xlink:href="#DejaVuSans-20" transform="translate(188.134766 0)"/>
     <use xlink:href="#DejaVuSans-63" transform="translate(219.921875 0)"/>
     <use xlink:href="#DejaVuSans-61" transform="translate(274.902344 0)"/>
     <use xlink:href="#DejaVuSans-70" transform="translate(336.181641 0)"/>
     <use xlink:href="#DejaVuSans-61" transform="translate(399.658203 0)"/>
     <use xlink:href="#DejaVuSans-63" transform="translate(460.9375 0)"/>
     <use xlink:href="#DejaVuSans-69" transform="translate(515.917969 0)"/>
     <use xlink:href="#DejaVuSans-74" transform="translate(543.701172 0)"/>
     <use xlink:href="#DejaVuSans-79" transform="translate(582.910156 0)"/>
     <use xlink:href="#DejaVuSans-20" transform="translate(642.089844 0)"/>
     <use xlink:href="#DejaVuSans-63" transform="translate(673.876953 0)"/>
     <use xlink:href="#DejaVuSans-68" transform="translate(728.857422 0)"/>
     <use xlink:href="#DejaVuSans-65" transform="translate(792.236328 0)"/>
     <use xlink:href="#DejaVuSans-63" transform="translate(853.759766 0)"/>
     <use xlink:href="#DejaVuSans-6b" transform="translate(908.740234 0)"/>
     <use xlink:href="#DejaVuSans-73" transform="translate(966.650391 0)"/>
    </g>
   </g>
   <g id="text_6">
    <!-- Prefer mechanism-based model: -->
    <g transform="translate(311.269531 242.581875) scale(0.1 -0.1)">
     <defs>
      <path id="DejaVuSans-50" d="M 1259 4147 
L 1259 2394 
L 2053 2394 
Q 2494 2394 2734 2622 
Q 2975 2850 2975 3272 
Q 2975 3691 2734 3919 
Q 2494 4147 2053 4147 
L 1259 4147 
z
M 628 4666 
L 2053 4666 
Q 2838 4666 3239 4311 
Q 3641 3956 3641 3272 
Q 3641 2581 3239 2228 
Q 2838 1875 2053 1875 
L 1259 1875 
L 1259 0 
L 628 0 
L 628 4666 
z
" transform="scale(0.015625)"/>
     </defs>
     <use xlink:href="#DejaVuSans-50"/>
     <use xlink:href="#DejaVuSans-72" transform="translate(58.552734 0)"/>
     <use xlink:href="#DejaVuSans-65" transform="translate(97.416016 0)"/>
     <use xlink:href="#DejaVuSans-66" transform="translate(158.939453 0)"/>
     <use xlink:href="#DejaVuSans-65" transform="translate(194.144531 0)"/>
     <use xlink:href="#DejaVuSans-72" transform="translate(255.667969 0)"/>
     <use xlink:href="#DejaVuSans-20" transform="translate(296.78125 0)"/>
     <use xlink:href="#DejaVuSans-6d" transform="translate(328.568359 0)"/>
     <use xlink:href="#DejaVuSans-65" transform="translate(425.980469 0)"/>
     <use xlink:href="#DejaVuSans-63" transform="translate(487.503906 0)"/>
     <use xlink:href="#DejaVuSans-68" transform="translate(542.484375 0)"/>
     <use xlink:href="#DejaVuSans-61" transform="translate(605.863281 0)"/>
     <use xlink:href="#DejaVuSans-6e" transform="translate(667.142578 0)"/>
     <use xlink:href="#DejaVuSans-69" transform="translate(730.521484 0)"/>
     <use xlink:href="#DejaVuSans-73" transform="translate(758.304688 0)"/>
     <use xlink:href="#DejaVuSans-6d" transform="translate(810.404297 0)"/>
     <use xlink:href="#DejaVuSans-2d" transform="translate(907.816406 0)"/>
     <use xlink:href="#DejaVuSans-62" transform="translate(943.900391 0)"/>
     <use xlink:href="#DejaVuSans-61" transform="translate(1007.376953 0)"/>
     <use xlink:href="#DejaVuSans-73" transform="translate(1068.65625 0)"/>
     <use xlink:href="#DejaVuSans-65" transform="translate(1120.755859 0)"/>
     <use xlink:href="#DejaVuSans-64" transform="translate(1182.279297 0)"/>
     <use xlink:href="#DejaVuSans-20" transform="translate(1245.755859 0)"/>
     <use xlink:href="#DejaVuSans-6d" transform="translate(1277.542969 0)"/>
     <use xlink:href="#DejaVuSans-6f" transform="translate(1374.955078 0)"/>
     <use xlink:href="#DejaVuSans-64" transform="translate(1436.136719 0)"/>
     <use xlink:href="#DejaVuSans-65" transform="translate(1499.613281 0)"/>
     <use xlink:href="#DejaVuSans-6c" transform="translate(1561.136719 0)"/>
     <use xlink:href="#DejaVuSans-3a" transform="translate(1588.919922 0)"/>
    </g>
    <!-- PISA, p-y + m-theta, -->
    <g transform="translate(341.332812 253.779687) scale(0.1 -0.1)">
     <defs>
      <path id="DejaVuSans-41" d="M 2188 4044 
L 1331 1722 
L 3047 1722 
L 2188 4044 
z
M 1831 4666 
L 2547 4666 
L 4325 0 
L 3669 0 
L 3244 1197 
L 1141 1197 
L 716 0 
L 50 0 
L 1831 4666 
z
" transform="scale(0.015625)"/>
      <path id="DejaVuSans-2b" d="M 2944 4013 
L 2944 2272 
L 4684 2272 
L 4684 1741 
L 2944 1741 
L 2944 0 
L 2419 0 
L 2419 1741 
L 678 1741 
L 678 2272 
L 2419 2272 
L 2419 4013 
L 2944 4013 
z
" transform="scale(0.015625)"/>
     </defs>
     <use xlink:href="#DejaVuSans-50"/>
     <use xlink:href="#DejaVuSans-49" transform="translate(60.302734 0)"/>
     <use xlink:href="#DejaVuSans-53" transform="translate(89.794922 0)"/>
     <use xlink:href="#DejaVuSans-41" transform="translate(155.146484 0)"/>
     <use xlink:href="#DejaVuSans-2c" transform="translate(223.554688 0)"/>
     <use xlink:href="#DejaVuSans-20" transform="translate(255.341797 0)"/>
     <use xlink:href="#DejaVuSans-70" transform="translate(287.128906 0)"/>
     <use xlink:href="#DejaVuSans-2d" transform="translate(350.605469 0)"/>
     <use xlink:href="#DejaVuSans-79" transform="translate(384.939453 0)"/>
     <use xlink:href="#DejaVuSans-20" transform="translate(444.119141 0)"/>
     <use xlink:href="#DejaVuSans-2b" transform="translate(475.90625 0)"/>
     <use xlink:href="#DejaVuSans-20" transform="translate(559.695312 0)"/>
     <use xlink:href="#DejaVuSans-6d" transform="translate(591.482422 0)"/>
     <use xlink:href="#DejaVuSans-2d" transform="translate(688.894531 0)"/>
     <use xlink:href="#DejaVuSans-74" transform="translate(724.978516 0)"/>
     <use xlink:href="#DejaVuSans-68" transform="translate(764.1875 0)"/>
     <use xlink:href="#DejaVuSans-65" transform="translate(827.566406 0)"/>
     <use xlink:href="#DejaVuSans-74" transform="translate(889.089844 0)"/>
     <use xlink:href="#DejaVuSans-61" transform="translate(928.298828 0)"/>
     <use xlink:href="#DejaVuSans-2c" transform="translate(989.578125 0)"/>
    </g>
    <!-- or rotational spring -->
    <g transform="translate(344.483594 264.9775) scale(0.1 -0.1)">
     <use xlink:href="#DejaVuSans-6f"/>
     <use xlink:href="#DejaVuSans-72" transform="translate(61.181641 0)"/>
     <use xlink:href="#DejaVuSans-20" transform="translate(102.294922 0)"/>
     <use xlink:href="#DejaVuSans-72" transform="translate(134.082031 0)"/>
     <use xlink:href="#DejaVuSans-6f" transform="translate(172.945312 0)"/>
     <use xlink:href="#DejaVuSans-74" transform="translate(234.126953 0)"/>
     <use xlink:href="#DejaVuSans-61" transform="translate(273.335938 0)"/>
     <use xlink:href="#DejaVuSans-74" transform="translate(334.615234 0)"/>
     <use xlink:href="#DejaVuSans-69" transform="translate(373.824219 0)"/>
     <use xlink:href="#DejaVuSans-6f" transform="translate(401.607422 0)"/>
     <use xlink:href="#DejaVuSans-6e" transform="translate(462.789062 0)"/>
     <use xlink:href="#DejaVuSans-61" transform="translate(526.167969 0)"/>
     <use xlink:href="#DejaVuSans-6c" transform="translate(587.447266 0)"/>
     <use xlink:href="#DejaVuSans-20" transform="translate(615.230469 0)"/>
     <use xlink:href="#DejaVuSans-73" transform="translate(647.017578 0)"/>
     <use xlink:href="#DejaVuSans-70" transform="translate(699.117188 0)"/>
     <use xlink:href="#DejaVuSans-72" transform="translate(762.59375 0)"/>
     <use xlink:href="#DejaVuSans-69" transform="translate(803.707031 0)"/>
     <use xlink:href="#DejaVuSans-6e" transform="translate(831.490234 0)"/>
     <use xlink:href="#DejaVuSans-67" transform="translate(894.869141 0)"/>
    </g>
   </g>
   <g id="text_7">
    <!-- Use CPT-/FE-calibrated curves -->
    <g transform="translate(548.859844 242.581875) scale(0.1 -0.1)">
     <defs>
      <path id="DejaVuSans-54" d="M -19 4666 
L 3928 4666 
L 3928 4134 
L 2272 4134 
L 2272 0 
L 1638 0 
L 1638 4134 
L -19 4134 
L -19 4666 
z
" transform="scale(0.015625)"/>
      <path id="DejaVuSans-46" d="M 628 4666 
L 3309 4666 
L 3309 4134 
L 1259 4134 
L 1259 2759 
L 3109 2759 
L 3109 2228 
L 1259 2228 
L 1259 0 
L 628 0 
L 628 4666 
z
" transform="scale(0.015625)"/>
      <path id="DejaVuSans-45" d="M 628 4666 
L 3578 4666 
L 3578 4134 
L 1259 4134 
L 1259 2753 
L 3481 2753 
L 3481 2222 
L 1259 2222 
L 1259 531 
L 3634 531 
L 3634 0 
L 628 0 
L 628 4666 
z
" transform="scale(0.015625)"/>
      <path id="DejaVuSans-76" d="M 191 3500 
L 800 3500 
L 1894 563 
L 2988 3500 
L 3597 3500 
L 2284 0 
L 1503 0 
L 191 3500 
z
" transform="scale(0.015625)"/>
     </defs>
     <use xlink:href="#DejaVuSans-55"/>
     <use xlink:href="#DejaVuSans-73" transform="translate(73.193359 0)"/>
     <use xlink:href="#DejaVuSans-65" transform="translate(125.292969 0)"/>
     <use xlink:href="#DejaVuSans-20" transform="translate(186.816406 0)"/>
     <use xlink:href="#DejaVuSans-43" transform="translate(218.603516 0)"/>
     <use xlink:href="#DejaVuSans-50" transform="translate(288.427734 0)"/>
     <use xlink:href="#DejaVuSans-54" transform="translate(348.730469 0)"/>
     <use xlink:href="#DejaVuSans-2d" transform="translate(400.689453 0)"/>
     <use xlink:href="#DejaVuSans-2f" transform="translate(436.773438 0)"/>
     <use xlink:href="#DejaVuSans-46" transform="translate(470.464844 0)"/>
     <use xlink:href="#DejaVuSans-45" transform="translate(527.984375 0)"/>
     <use xlink:href="#DejaVuSans-2d" transform="translate(591.167969 0)"/>
     <use xlink:href="#DejaVuSans-63" transform="translate(627.251953 0)"/>
     <use xlink:href="#DejaVuSans-61" transform="translate(682.232422 0)"/>
     <use xlink:href="#DejaVuSans-6c" transform="translate(743.511719 0)"/>
     <use xlink:href="#DejaVuSans-69" transform="translate(771.294922 0)"/>
     <use xlink:href="#DejaVuSans-62" transform="translate(799.078125 0)"/>
     <use xlink:href="#DejaVuSans-72" transform="translate(862.554688 0)"/>
     <use xlink:href="#DejaVuSans-61" transform="translate(903.667969 0)"/>
     <use xlink:href="#DejaVuSans-74" transform="translate(964.947266 0)"/>
     <use xlink:href="#DejaVuSans-65" transform="translate(1004.15625 0)"/>
     <use xlink:href="#DejaVuSans-64" transform="translate(1065.679688 0)"/>
     <use xlink:href="#DejaVuSans-20" transform="translate(1129.15625 0)"/>
     <use xlink:href="#DejaVuSans-63" transform="translate(1160.943359 0)"/>
     <use xlink:href="#DejaVuSans-75" transform="translate(1215.923828 0)"/>
     <use xlink:href="#DejaVuSans-72" transform="translate(1279.302734 0)"/>
     <use xlink:href="#DejaVuSans-76" transform="translate(1320.416016 0)"/>
     <use xlink:href="#DejaVuSans-65" transform="translate(1379.595703 0)"/>
     <use xlink:href="#DejaVuSans-73" transform="translate(1441.119141 0)"/>
    </g>
    <!-- and preserve the actual -->
    <g transform="translate(563.778594 253.779687) scale(0.1 -0.1)">
     <use xlink:href="#DejaVuSans-61"/>
     <use xlink:href="#DejaVuSans-6e" transform="translate(61.279297 0)"/>
     <use xlink:href="#DejaVuSans-64" transform="translate(124.658203 0)"/>
     <use xlink:href="#DejaVuSans-20" transform="translate(188.134766 0)"/>
     <use xlink:href="#DejaVuSans-70" transform="translate(219.921875 0)"/>
     <use xlink:href="#DejaVuSans-72" transform="translate(283.398438 0)"/>
     <use xlink:href="#DejaVuSans-65" transform="translate(322.261719 0)"/>
     <use xlink:href="#DejaVuSans-73" transform="translate(383.785156 0)"/>
     <use xlink:href="#DejaVuSans-65" transform="translate(435.884766 0)"/>
     <use xlink:href="#DejaVuSans-72" transform="translate(497.408203 0)"/>
     <use xlink:href="#DejaVuSans-76" transform="translate(538.521484 0)"/>
     <use xlink:href="#DejaVuSans-65" transform="translate(597.701172 0)"/>
     <use xlink:href="#DejaVuSans-20" transform="translate(659.224609 0)"/>
     <use xlink:href="#DejaVuSans-74" transform="translate(691.011719 0)"/>
     <use xlink:href="#DejaVuSans-68" transform="translate(730.220703 0)"/>
     <use xlink:href="#DejaVuSans-65" transform="translate(793.599609 0)"/>
     <use xlink:href="#DejaVuSans-20" transform="translate(855.123047 0)"/>
     <use xlink:href="#DejaVuSans-61" transform="translate(886.910156 0)"/>
     <use xlink:href="#DejaVuSans-63" transform="translate(948.189453 0)"/>
     <use xlink:href="#DejaVuSans-74" transform="translate(1003.169922 0)"/>
     <use xlink:href="#DejaVuSans-75" transform="translate(1042.378906 0)"/>
     <use xlink:href="#DejaVuSans-61" transform="translate(1105.757812 0)"/>
     <use xlink:href="#DejaVuSans-6c" transform="translate(1167.037109 0)"/>
    </g>
    <!-- stress and installation state -->
    <g transform="translate(554.280156 264.9775) scale(0.1 -0.1)">
     <use xlink:href="#DejaVuSans-73"/>
     <use xlink:href="#DejaVuSans-74" transform="translate(52.099609 0)"/>
     <use xlink:href="#DejaVuSans-72" transform="translate(91.308594 0)"/>
     <use xlink:href="#DejaVuSans-65" transform="translate(130.171875 0)"/>
     <use xlink:href="#DejaVuSans-73" transform="translate(191.695312 0)"/>
     <use xlink:href="#DejaVuSans-73" transform="translate(243.794922 0)"/>
     <use xlink:href="#DejaVuSans-20" transform="translate(295.894531 0)"/>
     <use xlink:href="#DejaVuSans-61" transform="translate(327.681641 0)"/>
     <use xlink:href="#DejaVuSans-6e" transform="translate(388.960938 0)"/>
     <use xlink:href="#DejaVuSans-64" transform="translate(452.339844 0)"/>
     <use xlink:href="#DejaVuSans-20" transform="translate(515.816406 0)"/>
     <use xlink:href="#DejaVuSans-69" transform="translate(547.603516 0)"/>
     <use xlink:href="#DejaVuSans-6e" transform="translate(575.386719 0)"/>
     <use xlink:href="#DejaVuSans-73" transform="translate(638.765625 0)"/>
     <use xlink:href="#DejaVuSans-74" transform="translate(690.865234 0)"/>
     <use xlink:href="#DejaVuSans-61" transform="translate(730.074219 0)"/>
     <use xlink:href="#DejaVuSans-6c" transform="translate(791.353516 0)"/>
     <use xlink:href="#DejaVuSans-6c" transform="translate(819.136719 0)"/>
     <use xlink:href="#DejaVuSans-61" transform="translate(846.919922 0)"/>
     <use xlink:href="#DejaVuSans-74" transform="translate(908.199219 0)"/>
     <use xlink:href="#DejaVuSans-69" transform="translate(947.408203 0)"/>
     <use xlink:href="#DejaVuSans-6f" transform="translate(975.191406 0)"/>
     <use xlink:href="#DejaVuSans-6e" transform="translate(1036.373047 0)"/>
     <use xlink:href="#DejaVuSans-20" transform="translate(1099.751953 0)"/>
     <use xlink:href="#DejaVuSans-73" transform="translate(1131.539062 0)"/>
     <use xlink:href="#DejaVuSans-74" transform="translate(1183.638672 0)"/>
     <use xlink:href="#DejaVuSans-61" transform="translate(1222.847656 0)"/>
     <use xlink:href="#DejaVuSans-74" transform="translate(1284.126953 0)"/>
     <use xlink:href="#DejaVuSans-65" transform="translate(1323.335938 0)"/>
    </g>
   </g>
   <g id="text_8">
    <!-- Validate global response: -->
    <g transform="translate(329.429688 358.918125) scale(0.1 -0.1)">
     <defs>
      <path id="DejaVuSans-56" d="M 1831 0 
L 50 4666 
L 709 4666 
L 2188 738 
L 3669 4666 
L 4325 4666 
L 2547 0 
L 1831 0 
z
" transform="scale(0.015625)"/>
     </defs>
     <use xlink:href="#DejaVuSans-56"/>
     <use xlink:href="#DejaVuSans-61" transform="translate(60.658203 0)"/>
     <use xlink:href="#DejaVuSans-6c" transform="translate(121.9375 0)"/>
     <use xlink:href="#DejaVuSans-69" transform="translate(149.720703 0)"/>
     <use xlink:href="#DejaVuSans-64" transform="translate(177.503906 0)"/>
     <use xlink:href="#DejaVuSans-61" transform="translate(240.980469 0)"/>
     <use xlink:href="#DejaVuSans-74" transform="translate(302.259766 0)"/>
     <use xlink:href="#DejaVuSans-65" transform="translate(341.46875 0)"/>
     <use xlink:href="#DejaVuSans-20" transform="translate(402.992188 0)"/>
     <use xlink:href="#DejaVuSans-67" transform="translate(434.779297 0)"/>
     <use xlink:href="#DejaVuSans-6c" transform="translate(498.255859 0)"/>
     <use xlink:href="#DejaVuSans-6f" transform="translate(526.039062 0)"/>
     <use xlink:href="#DejaVuSans-62" transform="translate(587.220703 0)"/>
     <use xlink:href="#DejaVuSans-61" transform="translate(650.697266 0)"/>
     <use xlink:href="#DejaVuSans-6c" transform="translate(711.976562 0)"/>
     <use xlink:href="#DejaVuSans-20" transform="translate(739.759766 0)"/>
     <use xlink:href="#DejaVuSans-72" transform="translate(771.546875 0)"/>
     <use xlink:href="#DejaVuSans-65" transform="translate(810.410156 0)"/>
     <use xlink:href="#DejaVuSans-73" transform="translate(871.933594 0)"/>
     <use xlink:href="#DejaVuSans-70" transform="translate(924.033203 0)"/>
     <use xlink:href="#DejaVuSans-6f" transform="translate(987.509766 0)"/>
     <use xlink:href="#DejaVuSans-6e" transform="translate(1048.691406 0)"/>
     <use xlink:href="#DejaVuSans-73" transform="translate(1112.070312 0)"/>
     <use xlink:href="#DejaVuSans-65" transform="translate(1164.169922 0)"/>
     <use xlink:href="#DejaVuSans-3a" transform="translate(1225.693359 0)"/>
    </g>
    <!-- head stiffness, rotation, -->
    <g transform="translate(333.027344 370.115937) scale(0.1 -0.1)">
     <use xlink:href="#DejaVuSans-68"/>
     <use xlink:href="#DejaVuSans-65" transform="translate(63.378906 0)"/>
     <use xlink:href="#DejaVuSans-61" transform="translate(124.902344 0)"/>
     <use xlink:href="#DejaVuSans-64" transform="translate(186.181641 0)"/>
     <use xlink:href="#DejaVuSans-20" transform="translate(249.658203 0)"/>
     <use xlink:href="#DejaVuSans-73" transform="translate(281.445312 0)"/>
     <use xlink:href="#DejaVuSans-74" transform="translate(333.544922 0)"/>
     <use xlink:href="#DejaVuSans-69" transform="translate(372.753906 0)"/>
     <use xlink:href="#DejaVuSans-66" transform="translate(400.537109 0)"/>
     <use xlink:href="#DejaVuSans-66" transform="translate(435.742188 0)"/>
     <use xlink:href="#DejaVuSans-6e" transform="translate(470.947266 0)"/>
     <use xlink:href="#DejaVuSans-65" transform="translate(534.326172 0)"/>
     <use xlink:href="#DejaVuSans-73" transform="translate(595.849609 0)"/>
     <use xlink:href="#DejaVuSans-73" transform="translate(647.949219 0)"/>
     <use xlink:href="#DejaVuSans-2c" transform="translate(700.048828 0)"/>
     <use xlink:href="#DejaVuSans-20" transform="translate(731.835938 0)"/>
     <use xlink:href="#DejaVuSans-72" transform="translate(763.623047 0)"/>
     <use xlink:href="#DejaVuSans-6f" transform="translate(802.486328 0)"/>
     <use xlink:href="#DejaVuSans-74" transform="translate(863.667969 0)"/>
     <use xlink:href="#DejaVuSans-61" transform="translate(902.876953 0)"/>
     <use xlink:href="#DejaVuSans-74" transform="translate(964.15625 0)"/>
     <use xlink:href="#DejaVuSans-69" transform="translate(1003.365234 0)"/>
     <use xlink:href="#DejaVuSans-6f" transform="translate(1031.148438 0)"/>
     <use xlink:href="#DejaVuSans-6e" transform="translate(1092.330078 0)"/>
     <use xlink:href="#DejaVuSans-2c" transform="translate(1155.708984 0)"/>
    </g>
    <!-- moment profile and capacity -->
    <g transform="translate(320.319531 381.31375) scale(0.1 -0.1)">
     <use xlink:href="#DejaVuSans-6d"/>
     <use xlink:href="#DejaVuSans-6f" transform="translate(97.412109 0)"/>
     <use xlink:href="#DejaVuSans-6d" transform="translate(158.59375 0)"/>
     <use xlink:href="#DejaVuSans-65" transform="translate(256.005859 0)"/>
     <use xlink:href="#DejaVuSans-6e" transform="translate(317.529297 0)"/>
     <use xlink:href="#DejaVuSans-74" transform="translate(380.908203 0)"/>
     <use xlink:href="#DejaVuSans-20" transform="translate(420.117188 0)"/>
     <use xlink:href="#DejaVuSans-70" transform="translate(451.904297 0)"/>
     <use xlink:href="#DejaVuSans-72" transform="translate(515.380859 0)"/>
     <use xlink:href="#DejaVuSans-6f" transform="translate(554.244141 0)"/>
     <use xlink:href="#DejaVuSans-66" transform="translate(615.425781 0)"/>
     <use xlink:href="#DejaVuSans-69" transform="translate(650.630859 0)"/>
     <use xlink:href="#DejaVuSans-6c" transform="translate(678.414062 0)"/>
     <use xlink:href="#DejaVuSans-65" transform="translate(706.197266 0)"/>
     <use xlink:href="#DejaVuSans-20" transform="translate(767.720703 0)"/>
     <use xlink:href="#DejaVuSans-61" transform="translate(799.507812 0)"/>
     <use xlink:href="#DejaVuSans-6e" transform="translate(860.787109 0)"/>
     <use xlink:href="#DejaVuSans-64" transform="translate(924.166016 0)"/>
     <use xlink:href="#DejaVuSans-20" transform="translate(987.642578 0)"/>
     <use xlink:href="#DejaVuSans-63" transform="translate(1019.429688 0)"/>
     <use xlink:href="#DejaVuSans-61" transform="translate(1074.410156 0)"/>
     <use xlink:href="#DejaVuSans-70" transform="translate(1135.689453 0)"/>
     <use xlink:href="#DejaVuSans-61" transform="translate(1199.166016 0)"/>
     <use xlink:href="#DejaVuSans-63" transform="translate(1260.445312 0)"/>
     <use xlink:href="#DejaVuSans-69" transform="translate(1315.425781 0)"/>
     <use xlink:href="#DejaVuSans-74" transform="translate(1343.208984 0)"/>
     <use xlink:href="#DejaVuSans-79" transform="translate(1382.417969 0)"/>
    </g>
   </g>
   <g id="text_9">
    <!-- Document model range, -->
    <g transform="translate(331.621094 453.564531) scale(0.1 -0.1)">
     <use xlink:href="#DejaVuSans-44"/>
     <use xlink:href="#DejaVuSans-6f" transform="translate(77.001953 0)"/>
     <use xlink:href="#DejaVuSans-63" transform="translate(138.183594 0)"/>
     <use xlink:href="#DejaVuSans-75" transform="translate(193.164062 0)"/>
     <use xlink:href="#DejaVuSans-6d" transform="translate(256.542969 0)"/>
     <use xlink:href="#DejaVuSans-65" transform="translate(353.955078 0)"/>
     <use xlink:href="#DejaVuSans-6e" transform="translate(415.478516 0)"/>
     <use xlink:href="#DejaVuSans-74" transform="translate(478.857422 0)"/>
     <use xlink:href="#DejaVuSans-20" transform="translate(518.066406 0)"/>
     <use xlink:href="#DejaVuSans-6d" transform="translate(549.853516 0)"/>
     <use xlink:href="#DejaVuSans-6f" transform="translate(647.265625 0)"/>
     <use xlink:href="#DejaVuSans-64" transform="translate(708.447266 0)"/>
     <use xlink:href="#DejaVuSans-65" transform="translate(771.923828 0)"/>
     <use xlink:href="#DejaVuSans-6c" transform="translate(833.447266 0)"/>
     <use xlink:href="#DejaVuSans-20" transform="translate(861.230469 0)"/>
     <use xlink:href="#DejaVuSans-72" transform="translate(893.017578 0)"/>
     <use xlink:href="#DejaVuSans-61" transform="translate(934.130859 0)"/>
     <use xlink:href="#DejaVuSans-6e" transform="translate(995.410156 0)"/>
     <use xlink:href="#DejaVuSans-67" transform="translate(1058.789062 0)"/>
     <use xlink:href="#DejaVuSans-65" transform="translate(1122.265625 0)"/>
     <use xlink:href="#DejaVuSans-2c" transform="translate(1183.789062 0)"/>
    </g>
    <!-- uncertainty and sensitivity -->
    <g transform="translate(325.633594 464.762344) scale(0.1 -0.1)">
     <use xlink:href="#DejaVuSans-75"/>
     <use xlink:href="#DejaVuSans-6e" transform="translate(63.378906 0)"/>
     <use xlink:href="#DejaVuSans-63" transform="translate(126.757812 0)"/>
     <use xlink:href="#DejaVuSans-65" transform="translate(181.738281 0)"/>
     <use xlink:href="#DejaVuSans-72" transform="translate(243.261719 0)"/>
     <use xlink:href="#DejaVuSans-74" transform="translate(284.375 0)"/>
     <use xlink:href="#DejaVuSans-61" transform="translate(323.583984 0)"/>
     <use xlink:href="#DejaVuSans-69" transform="translate(384.863281 0)"/>
     <use xlink:href="#DejaVuSans-6e" transform="translate(412.646484 0)"/>
     <use xlink:href="#DejaVuSans-74" transform="translate(476.025391 0)"/>
     <use xlink:href="#DejaVuSans-79" transform="translate(515.234375 0)"/>
     <use xlink:href="#DejaVuSans-20" transform="translate(574.414062 0)"/>
     <use xlink:href="#DejaVuSans-61" transform="translate(606.201172 0)"/>
     <use xlink:href="#DejaVuSans-6e" transform="translate(667.480469 0)"/>
     <use xlink:href="#DejaVuSans-64" transform="translate(730.859375 0)"/>
     <use xlink:href="#DejaVuSans-20" transform="translate(794.335938 0)"/>
     <use xlink:href="#DejaVuSans-73" transform="translate(826.123047 0)"/>
     <use xlink:href="#DejaVuSans-65" transform="translate(878.222656 0)"/>
     <use xlink:href="#DejaVuSans-6e" transform="translate(939.746094 0)"/>
     <use xlink:href="#DejaVuSans-73" transform="translate(1003.125 0)"/>
     <use xlink:href="#DejaVuSans-69" transform="translate(1055.224609 0)"/>
     <use xlink:href="#DejaVuSans-74" transform="translate(1083.007812 0)"/>
     <use xlink:href="#DejaVuSans-69" transform="translate(1122.216797 0)"/>
     <use xlink:href="#DejaVuSans-76" transform="translate(1150 0)"/>
     <use xlink:href="#DejaVuSans-69" transform="translate(1209.179688 0)"/>
     <use xlink:href="#DejaVuSans-74" transform="translate(1236.962891 0)"/>
     <use xlink:href="#DejaVuSans-79" transform="translate(1276.171875 0)"/>
    </g>
   </g>
   <g id="text_10">
    <!-- Practical model-selection workflow -->
    <g transform="translate(270.922656 17.837812) scale(0.14 -0.14)">
     <use xlink:href="#DejaVuSans-50"/>
     <use xlink:href="#DejaVuSans-72" transform="translate(58.552734 0)"/>
     <use xlink:href="#DejaVuSans-61" transform="translate(99.666016 0)"/>
     <use xlink:href="#DejaVuSans-63" transform="translate(160.945312 0)"/>
     <use xlink:href="#DejaVuSans-74" transform="translate(215.925781 0)"/>
     <use xlink:href="#DejaVuSans-69" transform="translate(255.134766 0)"/>
     <use xlink:href="#DejaVuSans-63" transform="translate(282.917969 0)"/>
     <use xlink:href="#DejaVuSans-61" transform="translate(337.898438 0)"/>
     <use xlink:href="#DejaVuSans-6c" transform="translate(399.177734 0)"/>
     <use xlink:href="#DejaVuSans-20" transform="translate(426.960938 0)"/>
     <use xlink:href="#DejaVuSans-6d" transform="translate(458.748047 0)"/>
     <use xlink:href="#DejaVuSans-6f" transform="translate(556.160156 0)"/>
     <use xlink:href="#DejaVuSans-64" transform="translate(617.341797 0)"/>
     <use xlink:href="#DejaVuSans-65" transform="translate(680.818359 0)"/>
     <use xlink:href="#DejaVuSans-6c" transform="translate(742.341797 0)"/>
     <use xlink:href="#DejaVuSans-2d" transform="translate(770.125 0)"/>
     <use xlink:href="#DejaVuSans-73" transform="translate(806.208984 0)"/>
     <use xlink:href="#DejaVuSans-65" transform="translate(858.308594 0)"/>
     <use xlink:href="#DejaVuSans-6c" transform="translate(919.832031 0)"/>
     <use xlink:href="#DejaVuSans-65" transform="translate(947.615234 0)"/>
     <use xlink:href="#DejaVuSans-63" transform="translate(1009.138672 0)"/>
     <use xlink:href="#DejaVuSans-74" transform="translate(1064.119141 0)"/>
     <use xlink:href="#DejaVuSans-69" transform="translate(1103.328125 0)"/>
     <use xlink:href="#DejaVuSans-6f" transform="translate(1131.111328 0)"/>
     <use xlink:href="#DejaVuSans-6e" transform="translate(1192.292969 0)"/>
     <use xlink:href="#DejaVuSans-20" transform="translate(1255.671875 0)"/>
     <use xlink:href="#DejaVuSans-77" transform="translate(1287.458984 0)"/>
     <use xlink:href="#DejaVuSans-6f" transform="translate(1369.246094 0)"/>
     <use xlink:href="#DejaVuSans-72" transform="translate(1430.427734 0)"/>
     <use xlink:href="#DejaVuSans-6b" transform="translate(1471.541016 0)"/>
     <use xlink:href="#DejaVuSans-66" transform="translate(1529.451172 0)"/>
     <use xlink:href="#DejaVuSans-6c" transform="translate(1564.65625 0)"/>
     <use xlink:href="#DejaVuSans-6f" transform="translate(1592.439453 0)"/>
     <use xlink:href="#DejaVuSans-77" transform="translate(1653.621094 0)"/>
    </g>
   </g>
  </g>
 </g>
 <defs>
  <clipPath id="pbbd8cbdb2e">
   <rect x="7.2" y="29.837812" width="770.4" height="459.6"/>
  </clipPath>
 </defs>
</svg>
