<?xml version="1.0" encoding="utf-8" standalone="no"?>
<!DOCTYPE svg PUBLIC "-//W3C//DTD SVG 1.1//EN"
  "http://www.w3.org/Graphics/SVG/1.1/DTD/svg11.dtd">
<svg xmlns:xlink="http://www.w3.org/1999/xlink" width="651.139687pt" height="405.596094pt" viewBox="0 0 651.139687 405.596094" xmlns="http://www.w3.org/2000/svg" version="1.1">
 <metadata>
  <rdf:RDF xmlns:dc="http://purl.org/dc/elements/1.1/" xmlns:cc="http://creativecommons.org/ns#" xmlns:rdf="http://www.w3.org/1999/02/22-rdf-syntax-ns#">
   <cc:Work>
    <dc:type rdf:resource="http://purl.org/dc/dcmitype/StillImage"/>
    <dc:date>2026-07-10T20:01:03.379238</dc:date>
    <dc:format>image/svg+xml</dc:format>
    <dc:creator>
     <cc:Agent>
      <dc:title>Matplotlib v3.10.8, https://matplotlib.org/</dc:title>
     </cc:Agent>
    </dc:creator>
   </cc:Work>
  </rdf:RDF>
 </metadata>
 <defs>
  <style type="text/css">*{stroke-linejoin: round; stroke-linecap: butt}</style>
 </defs>
 <g id="figure_1">
  <g id="patch_1">
   <path d="M 0 405.596094 
L 651.139687 405.596094 
L 651.139687 0 
L 0 0 
z
" style="fill: #ffffff"/>
  </g>
  <g id="axes_1">
   <g id="patch_2">
    <path d="M 45.743125 366.077969 
L 635.988125 366.077969 
L 635.988125 23.077969 
L 45.743125 23.077969 
z
" style="fill: #ffffff"/>
   </g>
   <g id="matplotlib.axis_1">
    <g id="xtick_1">
     <g id="line2d_1">
      <path d="M 45.743125 366.077969 
L 45.743125 23.077969 
" clip-path="url(#p85a7d59a53)" style="fill: none; stroke: #b0b0b0; stroke-opacity: 0.25; stroke-width: 0.8; stroke-linecap: square"/>
     </g>
     <g id="line2d_2">
      <defs>
       <path id="m858be38f4d" d="M 0 0 
L 0 3.5 
" style="stroke: #000000; stroke-width: 0.8"/>
      </defs>
      <g>
       <use xlink:href="#m858be38f4d" x="45.743125" y="366.077969" style="stroke: #000000; stroke-width: 0.8"/>
      </g>
     </g>
     <g id="text_1">
      <!-- 0.0 -->
      <g transform="translate(37.791563 380.676406) scale(0.1 -0.1)">
       <defs>
        <path id="DejaVuSans-30" d="M 2034 4250 
Q 1547 4250 1301 3770 
Q 1056 3291 1056 2328 
Q 1056 1369 1301 889 
Q 1547 409 2034 409 
Q 2525 409 2770 889 
Q 3016 1369 3016 2328 
Q 3016 3291 2770 3770 
Q 2525 4250 2034 4250 
z
M 2034 4750 
Q 2819 4750 3233 4129 
Q 3647 3509 3647 2328 
Q 3647 1150 3233 529 
Q 2819 -91 2034 -91 
Q 1250 -91 836 529 
Q 422 1150 422 2328 
Q 422 3509 836 4129 
Q 1250 4750 2034 4750 
z
" transform="scale(0.015625)"/>
        <path id="DejaVuSans-2e" d="M 684 794 
L 1344 794 
L 1344 0 
L 684 0 
L 684 794 
z
" transform="scale(0.015625)"/>
       </defs>
       <use xlink:href="#DejaVuSans-30"/>
       <use xlink:href="#DejaVuSans-2e" transform="translate(63.623047 0)"/>
       <use xlink:href="#DejaVuSans-30" transform="translate(95.410156 0)"/>
      </g>
     </g>
    </g>
    <g id="xtick_2">
     <g id="line2d_3">
      <path d="M 144.117292 366.077969 
L 144.117292 23.077969 
" clip-path="url(#p85a7d59a53)" style="fill: none; stroke: #b0b0b0; stroke-opacity: 0.25; stroke-width: 0.8; stroke-linecap: square"/>
     </g>
     <g id="line2d_4">
      <g>
       <use xlink:href="#m858be38f4d" x="144.117292" y="366.077969" style="stroke: #000000; stroke-width: 0.8"/>
      </g>
     </g>
     <g id="text_2">
      <!-- 0.5 -->
      <g transform="translate(136.165729 380.676406) scale(0.1 -0.1)">
       <defs>
        <path id="DejaVuSans-35" d="M 691 4666 
L 3169 4666 
L 3169 4134 
L 1269 4134 
L 1269 2991 
Q 1406 3038 1543 3061 
Q 1681 3084 1819 3084 
Q 2600 3084 3056 2656 
Q 3513 2228 3513 1497 
Q 3513 744 3044 326 
Q 2575 -91 1722 -91 
Q 1428 -91 1123 -41 
Q 819 9 494 109 
L 494 744 
Q 775 591 1075 516 
Q 1375 441 1709 441 
Q 2250 441 2565 725 
Q 2881 1009 2881 1497 
Q 2881 1984 2565 2268 
Q 2250 2553 1709 2553 
Q 1456 2553 1204 2497 
Q 953 2441 691 2322 
L 691 4666 
z
" transform="scale(0.015625)"/>
       </defs>
       <use xlink:href="#DejaVuSans-30"/>
       <use xlink:href="#DejaVuSans-2e" transform="translate(63.623047 0)"/>
       <use xlink:href="#DejaVuSans-35" transform="translate(95.410156 0)"/>
      </g>
     </g>
    </g>
    <g id="xtick_3">
     <g id="line2d_5">
      <path d="M 242.491458 366.077969 
L 242.491458 23.077969 
" clip-path="url(#p85a7d59a53)" style="fill: none; stroke: #b0b0b0; stroke-opacity: 0.25; stroke-width: 0.8; stroke-linecap: square"/>
     </g>
     <g id="line2d_6">
      <g>
       <use xlink:href="#m858be38f4d" x="242.491458" y="366.077969" style="stroke: #000000; stroke-width: 0.8"/>
      </g>
     </g>
     <g id="text_3">
      <!-- 1.0 -->
      <g transform="translate(234.539896 380.676406) scale(0.1 -0.1)">
       <defs>
        <path id="DejaVuSans-31" d="M 794 531 
L 1825 531 
L 1825 4091 
L 703 3866 
L 703 4441 
L 1819 4666 
L 2450 4666 
L 2450 531 
L 3481 531 
L 3481 0 
L 794 0 
L 794 531 
z
" transform="scale(0.015625)"/>
       </defs>
       <use xlink:href="#DejaVuSans-31"/>
       <use xlink:href="#DejaVuSans-2e" transform="translate(63.623047 0)"/>
       <use xlink:href="#DejaVuSans-30" transform="translate(95.410156 0)"/>
      </g>
     </g>
    </g>
    <g id="xtick_4">
     <g id="line2d_7">
      <path d="M 340.865625 366.077969 
L 340.865625 23.077969 
" clip-path="url(#p85a7d59a53)" style="fill: none; stroke: #b0b0b0; stroke-opacity: 0.25; stroke-width: 0.8; stroke-linecap: square"/>
     </g>
     <g id="line2d_8">
      <g>
       <use xlink:href="#m858be38f4d" x="340.865625" y="366.077969" style="stroke: #000000; stroke-width: 0.8"/>
      </g>
     </g>
     <g id="text_4">
      <!-- 1.5 -->
      <g transform="translate(332.914062 380.676406) scale(0.1 -0.1)">
       <use xlink:href="#DejaVuSans-31"/>
       <use xlink:href="#DejaVuSans-2e" transform="translate(63.623047 0)"/>
       <use xlink:href="#DejaVuSans-35" transform="translate(95.410156 0)"/>
      </g>
     </g>
    </g>
    <g id="xtick_5">
     <g id="line2d_9">
      <path d="M 439.239792 366.077969 
L 439.239792 23.077969 
" clip-path="url(#p85a7d59a53)" style="fill: none; stroke: #b0b0b0; stroke-opacity: 0.25; stroke-width: 0.8; stroke-linecap: square"/>
     </g>
     <g id="line2d_10">
      <g>
       <use xlink:href="#m858be38f4d" x="439.239792" y="366.077969" style="stroke: #000000; stroke-width: 0.8"/>
      </g>
     </g>
     <g id="text_5">
      <!-- 2.0 -->
      <g transform="translate(431.288229 380.676406) scale(0.1 -0.1)">
       <defs>
        <path id="DejaVuSans-32" d="M 1228 531 
L 3431 531 
L 3431 0 
L 469 0 
L 469 531 
Q 828 903 1448 1529 
Q 2069 2156 2228 2338 
Q 2531 2678 2651 2914 
Q 2772 3150 2772 3378 
Q 2772 3750 2511 3984 
Q 2250 4219 1831 4219 
Q 1534 4219 1204 4116 
Q 875 4013 500 3803 
L 500 4441 
Q 881 4594 1212 4672 
Q 1544 4750 1819 4750 
Q 2544 4750 2975 4387 
Q 3406 4025 3406 3419 
Q 3406 3131 3298 2873 
Q 3191 2616 2906 2266 
Q 2828 2175 2409 1742 
Q 1991 1309 1228 531 
z
" transform="scale(0.015625)"/>
       </defs>
       <use xlink:href="#DejaVuSans-32"/>
       <use xlink:href="#DejaVuSans-2e" transform="translate(63.623047 0)"/>
       <use xlink:href="#DejaVuSans-30" transform="translate(95.410156 0)"/>
      </g>
     </g>
    </g>
    <g id="xtick_6">
     <g id="line2d_11">
      <path d="M 537.613958 366.077969 
L 537.613958 23.077969 
" clip-path="url(#p85a7d59a53)" style="fill: none; stroke: #b0b0b0; stroke-opacity: 0.25; stroke-width: 0.8; stroke-linecap: square"/>
     </g>
     <g id="line2d_12">
      <g>
       <use xlink:href="#m858be38f4d" x="537.613958" y="366.077969" style="stroke: #000000; stroke-width: 0.8"/>
      </g>
     </g>
     <g id="text_6">
      <!-- 2.5 -->
      <g transform="translate(529.662396 380.676406) scale(0.1 -0.1)">
       <use xlink:href="#DejaVuSans-32"/>
       <use xlink:href="#DejaVuSans-2e" transform="translate(63.623047 0)"/>
       <use xlink:href="#DejaVuSans-35" transform="translate(95.410156 0)"/>
      </g>
     </g>
    </g>
    <g id="xtick_7">
     <g id="line2d_13">
      <path d="M 635.988125 366.077969 
L 635.988125 23.077969 
" clip-path="url(#p85a7d59a53)" style="fill: none; stroke: #b0b0b0; stroke-opacity: 0.25; stroke-width: 0.8; stroke-linecap: square"/>
     </g>
     <g id="line2d_14">
      <g>
       <use xlink:href="#m858be38f4d" x="635.988125" y="366.077969" style="stroke: #000000; stroke-width: 0.8"/>
      </g>
     </g>
     <g id="text_7">
      <!-- 3.0 -->
      <g transform="translate(628.036562 380.676406) scale(0.1 -0.1)">
       <defs>
        <path id="DejaVuSans-33" d="M 2597 2516 
Q 3050 2419 3304 2112 
Q 3559 1806 3559 1356 
Q 3559 666 3084 287 
Q 2609 -91 1734 -91 
Q 1441 -91 1130 -33 
Q 819 25 488 141 
L 488 750 
Q 750 597 1062 519 
Q 1375 441 1716 441 
Q 2309 441 2620 675 
Q 2931 909 2931 1356 
Q 2931 1769 2642 2001 
Q 2353 2234 1838 2234 
L 1294 2234 
L 1294 2753 
L 1863 2753 
Q 2328 2753 2575 2939 
Q 2822 3125 2822 3475 
Q 2822 3834 2567 4026 
Q 2313 4219 1838 4219 
Q 1578 4219 1281 4162 
Q 984 4106 628 3988 
L 628 4550 
Q 988 4650 1302 4700 
Q 1616 4750 1894 4750 
Q 2613 4750 3031 4423 
Q 3450 4097 3450 3541 
Q 3450 3153 3228 2886 
Q 3006 2619 2597 2516 
z
" transform="scale(0.015625)"/>
       </defs>
       <use xlink:href="#DejaVuSans-33"/>
       <use xlink:href="#DejaVuSans-2e" transform="translate(63.623047 0)"/>
       <use xlink:href="#DejaVuSans-30" transform="translate(95.410156 0)"/>
      </g>
     </g>
    </g>
    <g id="text_8">
     <!-- Normalized displacement, $y/y_{ref}$ -->
     <g transform="translate(245.465625 395.876094) scale(0.12 -0.12)">
      <defs>
       <path id="DejaVuSans-4e" d="M 628 4666 
L 1478 4666 
L 3547 763 
L 3547 4666 
L 4159 4666 
L 4159 0 
L 3309 0 
L 1241 3903 
L 1241 0 
L 628 0 
L 628 4666 
z
" transform="scale(0.015625)"/>
       <path id="DejaVuSans-6f" d="M 1959 3097 
Q 1497 3097 1228 2736 
Q 959 2375 959 1747 
Q 959 1119 1226 758 
Q 1494 397 1959 397 
Q 2419 397 2687 759 
Q 2956 1122 2956 1747 
Q 2956 2369 2687 2733 
Q 2419 3097 1959 3097 
z
M 1959 3584 
Q 2709 3584 3137 3096 
Q 3566 2609 3566 1747 
Q 3566 888 3137 398 
Q 2709 -91 1959 -91 
Q 1206 -91 779 398 
Q 353 888 353 1747 
Q 353 2609 779 3096 
Q 1206 3584 1959 3584 
z
" transform="scale(0.015625)"/>
       <path id="DejaVuSans-72" d="M 2631 2963 
Q 2534 3019 2420 3045 
Q 2306 3072 2169 3072 
Q 1681 3072 1420 2755 
Q 1159 2438 1159 1844 
L 1159 0 
L 581 0 
L 581 3500 
L 1159 3500 
L 1159 2956 
Q 1341 3275 1631 3429 
Q 1922 3584 2338 3584 
Q 2397 3584 2469 3576 
Q 2541 3569 2628 3553 
L 2631 2963 
z
" transform="scale(0.015625)"/>
       <path id="DejaVuSans-6d" d="M 3328 2828 
Q 3544 3216 3844 3400 
Q 4144 3584 4550 3584 
Q 5097 3584 5394 3201 
Q 5691 2819 5691 2113 
L 5691 0 
L 5113 0 
L 5113 2094 
Q 5113 2597 4934 2840 
Q 4756 3084 4391 3084 
Q 3944 3084 3684 2787 
Q 3425 2491 3425 1978 
L 3425 0 
L 2847 0 
L 2847 2094 
Q 2847 2600 2669 2842 
Q 2491 3084 2119 3084 
Q 1678 3084 1418 2786 
Q 1159 2488 1159 1978 
L 1159 0 
L 581 0 
L 581 3500 
L 1159 3500 
L 1159 2956 
Q 1356 3278 1631 3431 
Q 1906 3584 2284 3584 
Q 2666 3584 2933 3390 
Q 3200 3197 3328 2828 
z
" transform="scale(0.015625)"/>
       <path id="DejaVuSans-61" d="M 2194 1759 
Q 1497 1759 1228 1600 
Q 959 1441 959 1056 
Q 959 750 1161 570 
Q 1363 391 1709 391 
Q 2188 391 2477 730 
Q 2766 1069 2766 1631 
L 2766 1759 
L 2194 1759 
z
M 3341 1997 
L 3341 0 
L 2766 0 
L 2766 531 
Q 2569 213 2275 61 
Q 1981 -91 1556 -91 
Q 1019 -91 701 211 
Q 384 513 384 1019 
Q 384 1609 779 1909 
Q 1175 2209 1959 2209 
L 2766 2209 
L 2766 2266 
Q 2766 2663 2505 2880 
Q 2244 3097 1772 3097 
Q 1472 3097 1187 3025 
Q 903 2953 641 2809 
L 641 3341 
Q 956 3463 1253 3523 
Q 1550 3584 1831 3584 
Q 2591 3584 2966 3190 
Q 3341 2797 3341 1997 
z
" transform="scale(0.015625)"/>
       <path id="DejaVuSans-6c" d="M 603 4863 
L 1178 4863 
L 1178 0 
L 603 0 
L 603 4863 
z
" transform="scale(0.015625)"/>
       <path id="DejaVuSans-69" d="M 603 3500 
L 1178 3500 
L 1178 0 
L 603 0 
L 603 3500 
z
M 603 4863 
L 1178 4863 
L 1178 4134 
L 603 4134 
L 603 4863 
z
" transform="scale(0.015625)"/>
       <path id="DejaVuSans-7a" d="M 353 3500 
L 3084 3500 
L 3084 2975 
L 922 459 
L 3084 459 
L 3084 0 
L 275 0 
L 275 525 
L 2438 3041 
L 353 3041 
L 353 3500 
z
" transform="scale(0.015625)"/>
       <path id="DejaVuSans-65" d="M 3597 1894 
L 3597 1613 
L 953 1613 
Q 991 1019 1311 708 
Q 1631 397 2203 397 
Q 2534 397 2845 478 
Q 3156 559 3463 722 
L 3463 178 
Q 3153 47 2828 -22 
Q 2503 -91 2169 -91 
Q 1331 -91 842 396 
Q 353 884 353 1716 
Q 353 2575 817 3079 
Q 1281 3584 2069 3584 
Q 2775 3584 3186 3129 
Q 3597 2675 3597 1894 
z
M 3022 2063 
Q 3016 2534 2758 2815 
Q 2500 3097 2075 3097 
Q 1594 3097 1305 2825 
Q 1016 2553 972 2059 
L 3022 2063 
z
" transform="scale(0.015625)"/>
       <path id="DejaVuSans-64" d="M 2906 2969 
L 2906 4863 
L 3481 4863 
L 3481 0 
L 2906 0 
L 2906 525 
Q 2725 213 2448 61 
Q 2172 -91 1784 -91 
Q 1150 -91 751 415 
Q 353 922 353 1747 
Q 353 2572 751 3078 
Q 1150 3584 1784 3584 
Q 2172 3584 2448 3432 
Q 2725 3281 2906 2969 
z
M 947 1747 
Q 947 1113 1208 752 
Q 1469 391 1925 391 
Q 2381 391 2643 752 
Q 2906 1113 2906 1747 
Q 2906 2381 2643 2742 
Q 2381 3103 1925 3103 
Q 1469 3103 1208 2742 
Q 947 2381 947 1747 
z
" transform="scale(0.015625)"/>
       <path id="DejaVuSans-20" transform="scale(0.015625)"/>
       <path id="DejaVuSans-73" d="M 2834 3397 
L 2834 2853 
Q 2591 2978 2328 3040 
Q 2066 3103 1784 3103 
Q 1356 3103 1142 2972 
Q 928 2841 928 2578 
Q 928 2378 1081 2264 
Q 1234 2150 1697 2047 
L 1894 2003 
Q 2506 1872 2764 1633 
Q 3022 1394 3022 966 
Q 3022 478 2636 193 
Q 2250 -91 1575 -91 
Q 1294 -91 989 -36 
Q 684 19 347 128 
L 347 722 
Q 666 556 975 473 
Q 1284 391 1588 391 
Q 1994 391 2212 530 
Q 2431 669 2431 922 
Q 2431 1156 2273 1281 
Q 2116 1406 1581 1522 
L 1381 1569 
Q 847 1681 609 1914 
Q 372 2147 372 2553 
Q 372 3047 722 3315 
Q 1072 3584 1716 3584 
Q 2034 3584 2315 3537 
Q 2597 3491 2834 3397 
z
" transform="scale(0.015625)"/>
       <path id="DejaVuSans-70" d="M 1159 525 
L 1159 -1331 
L 581 -1331 
L 581 3500 
L 1159 3500 
L 1159 2969 
Q 1341 3281 1617 3432 
Q 1894 3584 2278 3584 
Q 2916 3584 3314 3078 
Q 3713 2572 3713 1747 
Q 3713 922 3314 415 
Q 2916 -91 2278 -91 
Q 1894 -91 1617 61 
Q 1341 213 1159 525 
z
M 3116 1747 
Q 3116 2381 2855 2742 
Q 2594 3103 2138 3103 
Q 1681 3103 1420 2742 
Q 1159 2381 1159 1747 
Q 1159 1113 1420 752 
Q 1681 391 2138 391 
Q 2594 391 2855 752 
Q 3116 1113 3116 1747 
z
" transform="scale(0.015625)"/>
       <path id="DejaVuSans-63" d="M 3122 3366 
L 3122 2828 
Q 2878 2963 2633 3030 
Q 2388 3097 2138 3097 
Q 1578 3097 1268 2742 
Q 959 2388 959 1747 
Q 959 1106 1268 751 
Q 1578 397 2138 397 
Q 2388 397 2633 464 
Q 2878 531 3122 666 
L 3122 134 
Q 2881 22 2623 -34 
Q 2366 -91 2075 -91 
Q 1284 -91 818 406 
Q 353 903 353 1747 
Q 353 2603 823 3093 
Q 1294 3584 2113 3584 
Q 2378 3584 2631 3529 
Q 2884 3475 3122 3366 
z
" transform="scale(0.015625)"/>
       <path id="DejaVuSans-6e" d="M 3513 2113 
L 3513 0 
L 2938 0 
L 2938 2094 
Q 2938 2591 2744 2837 
Q 2550 3084 2163 3084 
Q 1697 3084 1428 2787 
Q 1159 2491 1159 1978 
L 1159 0 
L 581 0 
L 581 3500 
L 1159 3500 
L 1159 2956 
Q 1366 3272 1645 3428 
Q 1925 3584 2291 3584 
Q 2894 3584 3203 3211 
Q 3513 2838 3513 2113 
z
" transform="scale(0.015625)"/>
       <path id="DejaVuSans-74" d="M 1172 4494 
L 1172 3500 
L 2356 3500 
L 2356 3053 
L 1172 3053 
L 1172 1153 
Q 1172 725 1289 603 
Q 1406 481 1766 481 
L 2356 481 
L 2356 0 
L 1766 0 
Q 1100 0 847 248 
Q 594 497 594 1153 
L 594 3053 
L 172 3053 
L 172 3500 
L 594 3500 
L 594 4494 
L 1172 4494 
z
" transform="scale(0.015625)"/>
       <path id="DejaVuSans-2c" d="M 750 794 
L 1409 794 
L 1409 256 
L 897 -744 
L 494 -744 
L 750 256 
L 750 794 
z
" transform="scale(0.015625)"/>
       <path id="DejaVuSans-Oblique-79" d="M 1588 -325 
Q 1188 -997 936 -1164 
Q 684 -1331 294 -1331 
L -159 -1331 
L -63 -850 
L 269 -850 
Q 509 -850 678 -719 
Q 847 -588 1056 -206 
L 1234 128 
L 459 3500 
L 1069 3500 
L 1650 819 
L 3256 3500 
L 3859 3500 
L 1588 -325 
z
" transform="scale(0.015625)"/>
       <path id="DejaVuSans-2f" d="M 1625 4666 
L 2156 4666 
L 531 -594 
L 0 -594 
L 1625 4666 
z
" transform="scale(0.015625)"/>
       <path id="DejaVuSans-Oblique-72" d="M 2853 2969 
Q 2766 3016 2653 3041 
Q 2541 3066 2413 3066 
Q 1953 3066 1609 2717 
Q 1266 2369 1153 1784 
L 800 0 
L 225 0 
L 909 3500 
L 1484 3500 
L 1375 2956 
Q 1603 3259 1920 3421 
Q 2238 3584 2597 3584 
Q 2691 3584 2781 3573 
Q 2872 3563 2963 3538 
L 2853 2969 
z
" transform="scale(0.015625)"/>
       <path id="DejaVuSans-Oblique-65" d="M 3078 2063 
Q 3088 2113 3092 2166 
Q 3097 2219 3097 2272 
Q 3097 2653 2873 2875 
Q 2650 3097 2266 3097 
Q 1838 3097 1509 2826 
Q 1181 2556 1013 2059 
L 3078 2063 
z
M 3578 1613 
L 903 1613 
Q 884 1494 878 1425 
Q 872 1356 872 1306 
Q 872 872 1139 634 
Q 1406 397 1894 397 
Q 2269 397 2603 481 
Q 2938 566 3225 728 
L 3116 159 
Q 2806 34 2476 -28 
Q 2147 -91 1806 -91 
Q 1078 -91 686 257 
Q 294 606 294 1247 
Q 294 1794 489 2264 
Q 684 2734 1063 3103 
Q 1306 3334 1642 3459 
Q 1978 3584 2356 3584 
Q 2950 3584 3301 3228 
Q 3653 2872 3653 2272 
Q 3653 2128 3634 1964 
Q 3616 1800 3578 1613 
z
" transform="scale(0.015625)"/>
       <path id="DejaVuSans-Oblique-66" d="M 3059 4863 
L 2969 4384 
L 2419 4384 
Q 2106 4384 1964 4261 
Q 1822 4138 1753 3809 
L 1691 3500 
L 2638 3500 
L 2553 3053 
L 1606 3053 
L 1013 0 
L 434 0 
L 1031 3053 
L 481 3053 
L 563 3500 
L 1113 3500 
L 1159 3744 
Q 1278 4363 1576 4613 
Q 1875 4863 2516 4863 
L 3059 4863 
z
" transform="scale(0.015625)"/>
      </defs>
      <use xlink:href="#DejaVuSans-4e" transform="translate(0 0.015625)"/>
      <use xlink:href="#DejaVuSans-6f" transform="translate(74.804688 0.015625)"/>
      <use xlink:href="#DejaVuSans-72" transform="translate(135.986328 0.015625)"/>
      <use xlink:href="#DejaVuSans-6d" transform="translate(177.099609 0.015625)"/>
      <use xlink:href="#DejaVuSans-61" transform="translate(274.511719 0.015625)"/>
      <use xlink:href="#DejaVuSans-6c" transform="translate(335.791016 0.015625)"/>
      <use xlink:href="#DejaVuSans-69" transform="translate(363.574219 0.015625)"/>
      <use xlink:href="#DejaVuSans-7a" transform="translate(391.357422 0.015625)"/>
      <use xlink:href="#DejaVuSans-65" transform="translate(443.847656 0.015625)"/>
      <use xlink:href="#DejaVuSans-64" transform="translate(505.371094 0.015625)"/>
      <use xlink:href="#DejaVuSans-20" transform="translate(568.847656 0.015625)"/>
      <use xlink:href="#DejaVuSans-64" transform="translate(600.634766 0.015625)"/>
      <use xlink:href="#DejaVuSans-69" transform="translate(664.111328 0.015625)"/>
      <use xlink:href="#DejaVuSans-73" transform="translate(691.894531 0.015625)"/>
      <use xlink:href="#DejaVuSans-70" transform="translate(743.994141 0.015625)"/>
      <use xlink:href="#DejaVuSans-6c" transform="translate(807.470703 0.015625)"/>
      <use xlink:href="#DejaVuSans-61" transform="translate(835.253906 0.015625)"/>
      <use xlink:href="#DejaVuSans-63" transform="translate(896.533203 0.015625)"/>
      <use xlink:href="#DejaVuSans-65" transform="translate(951.513672 0.015625)"/>
      <use xlink:href="#DejaVuSans-6d" transform="translate(1013.037109 0.015625)"/>
      <use xlink:href="#DejaVuSans-65" transform="translate(1110.449219 0.015625)"/>
      <use xlink:href="#DejaVuSans-6e" transform="translate(1171.972656 0.015625)"/>
      <use xlink:href="#DejaVuSans-74" transform="translate(1235.351562 0.015625)"/>
      <use xlink:href="#DejaVuSans-2c" transform="translate(1274.560547 0.015625)"/>
      <use xlink:href="#DejaVuSans-20" transform="translate(1306.347656 0.015625)"/>
      <use xlink:href="#DejaVuSans-Oblique-79" transform="translate(1338.134766 0.015625)"/>
      <use xlink:href="#DejaVuSans-2f" transform="translate(1397.314453 0.015625)"/>
      <use xlink:href="#DejaVuSans-Oblique-79" transform="translate(1431.005859 0.015625)"/>
      <use xlink:href="#DejaVuSans-Oblique-72" transform="translate(1490.185547 -16.390625) scale(0.7)"/>
      <use xlink:href="#DejaVuSans-Oblique-65" transform="translate(1518.964844 -16.390625) scale(0.7)"/>
      <use xlink:href="#DejaVuSans-Oblique-66" transform="translate(1562.03125 -16.390625) scale(0.7)"/>
     </g>
    </g>
   </g>
   <g id="matplotlib.axis_2">
    <g id="ytick_1">
     <g id="line2d_15">
      <path d="M 45.743125 366.077969 
L 635.988125 366.077969 
" clip-path="url(#p85a7d59a53)" style="fill: none; stroke: #b0b0b0; stroke-opacity: 0.25; stroke-width: 0.8; stroke-linecap: square"/>
     </g>
     <g id="line2d_16">
      <defs>
       <path id="m1d397ff5c4" d="M 0 0 
L -3.5 0 
" style="stroke: #000000; stroke-width: 0.8"/>
      </defs>
      <g>
       <use xlink:href="#m1d397ff5c4" x="45.743125" y="366.077969" style="stroke: #000000; stroke-width: 0.8"/>
      </g>
     </g>
     <g id="text_9">
      <!-- 0.0 -->
      <g transform="translate(22.84 369.877187) scale(0.1 -0.1)">
       <use xlink:href="#DejaVuSans-30"/>
       <use xlink:href="#DejaVuSans-2e" transform="translate(63.623047 0)"/>
       <use xlink:href="#DejaVuSans-30" transform="translate(95.410156 0)"/>
      </g>
     </g>
    </g>
    <g id="ytick_2">
     <g id="line2d_17">
      <path d="M 45.743125 313.308738 
L 635.988125 313.308738 
" clip-path="url(#p85a7d59a53)" style="fill: none; stroke: #b0b0b0; stroke-opacity: 0.25; stroke-width: 0.8; stroke-linecap: square"/>
     </g>
     <g id="line2d_18">
      <g>
       <use xlink:href="#m1d397ff5c4" x="45.743125" y="313.308738" style="stroke: #000000; stroke-width: 0.8"/>
      </g>
     </g>
     <g id="text_10">
      <!-- 0.2 -->
      <g transform="translate(22.84 317.107957) scale(0.1 -0.1)">
       <use xlink:href="#DejaVuSans-30"/>
       <use xlink:href="#DejaVuSans-2e" transform="translate(63.623047 0)"/>
       <use xlink:href="#DejaVuSans-32" transform="translate(95.410156 0)"/>
      </g>
     </g>
    </g>
    <g id="ytick_3">
     <g id="line2d_19">
      <path d="M 45.743125 260.539507 
L 635.988125 260.539507 
" clip-path="url(#p85a7d59a53)" style="fill: none; stroke: #b0b0b0; stroke-opacity: 0.25; stroke-width: 0.8; stroke-linecap: square"/>
     </g>
     <g id="line2d_20">
      <g>
       <use xlink:href="#m1d397ff5c4" x="45.743125" y="260.539507" style="stroke: #000000; stroke-width: 0.8"/>
      </g>
     </g>
     <g id="text_11">
      <!-- 0.4 -->
      <g transform="translate(22.84 264.338726) scale(0.1 -0.1)">
       <defs>
        <path id="DejaVuSans-34" d="M 2419 4116 
L 825 1625 
L 2419 1625 
L 2419 4116 
z
M 2253 4666 
L 3047 4666 
L 3047 1625 
L 3713 1625 
L 3713 1100 
L 3047 1100 
L 3047 0 
L 2419 0 
L 2419 1100 
L 313 1100 
L 313 1709 
L 2253 4666 
z
" transform="scale(0.015625)"/>
       </defs>
       <use xlink:href="#DejaVuSans-30"/>
       <use xlink:href="#DejaVuSans-2e" transform="translate(63.623047 0)"/>
       <use xlink:href="#DejaVuSans-34" transform="translate(95.410156 0)"/>
      </g>
     </g>
    </g>
    <g id="ytick_4">
     <g id="line2d_21">
      <path d="M 45.743125 207.770276 
L 635.988125 207.770276 
" clip-path="url(#p85a7d59a53)" style="fill: none; stroke: #b0b0b0; stroke-opacity: 0.25; stroke-width: 0.8; stroke-linecap: square"/>
     </g>
     <g id="line2d_22">
      <g>
       <use xlink:href="#m1d397ff5c4" x="45.743125" y="207.770276" style="stroke: #000000; stroke-width: 0.8"/>
      </g>
     </g>
     <g id="text_12">
      <!-- 0.6 -->
      <g transform="translate(22.84 211.569495) scale(0.1 -0.1)">
       <defs>
        <path id="DejaVuSans-36" d="M 2113 2584 
Q 1688 2584 1439 2293 
Q 1191 2003 1191 1497 
Q 1191 994 1439 701 
Q 1688 409 2113 409 
Q 2538 409 2786 701 
Q 3034 994 3034 1497 
Q 3034 2003 2786 2293 
Q 2538 2584 2113 2584 
z
M 3366 4563 
L 3366 3988 
Q 3128 4100 2886 4159 
Q 2644 4219 2406 4219 
Q 1781 4219 1451 3797 
Q 1122 3375 1075 2522 
Q 1259 2794 1537 2939 
Q 1816 3084 2150 3084 
Q 2853 3084 3261 2657 
Q 3669 2231 3669 1497 
Q 3669 778 3244 343 
Q 2819 -91 2113 -91 
Q 1303 -91 875 529 
Q 447 1150 447 2328 
Q 447 3434 972 4092 
Q 1497 4750 2381 4750 
Q 2619 4750 2861 4703 
Q 3103 4656 3366 4563 
z
" transform="scale(0.015625)"/>
       </defs>
       <use xlink:href="#DejaVuSans-30"/>
       <use xlink:href="#DejaVuSans-2e" transform="translate(63.623047 0)"/>
       <use xlink:href="#DejaVuSans-36" transform="translate(95.410156 0)"/>
      </g>
     </g>
    </g>
    <g id="ytick_5">
     <g id="line2d_23">
      <path d="M 45.743125 155.001046 
L 635.988125 155.001046 
" clip-path="url(#p85a7d59a53)" style="fill: none; stroke: #b0b0b0; stroke-opacity: 0.25; stroke-width: 0.8; stroke-linecap: square"/>
     </g>
     <g id="line2d_24">
      <g>
       <use xlink:href="#m1d397ff5c4" x="45.743125" y="155.001046" style="stroke: #000000; stroke-width: 0.8"/>
      </g>
     </g>
     <g id="text_13">
      <!-- 0.8 -->
      <g transform="translate(22.84 158.800264) scale(0.1 -0.1)">
       <defs>
        <path id="DejaVuSans-38" d="M 2034 2216 
Q 1584 2216 1326 1975 
Q 1069 1734 1069 1313 
Q 1069 891 1326 650 
Q 1584 409 2034 409 
Q 2484 409 2743 651 
Q 3003 894 3003 1313 
Q 3003 1734 2745 1975 
Q 2488 2216 2034 2216 
z
M 1403 2484 
Q 997 2584 770 2862 
Q 544 3141 544 3541 
Q 544 4100 942 4425 
Q 1341 4750 2034 4750 
Q 2731 4750 3128 4425 
Q 3525 4100 3525 3541 
Q 3525 3141 3298 2862 
Q 3072 2584 2669 2484 
Q 3125 2378 3379 2068 
Q 3634 1759 3634 1313 
Q 3634 634 3220 271 
Q 2806 -91 2034 -91 
Q 1263 -91 848 271 
Q 434 634 434 1313 
Q 434 1759 690 2068 
Q 947 2378 1403 2484 
z
M 1172 3481 
Q 1172 3119 1398 2916 
Q 1625 2713 2034 2713 
Q 2441 2713 2670 2916 
Q 2900 3119 2900 3481 
Q 2900 3844 2670 4047 
Q 2441 4250 2034 4250 
Q 1625 4250 1398 4047 
Q 1172 3844 1172 3481 
z
" transform="scale(0.015625)"/>
       </defs>
       <use xlink:href="#DejaVuSans-30"/>
       <use xlink:href="#DejaVuSans-2e" transform="translate(63.623047 0)"/>
       <use xlink:href="#DejaVuSans-38" transform="translate(95.410156 0)"/>
      </g>
     </g>
    </g>
    <g id="ytick_6">
     <g id="line2d_25">
      <path d="M 45.743125 102.231815 
L 635.988125 102.231815 
" clip-path="url(#p85a7d59a53)" style="fill: none; stroke: #b0b0b0; stroke-opacity: 0.25; stroke-width: 0.8; stroke-linecap: square"/>
     </g>
     <g id="line2d_26">
      <g>
       <use xlink:href="#m1d397ff5c4" x="45.743125" y="102.231815" style="stroke: #000000; stroke-width: 0.8"/>
      </g>
     </g>
     <g id="text_14">
      <!-- 1.0 -->
      <g transform="translate(22.84 106.031034) scale(0.1 -0.1)">
       <use xlink:href="#DejaVuSans-31"/>
       <use xlink:href="#DejaVuSans-2e" transform="translate(63.623047 0)"/>
       <use xlink:href="#DejaVuSans-30" transform="translate(95.410156 0)"/>
      </g>
     </g>
    </g>
    <g id="ytick_7">
     <g id="line2d_27">
      <path d="M 45.743125 49.462584 
L 635.988125 49.462584 
" clip-path="url(#p85a7d59a53)" style="fill: none; stroke: #b0b0b0; stroke-opacity: 0.25; stroke-width: 0.8; stroke-linecap: square"/>
     </g>
     <g id="line2d_28">
      <g>
       <use xlink:href="#m1d397ff5c4" x="45.743125" y="49.462584" style="stroke: #000000; stroke-width: 0.8"/>
      </g>
     </g>
     <g id="text_15">
      <!-- 1.2 -->
      <g transform="translate(22.84 53.261803) scale(0.1 -0.1)">
       <use xlink:href="#DejaVuSans-31"/>
       <use xlink:href="#DejaVuSans-2e" transform="translate(63.623047 0)"/>
       <use xlink:href="#DejaVuSans-32" transform="translate(95.410156 0)"/>
      </g>
     </g>
    </g>
    <g id="text_16">
     <!-- Normalized soil reaction, $p/p_u$ -->
     <g transform="translate(16.32 283.617969) rotate(-90) scale(0.12 -0.12)">
      <defs>
       <path id="DejaVuSans-Oblique-70" d="M 3175 2156 
Q 3175 2616 2975 2859 
Q 2775 3103 2400 3103 
Q 2144 3103 1911 2972 
Q 1678 2841 1497 2591 
Q 1319 2344 1212 1994 
Q 1106 1644 1106 1300 
Q 1106 863 1306 627 
Q 1506 391 1875 391 
Q 2147 391 2380 519 
Q 2613 647 2778 891 
Q 2956 1147 3065 1494 
Q 3175 1841 3175 2156 
z
M 1394 2969 
Q 1625 3272 1939 3428 
Q 2253 3584 2638 3584 
Q 3175 3584 3472 3232 
Q 3769 2881 3769 2247 
Q 3769 1728 3584 1258 
Q 3400 788 3053 416 
Q 2822 169 2531 39 
Q 2241 -91 1919 -91 
Q 1547 -91 1294 64 
Q 1041 219 916 525 
L 556 -1331 
L -19 -1331 
L 922 3500 
L 1497 3500 
L 1394 2969 
z
" transform="scale(0.015625)"/>
       <path id="DejaVuSans-Oblique-75" d="M 428 1388 
L 838 3500 
L 1416 3500 
L 1006 1409 
Q 975 1256 961 1147 
Q 947 1038 947 966 
Q 947 700 1109 554 
Q 1272 409 1569 409 
Q 2031 409 2368 721 
Q 2706 1034 2809 1563 
L 3194 3500 
L 3769 3500 
L 3091 0 
L 2516 0 
L 2631 550 
Q 2388 244 2052 76 
Q 1716 -91 1338 -91 
Q 878 -91 622 161 
Q 366 413 366 863 
Q 366 956 381 1097 
Q 397 1238 428 1388 
z
" transform="scale(0.015625)"/>
      </defs>
      <use xlink:href="#DejaVuSans-4e" transform="translate(0 0.015625)"/>
      <use xlink:href="#DejaVuSans-6f" transform="translate(74.804688 0.015625)"/>
      <use xlink:href="#DejaVuSans-72" transform="translate(135.986328 0.015625)"/>
      <use xlink:href="#DejaVuSans-6d" transform="translate(177.099609 0.015625)"/>
      <use xlink:href="#DejaVuSans-61" transform="translate(274.511719 0.015625)"/>
      <use xlink:href="#DejaVuSans-6c" transform="translate(335.791016 0.015625)"/>
      <use xlink:href="#DejaVuSans-69" transform="translate(363.574219 0.015625)"/>
      <use xlink:href="#DejaVuSans-7a" transform="translate(391.357422 0.015625)"/>
      <use xlink:href="#DejaVuSans-65" transform="translate(443.847656 0.015625)"/>
      <use xlink:href="#DejaVuSans-64" transform="translate(505.371094 0.015625)"/>
      <use xlink:href="#DejaVuSans-20" transform="translate(568.847656 0.015625)"/>
      <use xlink:href="#DejaVuSans-73" transform="translate(600.634766 0.015625)"/>
      <use xlink:href="#DejaVuSans-6f" transform="translate(652.734375 0.015625)"/>
      <use xlink:href="#DejaVuSans-69" transform="translate(713.916016 0.015625)"/>
      <use xlink:href="#DejaVuSans-6c" transform="translate(741.699219 0.015625)"/>
      <use xlink:href="#DejaVuSans-20" transform="translate(769.482422 0.015625)"/>
      <use xlink:href="#DejaVuSans-72" transform="translate(801.269531 0.015625)"/>
      <use xlink:href="#DejaVuSans-65" transform="translate(842.382812 0.015625)"/>
      <use xlink:href="#DejaVuSans-61" transform="translate(903.90625 0.015625)"/>
      <use xlink:href="#DejaVuSans-63" transform="translate(965.185547 0.015625)"/>
      <use xlink:href="#DejaVuSans-74" transform="translate(1020.166016 0.015625)"/>
      <use xlink:href="#DejaVuSans-69" transform="translate(1059.375 0.015625)"/>
      <use xlink:href="#DejaVuSans-6f" transform="translate(1087.158203 0.015625)"/>
      <use xlink:href="#DejaVuSans-6e" transform="translate(1148.339844 0.015625)"/>
      <use xlink:href="#DejaVuSans-2c" transform="translate(1211.71875 0.015625)"/>
      <use xlink:href="#DejaVuSans-20" transform="translate(1243.505859 0.015625)"/>
      <use xlink:href="#DejaVuSans-Oblique-70" transform="translate(1275.292969 0.015625)"/>
      <use xlink:href="#DejaVuSans-2f" transform="translate(1338.769531 0.015625)"/>
      <use xlink:href="#DejaVuSans-Oblique-70" transform="translate(1372.460938 0.015625)"/>
      <use xlink:href="#DejaVuSans-Oblique-75" transform="translate(1435.9375 -16.390625) scale(0.7)"/>
     </g>
    </g>
   </g>
   <g id="line2d_29">
    <path d="M 45.743125 366.077969 
L 62.015544 327.086249 
L 70.891408 306.422433 
L 78.287962 289.76125 
L 84.205205 276.887018 
L 90.122448 264.475072 
L 96.039691 252.569569 
L 101.956935 241.205471 
L 107.874178 230.408607 
L 113.791421 220.195998 
L 118.229353 212.925529 
L 122.667285 205.989685 
L 127.105218 199.387174 
L 131.54315 193.114736 
L 135.981082 187.167364 
L 140.419015 181.538525 
L 144.856947 176.220383 
L 149.294879 171.204007 
L 153.732812 166.479577 
L 158.170744 162.036568 
L 162.608676 157.86393 
L 167.046609 153.95024 
L 171.484541 150.283851 
L 175.922473 146.853011 
L 180.360406 143.645976 
L 184.798338 140.651107 
L 190.715581 136.968216 
L 196.632824 133.615722 
L 202.550067 130.568187 
L 208.46731 127.801336 
L 214.384554 125.292173 
L 220.301797 123.019044 
L 226.21904 120.961667 
L 232.136283 119.101139 
L 239.532837 117.025689 
L 246.929391 115.199102 
L 254.325945 113.593047 
L 263.201809 111.921224 
L 272.077674 110.491478 
L 280.953539 109.269835 
L 291.308714 108.06847 
L 303.1432 106.942213 
L 316.456997 105.930936 
L 331.250105 105.058437 
L 347.522523 104.333455 
L 366.753564 103.711783 
L 388.943225 103.218842 
L 417.05013 102.82243 
L 454.032899 102.532187 
L 508.767398 102.342189 
L 610.839842 102.248869 
L 635.988125 102.242579 
L 635.988125 102.242579 
" clip-path="url(#p85a7d59a53)" style="fill: none; stroke: #1f77b4; stroke-width: 2; stroke-linecap: square"/>
   </g>
   <g id="line2d_30">
    <path d="M 45.743125 366.077969 
L 50.181057 355.683504 
L 54.61899 346.076997 
L 59.056922 337.172121 
L 63.494854 328.894717 
L 67.932787 321.180722 
L 72.370719 313.974504 
L 76.808651 307.227526 
L 81.246584 300.897241 
L 85.684516 294.946205 
L 90.122448 289.341327 
L 94.560381 284.053258 
L 98.998313 279.055875 
L 103.436245 274.325851 
L 109.353488 268.399238 
L 115.270732 262.867239 
L 121.187975 257.691711 
L 127.105218 252.839276 
L 133.022461 248.280594 
L 138.939704 243.989774 
L 144.856947 239.943882 
L 150.77419 236.122527 
L 158.170744 231.634069 
L 165.567298 227.436785 
L 172.963852 223.503233 
L 180.360406 219.809312 
L 187.75696 216.333773 
L 196.632824 212.425056 
L 205.508689 208.775266 
L 214.384554 205.359499 
L 223.260418 202.155947 
L 233.615594 198.661224 
L 243.970769 195.402687 
L 254.325945 192.357176 
L 266.160431 189.111609 
L 277.994917 186.091672 
L 291.308714 182.93575 
L 304.622511 180.008749 
L 319.415619 176.995891 
L 334.208727 174.207747 
L 350.481145 171.371511 
L 368.232874 168.521858 
L 385.984604 165.897809 
L 405.215644 163.279881 
L 425.925995 160.69114 
L 448.115656 158.150535 
L 471.784629 155.673172 
L 496.932912 153.270678 
L 523.560506 150.951608 
L 551.667411 148.721869 
L 582.732937 146.48344 
L 615.277774 144.358512 
L 635.988125 143.109388 
L 635.988125 143.109388 
" clip-path="url(#p85a7d59a53)" style="fill: none; stroke: #ff7f0e; stroke-width: 2; stroke-linecap: square"/>
   </g>
   <g id="line2d_31">
    <path d="M 45.743125 366.077969 
L 47.222436 360.357211 
L 48.701747 355.856137 
L 51.660368 347.940263 
L 54.61899 340.843907 
L 57.577611 334.290695 
L 60.536233 328.151511 
L 64.974165 319.560078 
L 69.412097 311.573973 
L 73.85003 304.092134 
L 78.287962 297.044312 
L 82.725894 290.378339 
L 87.163827 284.053642 
L 91.601759 278.037565 
L 97.519002 270.450211 
L 103.436245 263.311328 
L 109.353488 256.577749 
L 115.270732 250.213323 
L 121.187975 244.187235 
L 127.105218 238.472844 
L 133.022461 233.046843 
L 138.939704 227.888643 
L 144.856947 222.979906 
L 152.253501 217.169886 
L 159.650055 211.695397 
L 167.046609 206.53102 
L 174.443163 201.654059 
L 181.839716 197.044129 
L 189.23627 192.682826 
L 196.632824 188.553459 
L 205.508689 183.883066 
L 214.384554 179.501042 
L 223.260418 175.385931 
L 232.136283 171.518318 
L 241.012148 167.880568 
L 249.888012 164.456619 
L 260.243188 160.712723 
L 270.598363 157.218711 
L 280.953539 153.955392 
L 291.308714 150.905346 
L 303.1432 147.660455 
L 314.977686 144.652007 
L 326.812173 141.860636 
L 340.12597 138.958065 
L 353.439767 136.285604 
L 368.232874 133.561585 
L 383.025982 131.071954 
L 399.298401 128.577744 
L 415.570819 126.31423 
L 433.322549 124.08085 
L 451.074278 122.067809 
L 470.305318 120.108516 
L 491.015669 118.226958 
L 513.205331 116.442376 
L 536.874303 114.769308 
L 562.022586 113.217804 
L 588.65018 111.793793 
L 618.236396 110.436744 
L 635.988125 109.721084 
L 635.988125 109.721084 
" clip-path="url(#p85a7d59a53)" style="fill: none; stroke: #2ca02c; stroke-width: 2; stroke-linecap: square"/>
   </g>
   <g id="line2d_32">
    <path d="M 45.743125 366.077969 
L 172.963852 103.605219 
L 174.443163 102.231815 
L 635.988125 102.231815 
L 635.988125 102.231815 
" clip-path="url(#p85a7d59a53)" style="fill: none; stroke: #d62728; stroke-width: 2; stroke-linecap: square"/>
   </g>
   <g id="line2d_33">
    <path d="M 45.743125 366.077969 
L 47.222436 348.919196 
L 48.701747 341.8118 
L 50.181057 336.358103 
L 51.660368 331.760424 
L 53.139679 327.709788 
L 56.0983 320.680124 
L 59.056922 314.601652 
L 62.015544 309.168759 
L 64.974165 304.211135 
L 67.932787 299.622329 
L 72.370719 293.279463 
L 76.808651 287.446596 
L 81.246584 282.017495 
L 85.684516 276.918373 
L 90.122448 272.095502 
L 96.039691 266.025993 
L 101.956935 260.304193 
L 107.874178 254.876415 
L 115.270732 248.443353 
L 122.667285 242.344302 
L 130.063839 236.532079 
L 137.460393 230.969661 
L 146.336258 224.583108 
L 155.212122 218.472628 
L 164.087987 212.605244 
L 174.443163 206.031596 
L 184.798338 199.717499 
L 196.632824 192.782863 
L 208.46731 186.115247 
L 220.301797 179.685992 
L 233.615594 172.708426 
L 246.929391 165.974017 
L 261.722498 158.747734 
L 276.515606 151.764972 
L 292.788025 144.337763 
L 309.060443 137.151393 
L 326.812173 129.560615 
L 344.563902 122.205994 
L 363.794942 114.480979 
L 383.025982 106.986189 
L 403.736333 99.150116 
L 425.925995 91.001923 
L 448.115656 83.088247 
L 471.784629 74.883947 
L 496.932912 66.412894 
L 522.081195 58.174808 
L 548.708789 49.685841 
L 576.815694 40.965643 
L 591.608802 36.468717 
L 593.088112 36.270276 
L 635.988125 36.270276 
L 635.988125 36.270276 
" clip-path="url(#p85a7d59a53)" style="fill: none; stroke: #9467bd; stroke-width: 2; stroke-linecap: square"/>
   </g>
   <g id="patch_3">
    <path d="M 45.743125 366.077969 
L 45.743125 23.077969 
" style="fill: none; stroke: #000000; stroke-width: 0.8; stroke-linejoin: miter; stroke-linecap: square"/>
   </g>
   <g id="patch_4">
    <path d="M 635.988125 366.077969 
L 635.988125 23.077969 
" style="fill: none; stroke: #000000; stroke-width: 0.8; stroke-linejoin: miter; stroke-linecap: square"/>
   </g>
   <g id="patch_5">
    <path d="M 45.743125 366.077969 
L 635.988125 366.077969 
" style="fill: none; stroke: #000000; stroke-width: 0.8; stroke-linejoin: miter; stroke-linecap: square"/>
   </g>
   <g id="patch_6">
    <path d="M 45.743125 23.077969 
L 635.988125 23.077969 
" style="fill: none; stroke: #000000; stroke-width: 0.8; stroke-linejoin: miter; stroke-linecap: square"/>
   </g>
   <g id="text_17">
    <!-- Schematic comparison of commonly used p-y backbone shapes -->
    <g transform="translate(133.65375 17.077969) scale(0.13 -0.13)">
     <defs>
      <path id="DejaVuSans-53" d="M 3425 4513 
L 3425 3897 
Q 3066 4069 2747 4153 
Q 2428 4238 2131 4238 
Q 1616 4238 1336 4038 
Q 1056 3838 1056 3469 
Q 1056 3159 1242 3001 
Q 1428 2844 1947 2747 
L 2328 2669 
Q 3034 2534 3370 2195 
Q 3706 1856 3706 1288 
Q 3706 609 3251 259 
Q 2797 -91 1919 -91 
Q 1588 -91 1214 -16 
Q 841 59 441 206 
L 441 856 
Q 825 641 1194 531 
Q 1563 422 1919 422 
Q 2459 422 2753 634 
Q 3047 847 3047 1241 
Q 3047 1584 2836 1778 
Q 2625 1972 2144 2069 
L 1759 2144 
Q 1053 2284 737 2584 
Q 422 2884 422 3419 
Q 422 4038 858 4394 
Q 1294 4750 2059 4750 
Q 2388 4750 2728 4690 
Q 3069 4631 3425 4513 
z
" transform="scale(0.015625)"/>
      <path id="DejaVuSans-68" d="M 3513 2113 
L 3513 0 
L 2938 0 
L 2938 2094 
Q 2938 2591 2744 2837 
Q 2550 3084 2163 3084 
Q 1697 3084 1428 2787 
Q 1159 2491 1159 1978 
L 1159 0 
L 581 0 
L 581 4863 
L 1159 4863 
L 1159 2956 
Q 1366 3272 1645 3428 
Q 1925 3584 2291 3584 
Q 2894 3584 3203 3211 
Q 3513 2838 3513 2113 
z
" transform="scale(0.015625)"/>
      <path id="DejaVuSans-66" d="M 2375 4863 
L 2375 4384 
L 1825 4384 
Q 1516 4384 1395 4259 
Q 1275 4134 1275 3809 
L 1275 3500 
L 2222 3500 
L 2222 3053 
L 1275 3053 
L 1275 0 
L 697 0 
L 697 3053 
L 147 3053 
L 147 3500 
L 697 3500 
L 697 3744 
Q 697 4328 969 4595 
Q 1241 4863 1831 4863 
L 2375 4863 
z
" transform="scale(0.015625)"/>
      <path id="DejaVuSans-79" d="M 2059 -325 
Q 1816 -950 1584 -1140 
Q 1353 -1331 966 -1331 
L 506 -1331 
L 506 -850 
L 844 -850 
Q 1081 -850 1212 -737 
Q 1344 -625 1503 -206 
L 1606 56 
L 191 3500 
L 800 3500 
L 1894 763 
L 2988 3500 
L 3597 3500 
L 2059 -325 
z
" transform="scale(0.015625)"/>
      <path id="DejaVuSans-75" d="M 544 1381 
L 544 3500 
L 1119 3500 
L 1119 1403 
Q 1119 906 1312 657 
Q 1506 409 1894 409 
Q 2359 409 2629 706 
Q 2900 1003 2900 1516 
L 2900 3500 
L 3475 3500 
L 3475 0 
L 2900 0 
L 2900 538 
Q 2691 219 2414 64 
Q 2138 -91 1772 -91 
Q 1169 -91 856 284 
Q 544 659 544 1381 
z
M 1991 3584 
L 1991 3584 
z
" transform="scale(0.015625)"/>
      <path id="DejaVuSans-2d" d="M 313 2009 
L 1997 2009 
L 1997 1497 
L 313 1497 
L 313 2009 
z
" transform="scale(0.015625)"/>
      <path id="DejaVuSans-62" d="M 3116 1747 
Q 3116 2381 2855 2742 
Q 2594 3103 2138 3103 
Q 1681 3103 1420 2742 
Q 1159 2381 1159 1747 
Q 1159 1113 1420 752 
Q 1681 391 2138 391 
Q 2594 391 2855 752 
Q 3116 1113 3116 1747 
z
M 1159 2969 
Q 1341 3281 1617 3432 
Q 1894 3584 2278 3584 
Q 2916 3584 3314 3078 
Q 3713 2572 3713 1747 
Q 3713 922 3314 415 
Q 2916 -91 2278 -91 
Q 1894 -91 1617 61 
Q 1341 213 1159 525 
L 1159 0 
L 581 0 
L 581 4863 
L 1159 4863 
L 1159 2969 
z
" transform="scale(0.015625)"/>
      <path id="DejaVuSans-6b" d="M 581 4863 
L 1159 4863 
L 1159 1991 
L 2875 3500 
L 3609 3500 
L 1753 1863 
L 3688 0 
L 2938 0 
L 1159 1709 
L 1159 0 
L 581 0 
L 581 4863 
z
" transform="scale(0.015625)"/>
     </defs>
     <use xlink:href="#DejaVuSans-53"/>
     <use xlink:href="#DejaVuSans-63" transform="translate(63.476562 0)"/>
     <use xlink:href="#DejaVuSans-68" transform="translate(118.457031 0)"/>
     <use xlink:href="#DejaVuSans-65" transform="translate(181.835938 0)"/>
     <use xlink:href="#DejaVuSans-6d" transform="translate(243.359375 0)"/>
     <use xlink:href="#DejaVuSans-61" transform="translate(340.771484 0)"/>
     <use xlink:href="#DejaVuSans-74" transform="translate(402.050781 0)"/>
     <use xlink:href="#DejaVuSans-69" transform="translate(441.259766 0)"/>
     <use xlink:href="#DejaVuSans-63" transform="translate(469.042969 0)"/>
     <use xlink:href="#DejaVuSans-20" transform="translate(524.023438 0)"/>
     <use xlink:href="#DejaVuSans-63" transform="translate(555.810547 0)"/>
     <use xlink:href="#DejaVuSans-6f" transform="translate(610.791016 0)"/>
     <use xlink:href="#DejaVuSans-6d" transform="translate(671.972656 0)"/>
     <use xlink:href="#DejaVuSans-70" transform="translate(769.384766 0)"/>
     <use xlink:href="#DejaVuSans-61" transform="translate(832.861328 0)"/>
     <use xlink:href="#DejaVuSans-72" transform="translate(894.140625 0)"/>
     <use xlink:href="#DejaVuSans-69" transform="translate(935.253906 0)"/>
     <use xlink:href="#DejaVuSans-73" transform="translate(963.037109 0)"/>
     <use xlink:href="#DejaVuSans-6f" transform="translate(1015.136719 0)"/>
     <use xlink:href="#DejaVuSans-6e" transform="translate(1076.318359 0)"/>
     <use xlink:href="#DejaVuSans-20" transform="translate(1139.697266 0)"/>
     <use xlink:href="#DejaVuSans-6f" transform="translate(1171.484375 0)"/>
     <use xlink:href="#DejaVuSans-66" transform="translate(1232.666016 0)"/>
     <use xlink:href="#DejaVuSans-20" transform="translate(1267.871094 0)"/>
     <use xlink:href="#DejaVuSans-63" transform="translate(1299.658203 0)"/>
     <use xlink:href="#DejaVuSans-6f" transform="translate(1354.638672 0)"/>
     <use xlink:href="#DejaVuSans-6d" transform="translate(1415.820312 0)"/>
     <use xlink:href="#DejaVuSans-6d" transform="translate(1513.232422 0)"/>
     <use xlink:href="#DejaVuSans-6f" transform="translate(1610.644531 0)"/>
     <use xlink:href="#DejaVuSans-6e" transform="translate(1671.826172 0)"/>
     <use xlink:href="#DejaVuSans-6c" transform="translate(1735.205078 0)"/>
     <use xlink:href="#DejaVuSans-79" transform="translate(1762.988281 0)"/>
     <use xlink:href="#DejaVuSans-20" transform="translate(1822.167969 0)"/>
     <use xlink:href="#DejaVuSans-75" transform="translate(1853.955078 0)"/>
     <use xlink:href="#DejaVuSans-73" transform="translate(1917.333984 0)"/>
     <use xlink:href="#DejaVuSans-65" transform="translate(1969.433594 0)"/>
     <use xlink:href="#DejaVuSans-64" transform="translate(2030.957031 0)"/>
     <use xlink:href="#DejaVuSans-20" transform="translate(2094.433594 0)"/>
     <use xlink:href="#DejaVuSans-70" transform="translate(2126.220703 0)"/>
     <use xlink:href="#DejaVuSans-2d" transform="translate(2189.697266 0)"/>
     <use xlink:href="#DejaVuSans-79" transform="translate(2224.03125 0)"/>
     <use xlink:href="#DejaVuSans-20" transform="translate(2283.210938 0)"/>
     <use xlink:href="#DejaVuSans-62" transform="translate(2314.998047 0)"/>
     <use xlink:href="#DejaVuSans-61" transform="translate(2378.474609 0)"/>
     <use xlink:href="#DejaVuSans-63" transform="translate(2439.753906 0)"/>
     <use xlink:href="#DejaVuSans-6b" transform="translate(2494.734375 0)"/>
     <use xlink:href="#DejaVuSans-62" transform="translate(2552.644531 0)"/>
     <use xlink:href="#DejaVuSans-6f" transform="translate(2616.121094 0)"/>
     <use xlink:href="#DejaVuSans-6e" transform="translate(2677.302734 0)"/>
     <use xlink:href="#DejaVuSans-65" transform="translate(2740.681641 0)"/>
     <use xlink:href="#DejaVuSans-20" transform="translate(2802.205078 0)"/>
     <use xlink:href="#DejaVuSans-73" transform="translate(2833.992188 0)"/>
     <use xlink:href="#DejaVuSans-68" transform="translate(2886.091797 0)"/>
     <use xlink:href="#DejaVuSans-61" transform="translate(2949.470703 0)"/>
     <use xlink:href="#DejaVuSans-70" transform="translate(3010.75 0)"/>
     <use xlink:href="#DejaVuSans-65" transform="translate(3074.226562 0)"/>
     <use xlink:href="#DejaVuSans-73" transform="translate(3135.75 0)"/>
    </g>
   </g>
   <g id="legend_1">
    <g id="patch_7">
     <path d="M 52.043125 96.329531 
L 224.149844 96.329531 
Q 225.949844 96.329531 225.949844 94.529531 
L 225.949844 29.377969 
Q 225.949844 27.577969 224.149844 27.577969 
L 52.043125 27.577969 
Q 50.243125 27.577969 50.243125 29.377969 
L 50.243125 94.529531 
Q 50.243125 96.329531 52.043125 96.329531 
z
" style="fill: #ffffff; opacity: 0.8; stroke: #cccccc; stroke-linejoin: miter"/>
    </g>
    <g id="line2d_34">
     <path d="M 53.843125 34.866562 
L 62.843125 34.866562 
L 71.843125 34.866562 
" style="fill: none; stroke: #1f77b4; stroke-width: 2; stroke-linecap: square"/>
    </g>
    <g id="text_18">
     <!-- Hyperbolic tangent (API family) -->
     <g transform="translate(79.043125 38.016562) scale(0.09 -0.09)">
      <defs>
       <path id="DejaVuSans-48" d="M 628 4666 
L 1259 4666 
L 1259 2753 
L 3553 2753 
L 3553 4666 
L 4184 4666 
L 4184 0 
L 3553 0 
L 3553 2222 
L 1259 2222 
L 1259 0 
L 628 0 
L 628 4666 
z
" transform="scale(0.015625)"/>
       <path id="DejaVuSans-67" d="M 2906 1791 
Q 2906 2416 2648 2759 
Q 2391 3103 1925 3103 
Q 1463 3103 1205 2759 
Q 947 2416 947 1791 
Q 947 1169 1205 825 
Q 1463 481 1925 481 
Q 2391 481 2648 825 
Q 2906 1169 2906 1791 
z
M 3481 434 
Q 3481 -459 3084 -895 
Q 2688 -1331 1869 -1331 
Q 1566 -1331 1297 -1286 
Q 1028 -1241 775 -1147 
L 775 -588 
Q 1028 -725 1275 -790 
Q 1522 -856 1778 -856 
Q 2344 -856 2625 -561 
Q 2906 -266 2906 331 
L 2906 616 
Q 2728 306 2450 153 
Q 2172 0 1784 0 
Q 1141 0 747 490 
Q 353 981 353 1791 
Q 353 2603 747 3093 
Q 1141 3584 1784 3584 
Q 2172 3584 2450 3431 
Q 2728 3278 2906 2969 
L 2906 3500 
L 3481 3500 
L 3481 434 
z
" transform="scale(0.015625)"/>
       <path id="DejaVuSans-28" d="M 1984 4856 
Q 1566 4138 1362 3434 
Q 1159 2731 1159 2009 
Q 1159 1288 1364 580 
Q 1569 -128 1984 -844 
L 1484 -844 
Q 1016 -109 783 600 
Q 550 1309 550 2009 
Q 550 2706 781 3412 
Q 1013 4119 1484 4856 
L 1984 4856 
z
" transform="scale(0.015625)"/>
       <path id="DejaVuSans-41" d="M 2188 4044 
L 1331 1722 
L 3047 1722 
L 2188 4044 
z
M 1831 4666 
L 2547 4666 
L 4325 0 
L 3669 0 
L 3244 1197 
L 1141 1197 
L 716 0 
L 50 0 
L 1831 4666 
z
" transform="scale(0.015625)"/>
       <path id="DejaVuSans-50" d="M 1259 4147 
L 1259 2394 
L 2053 2394 
Q 2494 2394 2734 2622 
Q 2975 2850 2975 3272 
Q 2975 3691 2734 3919 
Q 2494 4147 2053 4147 
L 1259 4147 
z
M 628 4666 
L 2053 4666 
Q 2838 4666 3239 4311 
Q 3641 3956 3641 3272 
Q 3641 2581 3239 2228 
Q 2838 1875 2053 1875 
L 1259 1875 
L 1259 0 
L 628 0 
L 628 4666 
z
" transform="scale(0.015625)"/>
       <path id="DejaVuSans-49" d="M 628 4666 
L 1259 4666 
L 1259 0 
L 628 0 
L 628 4666 
z
" transform="scale(0.015625)"/>
       <path id="DejaVuSans-29" d="M 513 4856 
L 1013 4856 
Q 1481 4119 1714 3412 
Q 1947 2706 1947 2009 
Q 1947 1309 1714 600 
Q 1481 -109 1013 -844 
L 513 -844 
Q 928 -128 1133 580 
Q 1338 1288 1338 2009 
Q 1338 2731 1133 3434 
Q 928 4138 513 4856 
z
" transform="scale(0.015625)"/>
      </defs>
      <use xlink:href="#DejaVuSans-48"/>
      <use xlink:href="#DejaVuSans-79" transform="translate(75.195312 0)"/>
      <use xlink:href="#DejaVuSans-70" transform="translate(134.375 0)"/>
      <use xlink:href="#DejaVuSans-65" transform="translate(197.851562 0)"/>
      <use xlink:href="#DejaVuSans-72" transform="translate(259.375 0)"/>
      <use xlink:href="#DejaVuSans-62" transform="translate(300.488281 0)"/>
      <use xlink:href="#DejaVuSans-6f" transform="translate(363.964844 0)"/>
      <use xlink:href="#DejaVuSans-6c" transform="translate(425.146484 0)"/>
      <use xlink:href="#DejaVuSans-69" transform="translate(452.929688 0)"/>
      <use xlink:href="#DejaVuSans-63" transform="translate(480.712891 0)"/>
      <use xlink:href="#DejaVuSans-20" transform="translate(535.693359 0)"/>
      <use xlink:href="#DejaVuSans-74" transform="translate(567.480469 0)"/>
      <use xlink:href="#DejaVuSans-61" transform="translate(606.689453 0)"/>
      <use xlink:href="#DejaVuSans-6e" transform="translate(667.96875 0)"/>
      <use xlink:href="#DejaVuSans-67" transform="translate(731.347656 0)"/>
      <use xlink:href="#DejaVuSans-65" transform="translate(794.824219 0)"/>
      <use xlink:href="#DejaVuSans-6e" transform="translate(856.347656 0)"/>
      <use xlink:href="#DejaVuSans-74" transform="translate(919.726562 0)"/>
      <use xlink:href="#DejaVuSans-20" transform="translate(958.935547 0)"/>
      <use xlink:href="#DejaVuSans-28" transform="translate(990.722656 0)"/>
      <use xlink:href="#DejaVuSans-41" transform="translate(1029.736328 0)"/>
      <use xlink:href="#DejaVuSans-50" transform="translate(1098.144531 0)"/>
      <use xlink:href="#DejaVuSans-49" transform="translate(1158.447266 0)"/>
      <use xlink:href="#DejaVuSans-20" transform="translate(1187.939453 0)"/>
      <use xlink:href="#DejaVuSans-66" transform="translate(1219.726562 0)"/>
      <use xlink:href="#DejaVuSans-61" transform="translate(1254.931641 0)"/>
      <use xlink:href="#DejaVuSans-6d" transform="translate(1316.210938 0)"/>
      <use xlink:href="#DejaVuSans-69" transform="translate(1413.623047 0)"/>
      <use xlink:href="#DejaVuSans-6c" transform="translate(1441.40625 0)"/>
      <use xlink:href="#DejaVuSans-79" transform="translate(1469.189453 0)"/>
      <use xlink:href="#DejaVuSans-29" transform="translate(1528.369141 0)"/>
     </g>
    </g>
    <g id="line2d_35">
     <path d="M 53.843125 48.076875 
L 62.843125 48.076875 
L 71.843125 48.076875 
" style="fill: none; stroke: #ff7f0e; stroke-width: 2; stroke-linecap: square"/>
    </g>
    <g id="text_19">
     <!-- Two-parameter hyperbola -->
     <g transform="translate(79.043125 51.226875) scale(0.09 -0.09)">
      <defs>
       <path id="DejaVuSans-54" d="M -19 4666 
L 3928 4666 
L 3928 4134 
L 2272 4134 
L 2272 0 
L 1638 0 
L 1638 4134 
L -19 4134 
L -19 4666 
z
" transform="scale(0.015625)"/>
       <path id="DejaVuSans-77" d="M 269 3500 
L 844 3500 
L 1563 769 
L 2278 3500 
L 2956 3500 
L 3675 769 
L 4391 3500 
L 4966 3500 
L 4050 0 
L 3372 0 
L 2619 2869 
L 1863 0 
L 1184 0 
L 269 3500 
z
" transform="scale(0.015625)"/>
      </defs>
      <use xlink:href="#DejaVuSans-54"/>
      <use xlink:href="#DejaVuSans-77" transform="translate(44.583984 0)"/>
      <use xlink:href="#DejaVuSans-6f" transform="translate(126.371094 0)"/>
      <use xlink:href="#DejaVuSans-2d" transform="translate(189.427734 0)"/>
      <use xlink:href="#DejaVuSans-70" transform="translate(225.511719 0)"/>
      <use xlink:href="#DejaVuSans-61" transform="translate(288.988281 0)"/>
      <use xlink:href="#DejaVuSans-72" transform="translate(350.267578 0)"/>
      <use xlink:href="#DejaVuSans-61" transform="translate(391.380859 0)"/>
      <use xlink:href="#DejaVuSans-6d" transform="translate(452.660156 0)"/>
      <use xlink:href="#DejaVuSans-65" transform="translate(550.072266 0)"/>
      <use xlink:href="#DejaVuSans-74" transform="translate(611.595703 0)"/>
      <use xlink:href="#DejaVuSans-65" transform="translate(650.804688 0)"/>
      <use xlink:href="#DejaVuSans-72" transform="translate(712.328125 0)"/>
      <use xlink:href="#DejaVuSans-20" transform="translate(753.441406 0)"/>
      <use xlink:href="#DejaVuSans-68" transform="translate(785.228516 0)"/>
      <use xlink:href="#DejaVuSans-79" transform="translate(848.607422 0)"/>
      <use xlink:href="#DejaVuSans-70" transform="translate(907.787109 0)"/>
      <use xlink:href="#DejaVuSans-65" transform="translate(971.263672 0)"/>
      <use xlink:href="#DejaVuSans-72" transform="translate(1032.787109 0)"/>
      <use xlink:href="#DejaVuSans-62" transform="translate(1073.900391 0)"/>
      <use xlink:href="#DejaVuSans-6f" transform="translate(1137.376953 0)"/>
      <use xlink:href="#DejaVuSans-6c" transform="translate(1198.558594 0)"/>
      <use xlink:href="#DejaVuSans-61" transform="translate(1226.341797 0)"/>
     </g>
    </g>
    <g id="line2d_36">
     <path d="M 53.843125 61.287187 
L 62.843125 61.287187 
L 71.843125 61.287187 
" style="fill: none; stroke: #2ca02c; stroke-width: 2; stroke-linecap: square"/>
    </g>
    <g id="text_20">
     <!-- Exponential / CPT family -->
     <g transform="translate(79.043125 64.437187) scale(0.09 -0.09)">
      <defs>
       <path id="DejaVuSans-45" d="M 628 4666 
L 3578 4666 
L 3578 4134 
L 1259 4134 
L 1259 2753 
L 3481 2753 
L 3481 2222 
L 1259 2222 
L 1259 531 
L 3634 531 
L 3634 0 
L 628 0 
L 628 4666 
z
" transform="scale(0.015625)"/>
       <path id="DejaVuSans-78" d="M 3513 3500 
L 2247 1797 
L 3578 0 
L 2900 0 
L 1881 1375 
L 863 0 
L 184 0 
L 1544 1831 
L 300 3500 
L 978 3500 
L 1906 2253 
L 2834 3500 
L 3513 3500 
z
" transform="scale(0.015625)"/>
       <path id="DejaVuSans-43" d="M 4122 4306 
L 4122 3641 
Q 3803 3938 3442 4084 
Q 3081 4231 2675 4231 
Q 1875 4231 1450 3742 
Q 1025 3253 1025 2328 
Q 1025 1406 1450 917 
Q 1875 428 2675 428 
Q 3081 428 3442 575 
Q 3803 722 4122 1019 
L 4122 359 
Q 3791 134 3420 21 
Q 3050 -91 2638 -91 
Q 1578 -91 968 557 
Q 359 1206 359 2328 
Q 359 3453 968 4101 
Q 1578 4750 2638 4750 
Q 3056 4750 3426 4639 
Q 3797 4528 4122 4306 
z
" transform="scale(0.015625)"/>
      </defs>
      <use xlink:href="#DejaVuSans-45"/>
      <use xlink:href="#DejaVuSans-78" transform="translate(63.183594 0)"/>
      <use xlink:href="#DejaVuSans-70" transform="translate(122.363281 0)"/>
      <use xlink:href="#DejaVuSans-6f" transform="translate(185.839844 0)"/>
      <use xlink:href="#DejaVuSans-6e" transform="translate(247.021484 0)"/>
      <use xlink:href="#DejaVuSans-65" transform="translate(310.400391 0)"/>
      <use xlink:href="#DejaVuSans-6e" transform="translate(371.923828 0)"/>
      <use xlink:href="#DejaVuSans-74" transform="translate(435.302734 0)"/>
      <use xlink:href="#DejaVuSans-69" transform="translate(474.511719 0)"/>
      <use xlink:href="#DejaVuSans-61" transform="translate(502.294922 0)"/>
      <use xlink:href="#DejaVuSans-6c" transform="translate(563.574219 0)"/>
      <use xlink:href="#DejaVuSans-20" transform="translate(591.357422 0)"/>
      <use xlink:href="#DejaVuSans-2f" transform="translate(623.144531 0)"/>
      <use xlink:href="#DejaVuSans-20" transform="translate(656.835938 0)"/>
      <use xlink:href="#DejaVuSans-43" transform="translate(688.623047 0)"/>
      <use xlink:href="#DejaVuSans-50" transform="translate(758.447266 0)"/>
      <use xlink:href="#DejaVuSans-54" transform="translate(818.75 0)"/>
      <use xlink:href="#DejaVuSans-20" transform="translate(879.833984 0)"/>
      <use xlink:href="#DejaVuSans-66" transform="translate(911.621094 0)"/>
      <use xlink:href="#DejaVuSans-61" transform="translate(946.826172 0)"/>
      <use xlink:href="#DejaVuSans-6d" transform="translate(1008.105469 0)"/>
      <use xlink:href="#DejaVuSans-69" transform="translate(1105.517578 0)"/>
      <use xlink:href="#DejaVuSans-6c" transform="translate(1133.300781 0)"/>
      <use xlink:href="#DejaVuSans-79" transform="translate(1161.083984 0)"/>
     </g>
    </g>
    <g id="line2d_37">
     <path d="M 53.843125 74.4975 
L 62.843125 74.4975 
L 71.843125 74.4975 
" style="fill: none; stroke: #d62728; stroke-width: 2; stroke-linecap: square"/>
    </g>
    <g id="text_21">
     <!-- Bilinear idealisation -->
     <g transform="translate(79.043125 77.6475) scale(0.09 -0.09)">
      <defs>
       <path id="DejaVuSans-42" d="M 1259 2228 
L 1259 519 
L 2272 519 
Q 2781 519 3026 730 
Q 3272 941 3272 1375 
Q 3272 1813 3026 2020 
Q 2781 2228 2272 2228 
L 1259 2228 
z
M 1259 4147 
L 1259 2741 
L 2194 2741 
Q 2656 2741 2882 2914 
Q 3109 3088 3109 3444 
Q 3109 3797 2882 3972 
Q 2656 4147 2194 4147 
L 1259 4147 
z
M 628 4666 
L 2241 4666 
Q 2963 4666 3353 4366 
Q 3744 4066 3744 3513 
Q 3744 3084 3544 2831 
Q 3344 2578 2956 2516 
Q 3422 2416 3680 2098 
Q 3938 1781 3938 1306 
Q 3938 681 3513 340 
Q 3088 0 2303 0 
L 628 0 
L 628 4666 
z
" transform="scale(0.015625)"/>
      </defs>
      <use xlink:href="#DejaVuSans-42"/>
      <use xlink:href="#DejaVuSans-69" transform="translate(68.603516 0)"/>
      <use xlink:href="#DejaVuSans-6c" transform="translate(96.386719 0)"/>
      <use xlink:href="#DejaVuSans-69" transform="translate(124.169922 0)"/>
      <use xlink:href="#DejaVuSans-6e" transform="translate(151.953125 0)"/>
      <use xlink:href="#DejaVuSans-65" transform="translate(215.332031 0)"/>
      <use xlink:href="#DejaVuSans-61" transform="translate(276.855469 0)"/>
      <use xlink:href="#DejaVuSans-72" transform="translate(338.134766 0)"/>
      <use xlink:href="#DejaVuSans-20" transform="translate(379.248047 0)"/>
      <use xlink:href="#DejaVuSans-69" transform="translate(411.035156 0)"/>
      <use xlink:href="#DejaVuSans-64" transform="translate(438.818359 0)"/>
      <use xlink:href="#DejaVuSans-65" transform="translate(502.294922 0)"/>
      <use xlink:href="#DejaVuSans-61" transform="translate(563.818359 0)"/>
      <use xlink:href="#DejaVuSans-6c" transform="translate(625.097656 0)"/>
      <use xlink:href="#DejaVuSans-69" transform="translate(652.880859 0)"/>
      <use xlink:href="#DejaVuSans-73" transform="translate(680.664062 0)"/>
      <use xlink:href="#DejaVuSans-61" transform="translate(732.763672 0)"/>
      <use xlink:href="#DejaVuSans-74" transform="translate(794.042969 0)"/>
      <use xlink:href="#DejaVuSans-69" transform="translate(833.251953 0)"/>
      <use xlink:href="#DejaVuSans-6f" transform="translate(861.035156 0)"/>
      <use xlink:href="#DejaVuSans-6e" transform="translate(922.216797 0)"/>
     </g>
    </g>
    <g id="line2d_38">
     <path d="M 53.843125 87.707812 
L 62.843125 87.707812 
L 71.843125 87.707812 
" style="fill: none; stroke: #9467bd; stroke-width: 2; stroke-linecap: square"/>
    </g>
    <g id="text_22">
     <!-- Power law (no finite asymptote) -->
     <g transform="translate(79.043125 90.857812) scale(0.09 -0.09)">
      <use xlink:href="#DejaVuSans-50"/>
      <use xlink:href="#DejaVuSans-6f" transform="translate(56.677734 0)"/>
      <use xlink:href="#DejaVuSans-77" transform="translate(117.859375 0)"/>
      <use xlink:href="#DejaVuSans-65" transform="translate(199.646484 0)"/>
      <use xlink:href="#DejaVuSans-72" transform="translate(261.169922 0)"/>
      <use xlink:href="#DejaVuSans-20" transform="translate(302.283203 0)"/>
      <use xlink:href="#DejaVuSans-6c" transform="translate(334.070312 0)"/>
      <use xlink:href="#DejaVuSans-61" transform="translate(361.853516 0)"/>
      <use xlink:href="#DejaVuSans-77" transform="translate(423.132812 0)"/>
      <use xlink:href="#DejaVuSans-20" transform="translate(504.919922 0)"/>
      <use xlink:href="#DejaVuSans-28" transform="translate(536.707031 0)"/>
      <use xlink:href="#DejaVuSans-6e" transform="translate(575.720703 0)"/>
      <use xlink:href="#DejaVuSans-6f" transform="translate(639.099609 0)"/>
      <use xlink:href="#DejaVuSans-20" transform="translate(700.28125 0)"/>
      <use xlink:href="#DejaVuSans-66" transform="translate(732.068359 0)"/>
      <use xlink:href="#DejaVuSans-69" transform="translate(767.273438 0)"/>
      <use xlink:href="#DejaVuSans-6e" transform="translate(795.056641 0)"/>
      <use xlink:href="#DejaVuSans-69" transform="translate(858.435547 0)"/>
      <use xlink:href="#DejaVuSans-74" transform="translate(886.21875 0)"/>
      <use xlink:href="#DejaVuSans-65" transform="translate(925.427734 0)"/>
      <use xlink:href="#DejaVuSans-20" transform="translate(986.951172 0)"/>
      <use xlink:href="#DejaVuSans-61" transform="translate(1018.738281 0)"/>
      <use xlink:href="#DejaVuSans-73" transform="translate(1080.017578 0)"/>
      <use xlink:href="#DejaVuSans-79" transform="translate(1132.117188 0)"/>
      <use xlink:href="#DejaVuSans-6d" transform="translate(1191.296875 0)"/>
      <use xlink:href="#DejaVuSans-70" transform="translate(1288.708984 0)"/>
      <use xlink:href="#DejaVuSans-74" transform="translate(1352.185547 0)"/>
      <use xlink:href="#DejaVuSans-6f" transform="translate(1391.394531 0)"/>
      <use xlink:href="#DejaVuSans-74" transform="translate(1452.576172 0)"/>
      <use xlink:href="#DejaVuSans-65" transform="translate(1491.785156 0)"/>
      <use xlink:href="#DejaVuSans-29" transform="translate(1553.308594 0)"/>
     </g>
    </g>
   </g>
  </g>
 </g>
 <defs>
  <clipPath id="p85a7d59a53">
   <rect x="45.743125" y="23.077969" width="590.245" height="343"/>
  </clipPath>
 </defs>
</svg>
