<?xml version="1.0" encoding="utf-8" standalone="no"?>
<!DOCTYPE svg PUBLIC "-//W3C//DTD SVG 1.1//EN"
  "http://www.w3.org/Graphics/SVG/1.1/DTD/svg11.dtd">
<svg xmlns:xlink="http://www.w3.org/1999/xlink" width="712.8pt" height="388.8pt" viewBox="0 0 712.8 388.8" xmlns="http://www.w3.org/2000/svg" version="1.1">
 <metadata>
  <rdf:RDF xmlns:dc="http://purl.org/dc/elements/1.1/" xmlns:cc="http://creativecommons.org/ns#" xmlns:rdf="http://www.w3.org/1999/02/22-rdf-syntax-ns#">
   <cc:Work>
    <dc:type rdf:resource="http://purl.org/dc/dcmitype/StillImage"/>
    <dc:date>2026-07-10T20:01:03.086531</dc:date>
    <dc:format>image/svg+xml</dc:format>
    <dc:creator>
     <cc:Agent>
      <dc:title>Matplotlib v3.10.8, https://matplotlib.org/</dc:title>
     </cc:Agent>
    </dc:creator>
   </cc:Work>
  </rdf:RDF>
 </metadata>
 <defs>
  <style type="text/css">*{stroke-linejoin: round; stroke-linecap: butt}</style>
 </defs>
 <g id="figure_1">
  <g id="patch_1">
   <path d="M 0 388.8 
L 712.8 388.8 
L 712.8 0 
L 0 0 
z
" style="fill: #ffffff"/>
  </g>
  <g id="axes_1">
   <g id="patch_2">
    <path d="M 331.956 344.16 
L 380.844 344.16 
L 380.844 50.88 
L 331.956 50.88 
z
" clip-path="url(#pb3edebe238)" style="fill: #1f77b4"/>
   </g>
   <g id="patch_3">
    <path d="M 358.399204 29.04 
Q 426.241702 29.04 492.071739 29.04 
" clip-path="url(#pb3edebe238)" style="fill: none; stroke: #000000; stroke-width: 1.8; stroke-linecap: round"/>
    <path d="M 486.071739 26.04 
L 492.071739 29.04 
L 486.071739 32.04 
" clip-path="url(#pb3edebe238)" style="fill: none; stroke: #000000; stroke-width: 1.8; stroke-linecap: round"/>
   </g>
   <g id="patch_4">
    <path d="M 316.031199 28.631 
Q 287.621697 23.164817 289.734743 50.333951 
" clip-path="url(#pb3edebe238)" style="fill: none; stroke: #000000; stroke-width: 1.5; stroke-linecap: round"/>
    <path d="M 292.260473 44.119396 
L 289.734743 50.333951 
L 286.278538 44.584634 
" clip-path="url(#pb3edebe238)" style="fill: none; stroke: #000000; stroke-width: 1.5; stroke-linecap: round"/>
   </g>
   <g id="patch_5">
    <path d="M 480.7152 322.944 
C 481.826507 322.944 482.892447 322.549509 483.67826 321.847408 
C 484.464073 321.145307 484.9056 320.19292 484.9056 319.2 
C 484.9056 318.20708 484.464073 317.254693 483.67826 316.552592 
C 482.892447 315.850491 481.826507 315.456 480.7152 315.456 
C 479.603893 315.456 478.537953 315.850491 477.75214 316.552592 
C 476.966327 317.254693 476.5248 318.20708 476.5248 319.2 
C 476.5248 320.19292 476.966327 321.145307 477.75214 321.847408 
C 478.537953 322.549509 479.603893 322.944 480.7152 322.944 
z
" clip-path="url(#pb3edebe238)" style="fill: #1f77b4"/>
   </g>
   <g id="patch_6">
    <path d="M 480.7152 285.504 
C 481.826507 285.504 482.892447 285.109509 483.67826 284.407408 
C 484.464073 283.705307 484.9056 282.75292 484.9056 281.76 
C 484.9056 280.76708 484.464073 279.814693 483.67826 279.112592 
C 482.892447 278.410491 481.826507 278.016 480.7152 278.016 
C 479.603893 278.016 478.537953 278.410491 477.75214 279.112592 
C 476.966327 279.814693 476.5248 280.76708 476.5248 281.76 
C 476.5248 282.75292 476.966327 283.705307 477.75214 284.407408 
C 478.537953 285.109509 479.603893 285.504 480.7152 285.504 
z
" clip-path="url(#pb3edebe238)" style="fill: #1f77b4"/>
   </g>
   <g id="patch_7">
    <path d="M 480.7152 248.064 
C 481.826507 248.064 482.892447 247.669509 483.67826 246.967408 
C 484.464073 246.265307 484.9056 245.31292 484.9056 244.32 
C 484.9056 243.32708 484.464073 242.374693 483.67826 241.672592 
C 482.892447 240.970491 481.826507 240.576 480.7152 240.576 
C 479.603893 240.576 478.537953 240.970491 477.75214 241.672592 
C 476.966327 242.374693 476.5248 243.32708 476.5248 244.32 
C 476.5248 245.31292 476.966327 246.265307 477.75214 246.967408 
C 478.537953 247.669509 479.603893 248.064 480.7152 248.064 
z
" clip-path="url(#pb3edebe238)" style="fill: #1f77b4"/>
   </g>
   <g id="patch_8">
    <path d="M 480.7152 210.624 
C 481.826507 210.624 482.892447 210.229509 483.67826 209.527408 
C 484.464073 208.825307 484.9056 207.87292 484.9056 206.88 
C 484.9056 205.88708 484.464073 204.934693 483.67826 204.232592 
C 482.892447 203.530491 481.826507 203.136 480.7152 203.136 
C 479.603893 203.136 478.537953 203.530491 477.75214 204.232592 
C 476.966327 204.934693 476.5248 205.88708 476.5248 206.88 
C 476.5248 207.87292 476.966327 208.825307 477.75214 209.527408 
C 478.537953 210.229509 479.603893 210.624 480.7152 210.624 
z
" clip-path="url(#pb3edebe238)" style="fill: #1f77b4"/>
   </g>
   <g id="patch_9">
    <path d="M 480.7152 173.184 
C 481.826507 173.184 482.892447 172.789509 483.67826 172.087408 
C 484.464073 171.385307 484.9056 170.43292 484.9056 169.44 
C 484.9056 168.44708 484.464073 167.494693 483.67826 166.792592 
C 482.892447 166.090491 481.826507 165.696 480.7152 165.696 
C 479.603893 165.696 478.537953 166.090491 477.75214 166.792592 
C 476.966327 167.494693 476.5248 168.44708 476.5248 169.44 
C 476.5248 170.43292 476.966327 171.385307 477.75214 172.087408 
C 478.537953 172.789509 479.603893 173.184 480.7152 173.184 
z
" clip-path="url(#pb3edebe238)" style="fill: #1f77b4"/>
   </g>
   <g id="patch_10">
    <path d="M 480.7152 135.744 
C 481.826507 135.744 482.892447 135.349509 483.67826 134.647408 
C 484.464073 133.945307 484.9056 132.99292 484.9056 132 
C 484.9056 131.00708 484.464073 130.054693 483.67826 129.352592 
C 482.892447 128.650491 481.826507 128.256 480.7152 128.256 
C 479.603893 128.256 478.537953 128.650491 477.75214 129.352592 
C 476.966327 130.054693 476.5248 131.00708 476.5248 132 
C 476.5248 132.99292 476.966327 133.945307 477.75214 134.647408 
C 478.537953 135.349509 479.603893 135.744 480.7152 135.744 
z
" clip-path="url(#pb3edebe238)" style="fill: #1f77b4"/>
   </g>
   <g id="patch_11">
    <path d="M 480.7152 98.304 
C 481.826507 98.304 482.892447 97.909509 483.67826 97.207408 
C 484.464073 96.505307 484.9056 95.55292 484.9056 94.56 
C 484.9056 93.56708 484.464073 92.614693 483.67826 91.912592 
C 482.892447 91.210491 481.826507 90.816 480.7152 90.816 
C 479.603893 90.816 478.537953 91.210491 477.75214 91.912592 
C 476.966327 92.614693 476.5248 93.56708 476.5248 94.56 
C 476.5248 95.55292 476.966327 96.505307 477.75214 97.207408 
C 478.537953 97.909509 479.603893 98.304 480.7152 98.304 
z
" clip-path="url(#pb3edebe238)" style="fill: #1f77b4"/>
   </g>
   <g id="patch_12">
    <path d="M 382.842778 163.2 
Q 412.27035 163.2 440.579888 163.2 
" clip-path="url(#pb3edebe238)" style="fill: none; stroke: #000000; stroke-linecap: round"/>
    <path d="M 435.379888 160.6 
L 440.579888 163.2 
L 435.379888 165.8 
" clip-path="url(#pb3edebe238)" style="fill: none; stroke: #000000; stroke-linecap: round"/>
   </g>
   <g id="patch_13">
    <path d="M 329.956796 188.16 
Q 314.495033 188.16 300.151304 188.16 
" clip-path="url(#pb3edebe238)" style="fill: none; stroke: #000000; stroke-linecap: round"/>
    <path d="M 305.351304 190.76 
L 300.151304 188.16 
L 305.351304 185.56 
" clip-path="url(#pb3edebe238)" style="fill: none; stroke: #000000; stroke-linecap: round"/>
   </g>
   <g id="patch_14">
    <path d="M 111.96 77.842654 
Q 111.96 203.760092 111.96 328.559495 
" clip-path="url(#pb3edebe238)" style="fill: none; stroke: #000000; stroke-linecap: round"/>
    <path d="M 114.56 323.359495 
L 111.96 328.559495 
L 109.36 323.359495 
" clip-path="url(#pb3edebe238)" style="fill: none; stroke: #000000; stroke-linecap: round"/>
   </g>
   <g id="line2d_1">
    <path d="M 49.104 69.6 
L 663.696 69.6 
" clip-path="url(#pb3edebe238)" style="fill: none; stroke: #1f77b4; stroke-width: 1.8; stroke-linecap: square"/>
   </g>
   <g id="line2d_2">
    <path d="M 380.844 319.2 
L 398.304 319.2 
L 405.288 311.088 
L 411.5736 327.312 
L 417.8592 327.312 
L 424.1448 311.088 
L 430.4304 311.088 
L 436.716 327.312 
L 443.0016 327.312 
L 449.2872 311.088 
L 455.5728 311.088 
L 461.8584 327.312 
L 471.636 319.2 
" clip-path="url(#pb3edebe238)" style="fill: none; stroke: #ff7f0e; stroke-width: 1.2; stroke-linecap: square"/>
   </g>
   <g id="line2d_3">
    <path d="M 380.844 281.76 
L 398.304 281.76 
L 405.288 273.648 
L 411.5736 289.872 
L 417.8592 289.872 
L 424.1448 273.648 
L 430.4304 273.648 
L 436.716 289.872 
L 443.0016 289.872 
L 449.2872 273.648 
L 455.5728 273.648 
L 461.8584 289.872 
L 471.636 281.76 
" clip-path="url(#pb3edebe238)" style="fill: none; stroke: #2ca02c; stroke-width: 1.2; stroke-linecap: square"/>
   </g>
   <g id="line2d_4">
    <path d="M 380.844 244.32 
L 398.304 244.32 
L 405.288 236.208 
L 411.5736 252.432 
L 417.8592 252.432 
L 424.1448 236.208 
L 430.4304 236.208 
L 436.716 252.432 
L 443.0016 252.432 
L 449.2872 236.208 
L 455.5728 236.208 
L 461.8584 252.432 
L 471.636 244.32 
" clip-path="url(#pb3edebe238)" style="fill: none; stroke: #d62728; stroke-width: 1.2; stroke-linecap: square"/>
   </g>
   <g id="line2d_5">
    <path d="M 380.844 206.88 
L 398.304 206.88 
L 405.288 198.768 
L 411.5736 214.992 
L 417.8592 214.992 
L 424.1448 198.768 
L 430.4304 198.768 
L 436.716 214.992 
L 443.0016 214.992 
L 449.2872 198.768 
L 455.5728 198.768 
L 461.8584 214.992 
L 471.636 206.88 
" clip-path="url(#pb3edebe238)" style="fill: none; stroke: #9467bd; stroke-width: 1.2; stroke-linecap: square"/>
   </g>
   <g id="line2d_6">
    <path d="M 380.844 169.44 
L 398.304 169.44 
L 405.288 161.328 
L 411.5736 177.552 
L 417.8592 177.552 
L 424.1448 161.328 
L 430.4304 161.328 
L 436.716 177.552 
L 443.0016 177.552 
L 449.2872 161.328 
L 455.5728 161.328 
L 461.8584 177.552 
L 471.636 169.44 
" clip-path="url(#pb3edebe238)" style="fill: none; stroke: #8c564b; stroke-width: 1.2; stroke-linecap: square"/>
   </g>
   <g id="line2d_7">
    <path d="M 380.844 132 
L 398.304 132 
L 405.288 123.888 
L 411.5736 140.112 
L 417.8592 140.112 
L 424.1448 123.888 
L 430.4304 123.888 
L 436.716 140.112 
L 443.0016 140.112 
L 449.2872 123.888 
L 455.5728 123.888 
L 461.8584 140.112 
L 471.636 132 
" clip-path="url(#pb3edebe238)" style="fill: none; stroke: #e377c2; stroke-width: 1.2; stroke-linecap: square"/>
   </g>
   <g id="line2d_8">
    <path d="M 380.844 94.56 
L 398.304 94.56 
L 405.288 86.448 
L 411.5736 102.672 
L 417.8592 102.672 
L 424.1448 86.448 
L 430.4304 86.448 
L 436.716 102.672 
L 443.0016 102.672 
L 449.2872 86.448 
L 455.5728 86.448 
L 461.8584 102.672 
L 471.636 94.56 
" clip-path="url(#pb3edebe238)" style="fill: none; stroke: #7f7f7f; stroke-width: 1.2; stroke-linecap: square"/>
   </g>
   <g id="text_1">
    <!-- Seabed -->
    <g transform="translate(56.088 60.24) scale(0.12 -0.12)">
     <defs>
      <path id="DejaVuSans-53" d="M 3425 4513 
L 3425 3897 
Q 3066 4069 2747 4153 
Q 2428 4238 2131 4238 
Q 1616 4238 1336 4038 
Q 1056 3838 1056 3469 
Q 1056 3159 1242 3001 
Q 1428 2844 1947 2747 
L 2328 2669 
Q 3034 2534 3370 2195 
Q 3706 1856 3706 1288 
Q 3706 609 3251 259 
Q 2797 -91 1919 -91 
Q 1588 -91 1214 -16 
Q 841 59 441 206 
L 441 856 
Q 825 641 1194 531 
Q 1563 422 1919 422 
Q 2459 422 2753 634 
Q 3047 847 3047 1241 
Q 3047 1584 2836 1778 
Q 2625 1972 2144 2069 
L 1759 2144 
Q 1053 2284 737 2584 
Q 422 2884 422 3419 
Q 422 4038 858 4394 
Q 1294 4750 2059 4750 
Q 2388 4750 2728 4690 
Q 3069 4631 3425 4513 
z
" transform="scale(0.015625)"/>
      <path id="DejaVuSans-65" d="M 3597 1894 
L 3597 1613 
L 953 1613 
Q 991 1019 1311 708 
Q 1631 397 2203 397 
Q 2534 397 2845 478 
Q 3156 559 3463 722 
L 3463 178 
Q 3153 47 2828 -22 
Q 2503 -91 2169 -91 
Q 1331 -91 842 396 
Q 353 884 353 1716 
Q 353 2575 817 3079 
Q 1281 3584 2069 3584 
Q 2775 3584 3186 3129 
Q 3597 2675 3597 1894 
z
M 3022 2063 
Q 3016 2534 2758 2815 
Q 2500 3097 2075 3097 
Q 1594 3097 1305 2825 
Q 1016 2553 972 2059 
L 3022 2063 
z
" transform="scale(0.015625)"/>
      <path id="DejaVuSans-61" d="M 2194 1759 
Q 1497 1759 1228 1600 
Q 959 1441 959 1056 
Q 959 750 1161 570 
Q 1363 391 1709 391 
Q 2188 391 2477 730 
Q 2766 1069 2766 1631 
L 2766 1759 
L 2194 1759 
z
M 3341 1997 
L 3341 0 
L 2766 0 
L 2766 531 
Q 2569 213 2275 61 
Q 1981 -91 1556 -91 
Q 1019 -91 701 211 
Q 384 513 384 1019 
Q 384 1609 779 1909 
Q 1175 2209 1959 2209 
L 2766 2209 
L 2766 2266 
Q 2766 2663 2505 2880 
Q 2244 3097 1772 3097 
Q 1472 3097 1187 3025 
Q 903 2953 641 2809 
L 641 3341 
Q 956 3463 1253 3523 
Q 1550 3584 1831 3584 
Q 2591 3584 2966 3190 
Q 3341 2797 3341 1997 
z
" transform="scale(0.015625)"/>
      <path id="DejaVuSans-62" d="M 3116 1747 
Q 3116 2381 2855 2742 
Q 2594 3103 2138 3103 
Q 1681 3103 1420 2742 
Q 1159 2381 1159 1747 
Q 1159 1113 1420 752 
Q 1681 391 2138 391 
Q 2594 391 2855 752 
Q 3116 1113 3116 1747 
z
M 1159 2969 
Q 1341 3281 1617 3432 
Q 1894 3584 2278 3584 
Q 2916 3584 3314 3078 
Q 3713 2572 3713 1747 
Q 3713 922 3314 415 
Q 2916 -91 2278 -91 
Q 1894 -91 1617 61 
Q 1341 213 1159 525 
L 1159 0 
L 581 0 
L 581 4863 
L 1159 4863 
L 1159 2969 
z
" transform="scale(0.015625)"/>
      <path id="DejaVuSans-64" d="M 2906 2969 
L 2906 4863 
L 3481 4863 
L 3481 0 
L 2906 0 
L 2906 525 
Q 2725 213 2448 61 
Q 2172 -91 1784 -91 
Q 1150 -91 751 415 
Q 353 922 353 1747 
Q 353 2572 751 3078 
Q 1150 3584 1784 3584 
Q 2172 3584 2448 3432 
Q 2725 3281 2906 2969 
z
M 947 1747 
Q 947 1113 1208 752 
Q 1469 391 1925 391 
Q 2381 391 2643 752 
Q 2906 1113 2906 1747 
Q 2906 2381 2643 2742 
Q 2381 3103 1925 3103 
Q 1469 3103 1208 2742 
Q 947 2381 947 1747 
z
" transform="scale(0.015625)"/>
     </defs>
     <use xlink:href="#DejaVuSans-53"/>
     <use xlink:href="#DejaVuSans-65" transform="translate(63.476562 0)"/>
     <use xlink:href="#DejaVuSans-61" transform="translate(125 0)"/>
     <use xlink:href="#DejaVuSans-62" transform="translate(186.279297 0)"/>
     <use xlink:href="#DejaVuSans-65" transform="translate(249.755859 0)"/>
     <use xlink:href="#DejaVuSans-64" transform="translate(311.279297 0)"/>
    </g>
   </g>
   <g id="text_2">
    <!-- Laterally loaded pile -->
    <g transform="translate(290.245234 41.52) scale(0.13 -0.13)">
     <defs>
      <path id="DejaVuSans-4c" d="M 628 4666 
L 1259 4666 
L 1259 531 
L 3531 531 
L 3531 0 
L 628 0 
L 628 4666 
z
" transform="scale(0.015625)"/>
      <path id="DejaVuSans-74" d="M 1172 4494 
L 1172 3500 
L 2356 3500 
L 2356 3053 
L 1172 3053 
L 1172 1153 
Q 1172 725 1289 603 
Q 1406 481 1766 481 
L 2356 481 
L 2356 0 
L 1766 0 
Q 1100 0 847 248 
Q 594 497 594 1153 
L 594 3053 
L 172 3053 
L 172 3500 
L 594 3500 
L 594 4494 
L 1172 4494 
z
" transform="scale(0.015625)"/>
      <path id="DejaVuSans-72" d="M 2631 2963 
Q 2534 3019 2420 3045 
Q 2306 3072 2169 3072 
Q 1681 3072 1420 2755 
Q 1159 2438 1159 1844 
L 1159 0 
L 581 0 
L 581 3500 
L 1159 3500 
L 1159 2956 
Q 1341 3275 1631 3429 
Q 1922 3584 2338 3584 
Q 2397 3584 2469 3576 
Q 2541 3569 2628 3553 
L 2631 2963 
z
" transform="scale(0.015625)"/>
      <path id="DejaVuSans-6c" d="M 603 4863 
L 1178 4863 
L 1178 0 
L 603 0 
L 603 4863 
z
" transform="scale(0.015625)"/>
      <path id="DejaVuSans-79" d="M 2059 -325 
Q 1816 -950 1584 -1140 
Q 1353 -1331 966 -1331 
L 506 -1331 
L 506 -850 
L 844 -850 
Q 1081 -850 1212 -737 
Q 1344 -625 1503 -206 
L 1606 56 
L 191 3500 
L 800 3500 
L 1894 763 
L 2988 3500 
L 3597 3500 
L 2059 -325 
z
" transform="scale(0.015625)"/>
      <path id="DejaVuSans-20" transform="scale(0.015625)"/>
      <path id="DejaVuSans-6f" d="M 1959 3097 
Q 1497 3097 1228 2736 
Q 959 2375 959 1747 
Q 959 1119 1226 758 
Q 1494 397 1959 397 
Q 2419 397 2687 759 
Q 2956 1122 2956 1747 
Q 2956 2369 2687 2733 
Q 2419 3097 1959 3097 
z
M 1959 3584 
Q 2709 3584 3137 3096 
Q 3566 2609 3566 1747 
Q 3566 888 3137 398 
Q 2709 -91 1959 -91 
Q 1206 -91 779 398 
Q 353 888 353 1747 
Q 353 2609 779 3096 
Q 1206 3584 1959 3584 
z
" transform="scale(0.015625)"/>
      <path id="DejaVuSans-70" d="M 1159 525 
L 1159 -1331 
L 581 -1331 
L 581 3500 
L 1159 3500 
L 1159 2969 
Q 1341 3281 1617 3432 
Q 1894 3584 2278 3584 
Q 2916 3584 3314 3078 
Q 3713 2572 3713 1747 
Q 3713 922 3314 415 
Q 2916 -91 2278 -91 
Q 1894 -91 1617 61 
Q 1341 213 1159 525 
z
M 3116 1747 
Q 3116 2381 2855 2742 
Q 2594 3103 2138 3103 
Q 1681 3103 1420 2742 
Q 1159 2381 1159 1747 
Q 1159 1113 1420 752 
Q 1681 391 2138 391 
Q 2594 391 2855 752 
Q 3116 1113 3116 1747 
z
" transform="scale(0.015625)"/>
      <path id="DejaVuSans-69" d="M 603 3500 
L 1178 3500 
L 1178 0 
L 603 0 
L 603 3500 
z
M 603 4863 
L 1178 4863 
L 1178 4134 
L 603 4134 
L 603 4863 
z
" transform="scale(0.015625)"/>
     </defs>
     <use xlink:href="#DejaVuSans-4c"/>
     <use xlink:href="#DejaVuSans-61" transform="translate(55.712891 0)"/>
     <use xlink:href="#DejaVuSans-74" transform="translate(116.992188 0)"/>
     <use xlink:href="#DejaVuSans-65" transform="translate(156.201172 0)"/>
     <use xlink:href="#DejaVuSans-72" transform="translate(217.724609 0)"/>
     <use xlink:href="#DejaVuSans-61" transform="translate(258.837891 0)"/>
     <use xlink:href="#DejaVuSans-6c" transform="translate(320.117188 0)"/>
     <use xlink:href="#DejaVuSans-6c" transform="translate(347.900391 0)"/>
     <use xlink:href="#DejaVuSans-79" transform="translate(375.683594 0)"/>
     <use xlink:href="#DejaVuSans-20" transform="translate(434.863281 0)"/>
     <use xlink:href="#DejaVuSans-6c" transform="translate(466.650391 0)"/>
     <use xlink:href="#DejaVuSans-6f" transform="translate(494.433594 0)"/>
     <use xlink:href="#DejaVuSans-61" transform="translate(555.615234 0)"/>
     <use xlink:href="#DejaVuSans-64" transform="translate(616.894531 0)"/>
     <use xlink:href="#DejaVuSans-65" transform="translate(680.371094 0)"/>
     <use xlink:href="#DejaVuSans-64" transform="translate(741.894531 0)"/>
     <use xlink:href="#DejaVuSans-20" transform="translate(805.371094 0)"/>
     <use xlink:href="#DejaVuSans-70" transform="translate(837.158203 0)"/>
     <use xlink:href="#DejaVuSans-69" transform="translate(900.634766 0)"/>
     <use xlink:href="#DejaVuSans-6c" transform="translate(928.417969 0)"/>
     <use xlink:href="#DejaVuSans-65" transform="translate(956.201172 0)"/>
    </g>
   </g>
   <g id="text_3">
    <!-- H -->
    <g transform="translate(421.727813 20.928) scale(0.12 -0.12)">
     <defs>
      <path id="DejaVuSans-48" d="M 628 4666 
L 1259 4666 
L 1259 2753 
L 3553 2753 
L 3553 4666 
L 4184 4666 
L 4184 0 
L 3553 0 
L 3553 2222 
L 1259 2222 
L 1259 0 
L 628 0 
L 628 4666 
z
" transform="scale(0.015625)"/>
     </defs>
     <use xlink:href="#DejaVuSans-48"/>
    </g>
   </g>
   <g id="text_4">
    <!-- M -->
    <g transform="translate(269.1 30.912) scale(0.12 -0.12)">
     <defs>
      <path id="DejaVuSans-4d" d="M 628 4666 
L 1569 4666 
L 2759 1491 
L 3956 4666 
L 4897 4666 
L 4897 0 
L 4281 0 
L 4281 4097 
L 3078 897 
L 2444 897 
L 1241 4097 
L 1241 0 
L 628 0 
L 628 4666 
z
" transform="scale(0.015625)"/>
     </defs>
     <use xlink:href="#DejaVuSans-4d"/>
    </g>
   </g>
   <g id="text_5">
    <!-- Independent nonlinear -->
    <g transform="translate(499.572 184.752562) scale(0.12 -0.12)">
     <defs>
      <path id="DejaVuSans-49" d="M 628 4666 
L 1259 4666 
L 1259 0 
L 628 0 
L 628 4666 
z
" transform="scale(0.015625)"/>
      <path id="DejaVuSans-6e" d="M 3513 2113 
L 3513 0 
L 2938 0 
L 2938 2094 
Q 2938 2591 2744 2837 
Q 2550 3084 2163 3084 
Q 1697 3084 1428 2787 
Q 1159 2491 1159 1978 
L 1159 0 
L 581 0 
L 581 3500 
L 1159 3500 
L 1159 2956 
Q 1366 3272 1645 3428 
Q 1925 3584 2291 3584 
Q 2894 3584 3203 3211 
Q 3513 2838 3513 2113 
z
" transform="scale(0.015625)"/>
     </defs>
     <use xlink:href="#DejaVuSans-49"/>
     <use xlink:href="#DejaVuSans-6e" transform="translate(29.492188 0)"/>
     <use xlink:href="#DejaVuSans-64" transform="translate(92.871094 0)"/>
     <use xlink:href="#DejaVuSans-65" transform="translate(156.347656 0)"/>
     <use xlink:href="#DejaVuSans-70" transform="translate(217.871094 0)"/>
     <use xlink:href="#DejaVuSans-65" transform="translate(281.347656 0)"/>
     <use xlink:href="#DejaVuSans-6e" transform="translate(342.871094 0)"/>
     <use xlink:href="#DejaVuSans-64" transform="translate(406.25 0)"/>
     <use xlink:href="#DejaVuSans-65" transform="translate(469.726562 0)"/>
     <use xlink:href="#DejaVuSans-6e" transform="translate(531.25 0)"/>
     <use xlink:href="#DejaVuSans-74" transform="translate(594.628906 0)"/>
     <use xlink:href="#DejaVuSans-20" transform="translate(633.837891 0)"/>
     <use xlink:href="#DejaVuSans-6e" transform="translate(665.625 0)"/>
     <use xlink:href="#DejaVuSans-6f" transform="translate(729.003906 0)"/>
     <use xlink:href="#DejaVuSans-6e" transform="translate(790.185547 0)"/>
     <use xlink:href="#DejaVuSans-6c" transform="translate(853.564453 0)"/>
     <use xlink:href="#DejaVuSans-69" transform="translate(881.347656 0)"/>
     <use xlink:href="#DejaVuSans-6e" transform="translate(909.130859 0)"/>
     <use xlink:href="#DejaVuSans-65" transform="translate(972.509766 0)"/>
     <use xlink:href="#DejaVuSans-61" transform="translate(1034.033203 0)"/>
     <use xlink:href="#DejaVuSans-72" transform="translate(1095.3125 0)"/>
    </g>
    <!-- soil springs -->
    <g transform="translate(499.572 198.189937) scale(0.12 -0.12)">
     <defs>
      <path id="DejaVuSans-73" d="M 2834 3397 
L 2834 2853 
Q 2591 2978 2328 3040 
Q 2066 3103 1784 3103 
Q 1356 3103 1142 2972 
Q 928 2841 928 2578 
Q 928 2378 1081 2264 
Q 1234 2150 1697 2047 
L 1894 2003 
Q 2506 1872 2764 1633 
Q 3022 1394 3022 966 
Q 3022 478 2636 193 
Q 2250 -91 1575 -91 
Q 1294 -91 989 -36 
Q 684 19 347 128 
L 347 722 
Q 666 556 975 473 
Q 1284 391 1588 391 
Q 1994 391 2212 530 
Q 2431 669 2431 922 
Q 2431 1156 2273 1281 
Q 2116 1406 1581 1522 
L 1381 1569 
Q 847 1681 609 1914 
Q 372 2147 372 2553 
Q 372 3047 722 3315 
Q 1072 3584 1716 3584 
Q 2034 3584 2315 3537 
Q 2597 3491 2834 3397 
z
" transform="scale(0.015625)"/>
      <path id="DejaVuSans-67" d="M 2906 1791 
Q 2906 2416 2648 2759 
Q 2391 3103 1925 3103 
Q 1463 3103 1205 2759 
Q 947 2416 947 1791 
Q 947 1169 1205 825 
Q 1463 481 1925 481 
Q 2391 481 2648 825 
Q 2906 1169 2906 1791 
z
M 3481 434 
Q 3481 -459 3084 -895 
Q 2688 -1331 1869 -1331 
Q 1566 -1331 1297 -1286 
Q 1028 -1241 775 -1147 
L 775 -588 
Q 1028 -725 1275 -790 
Q 1522 -856 1778 -856 
Q 2344 -856 2625 -561 
Q 2906 -266 2906 331 
L 2906 616 
Q 2728 306 2450 153 
Q 2172 0 1784 0 
Q 1141 0 747 490 
Q 353 981 353 1791 
Q 353 2603 747 3093 
Q 1141 3584 1784 3584 
Q 2172 3584 2450 3431 
Q 2728 3278 2906 2969 
L 2906 3500 
L 3481 3500 
L 3481 434 
z
" transform="scale(0.015625)"/>
     </defs>
     <use xlink:href="#DejaVuSans-73"/>
     <use xlink:href="#DejaVuSans-6f" transform="translate(52.099609 0)"/>
     <use xlink:href="#DejaVuSans-69" transform="translate(113.28125 0)"/>
     <use xlink:href="#DejaVuSans-6c" transform="translate(141.064453 0)"/>
     <use xlink:href="#DejaVuSans-20" transform="translate(168.847656 0)"/>
     <use xlink:href="#DejaVuSans-73" transform="translate(200.634766 0)"/>
     <use xlink:href="#DejaVuSans-70" transform="translate(252.734375 0)"/>
     <use xlink:href="#DejaVuSans-72" transform="translate(316.210938 0)"/>
     <use xlink:href="#DejaVuSans-69" transform="translate(357.324219 0)"/>
     <use xlink:href="#DejaVuSans-6e" transform="translate(385.107422 0)"/>
     <use xlink:href="#DejaVuSans-67" transform="translate(448.486328 0)"/>
     <use xlink:href="#DejaVuSans-73" transform="translate(511.962891 0)"/>
    </g>
   </g>
   <g id="text_6">
    <!-- $p(z)$ -->
    <g transform="translate(398.5368 151.968) scale(0.12 -0.12)">
     <defs>
      <path id="DejaVuSans-Oblique-70" d="M 3175 2156 
Q 3175 2616 2975 2859 
Q 2775 3103 2400 3103 
Q 2144 3103 1911 2972 
Q 1678 2841 1497 2591 
Q 1319 2344 1212 1994 
Q 1106 1644 1106 1300 
Q 1106 863 1306 627 
Q 1506 391 1875 391 
Q 2147 391 2380 519 
Q 2613 647 2778 891 
Q 2956 1147 3065 1494 
Q 3175 1841 3175 2156 
z
M 1394 2969 
Q 1625 3272 1939 3428 
Q 2253 3584 2638 3584 
Q 3175 3584 3472 3232 
Q 3769 2881 3769 2247 
Q 3769 1728 3584 1258 
Q 3400 788 3053 416 
Q 2822 169 2531 39 
Q 2241 -91 1919 -91 
Q 1547 -91 1294 64 
Q 1041 219 916 525 
L 556 -1331 
L -19 -1331 
L 922 3500 
L 1497 3500 
L 1394 2969 
z
" transform="scale(0.015625)"/>
      <path id="DejaVuSans-28" d="M 1984 4856 
Q 1566 4138 1362 3434 
Q 1159 2731 1159 2009 
Q 1159 1288 1364 580 
Q 1569 -128 1984 -844 
L 1484 -844 
Q 1016 -109 783 600 
Q 550 1309 550 2009 
Q 550 2706 781 3412 
Q 1013 4119 1484 4856 
L 1984 4856 
z
" transform="scale(0.015625)"/>
      <path id="DejaVuSans-Oblique-7a" d="M 744 3500 
L 3475 3500 
L 3372 2975 
L 738 459 
L 2913 459 
L 2822 0 
L -19 0 
L 84 525 
L 2719 3041 
L 653 3041 
L 744 3500 
z
" transform="scale(0.015625)"/>
      <path id="DejaVuSans-29" d="M 513 4856 
L 1013 4856 
Q 1481 4119 1714 3412 
Q 1947 2706 1947 2009 
Q 1947 1309 1714 600 
Q 1481 -109 1013 -844 
L 513 -844 
Q 928 -128 1133 580 
Q 1338 1288 1338 2009 
Q 1338 2731 1133 3434 
Q 928 4138 513 4856 
z
" transform="scale(0.015625)"/>
     </defs>
     <use xlink:href="#DejaVuSans-Oblique-70" transform="translate(0 0.125)"/>
     <use xlink:href="#DejaVuSans-28" transform="translate(63.476562 0.125)"/>
     <use xlink:href="#DejaVuSans-Oblique-7a" transform="translate(102.490234 0.125)"/>
     <use xlink:href="#DejaVuSans-29" transform="translate(154.980469 0.125)"/>
    </g>
   </g>
   <g id="text_7">
    <!-- $y(z)$ -->
    <g transform="translate(301.6992 176.928) scale(0.12 -0.12)">
     <defs>
      <path id="DejaVuSans-Oblique-79" d="M 1588 -325 
Q 1188 -997 936 -1164 
Q 684 -1331 294 -1331 
L -159 -1331 
L -63 -850 
L 269 -850 
Q 509 -850 678 -719 
Q 847 -588 1056 -206 
L 1234 128 
L 459 3500 
L 1069 3500 
L 1650 819 
L 3256 3500 
L 3859 3500 
L 1588 -325 
z
" transform="scale(0.015625)"/>
     </defs>
     <use xlink:href="#DejaVuSans-Oblique-79" transform="translate(0 0.125)"/>
     <use xlink:href="#DejaVuSans-28" transform="translate(59.179688 0.125)"/>
     <use xlink:href="#DejaVuSans-Oblique-7a" transform="translate(98.193359 0.125)"/>
     <use xlink:href="#DejaVuSans-29" transform="translate(150.683594 0.125)"/>
    </g>
   </g>
   <g id="text_8">
    <!-- $z$ -->
    <g transform="translate(94.5 206.88) scale(0.12 -0.12)">
     <use xlink:href="#DejaVuSans-Oblique-7a" transform="translate(0 0.3125)"/>
    </g>
   </g>
   <g id="text_9">
    <!-- Classical beam-on-nonlinear-Winkler-foundation idealisation -->
    <g transform="translate(63.072 362.88) scale(0.12 -0.12)">
     <defs>
      <path id="DejaVuSans-43" d="M 4122 4306 
L 4122 3641 
Q 3803 3938 3442 4084 
Q 3081 4231 2675 4231 
Q 1875 4231 1450 3742 
Q 1025 3253 1025 2328 
Q 1025 1406 1450 917 
Q 1875 428 2675 428 
Q 3081 428 3442 575 
Q 3803 722 4122 1019 
L 4122 359 
Q 3791 134 3420 21 
Q 3050 -91 2638 -91 
Q 1578 -91 968 557 
Q 359 1206 359 2328 
Q 359 3453 968 4101 
Q 1578 4750 2638 4750 
Q 3056 4750 3426 4639 
Q 3797 4528 4122 4306 
z
" transform="scale(0.015625)"/>
      <path id="DejaVuSans-63" d="M 3122 3366 
L 3122 2828 
Q 2878 2963 2633 3030 
Q 2388 3097 2138 3097 
Q 1578 3097 1268 2742 
Q 959 2388 959 1747 
Q 959 1106 1268 751 
Q 1578 397 2138 397 
Q 2388 397 2633 464 
Q 2878 531 3122 666 
L 3122 134 
Q 2881 22 2623 -34 
Q 2366 -91 2075 -91 
Q 1284 -91 818 406 
Q 353 903 353 1747 
Q 353 2603 823 3093 
Q 1294 3584 2113 3584 
Q 2378 3584 2631 3529 
Q 2884 3475 3122 3366 
z
" transform="scale(0.015625)"/>
      <path id="DejaVuSans-6d" d="M 3328 2828 
Q 3544 3216 3844 3400 
Q 4144 3584 4550 3584 
Q 5097 3584 5394 3201 
Q 5691 2819 5691 2113 
L 5691 0 
L 5113 0 
L 5113 2094 
Q 5113 2597 4934 2840 
Q 4756 3084 4391 3084 
Q 3944 3084 3684 2787 
Q 3425 2491 3425 1978 
L 3425 0 
L 2847 0 
L 2847 2094 
Q 2847 2600 2669 2842 
Q 2491 3084 2119 3084 
Q 1678 3084 1418 2786 
Q 1159 2488 1159 1978 
L 1159 0 
L 581 0 
L 581 3500 
L 1159 3500 
L 1159 2956 
Q 1356 3278 1631 3431 
Q 1906 3584 2284 3584 
Q 2666 3584 2933 3390 
Q 3200 3197 3328 2828 
z
" transform="scale(0.015625)"/>
      <path id="DejaVuSans-2d" d="M 313 2009 
L 1997 2009 
L 1997 1497 
L 313 1497 
L 313 2009 
z
" transform="scale(0.015625)"/>
      <path id="DejaVuSans-57" d="M 213 4666 
L 850 4666 
L 1831 722 
L 2809 4666 
L 3519 4666 
L 4500 722 
L 5478 4666 
L 6119 4666 
L 4947 0 
L 4153 0 
L 3169 4050 
L 2175 0 
L 1381 0 
L 213 4666 
z
" transform="scale(0.015625)"/>
      <path id="DejaVuSans-6b" d="M 581 4863 
L 1159 4863 
L 1159 1991 
L 2875 3500 
L 3609 3500 
L 1753 1863 
L 3688 0 
L 2938 0 
L 1159 1709 
L 1159 0 
L 581 0 
L 581 4863 
z
" transform="scale(0.015625)"/>
      <path id="DejaVuSans-66" d="M 2375 4863 
L 2375 4384 
L 1825 4384 
Q 1516 4384 1395 4259 
Q 1275 4134 1275 3809 
L 1275 3500 
L 2222 3500 
L 2222 3053 
L 1275 3053 
L 1275 0 
L 697 0 
L 697 3053 
L 147 3053 
L 147 3500 
L 697 3500 
L 697 3744 
Q 697 4328 969 4595 
Q 1241 4863 1831 4863 
L 2375 4863 
z
" transform="scale(0.015625)"/>
      <path id="DejaVuSans-75" d="M 544 1381 
L 544 3500 
L 1119 3500 
L 1119 1403 
Q 1119 906 1312 657 
Q 1506 409 1894 409 
Q 2359 409 2629 706 
Q 2900 1003 2900 1516 
L 2900 3500 
L 3475 3500 
L 3475 0 
L 2900 0 
L 2900 538 
Q 2691 219 2414 64 
Q 2138 -91 1772 -91 
Q 1169 -91 856 284 
Q 544 659 544 1381 
z
M 1991 3584 
L 1991 3584 
z
" transform="scale(0.015625)"/>
     </defs>
     <use xlink:href="#DejaVuSans-43"/>
     <use xlink:href="#DejaVuSans-6c" transform="translate(69.824219 0)"/>
     <use xlink:href="#DejaVuSans-61" transform="translate(97.607422 0)"/>
     <use xlink:href="#DejaVuSans-73" transform="translate(158.886719 0)"/>
     <use xlink:href="#DejaVuSans-73" transform="translate(210.986328 0)"/>
     <use xlink:href="#DejaVuSans-69" transform="translate(263.085938 0)"/>
     <use xlink:href="#DejaVuSans-63" transform="translate(290.869141 0)"/>
     <use xlink:href="#DejaVuSans-61" transform="translate(345.849609 0)"/>
     <use xlink:href="#DejaVuSans-6c" transform="translate(407.128906 0)"/>
     <use xlink:href="#DejaVuSans-20" transform="translate(434.912109 0)"/>
     <use xlink:href="#DejaVuSans-62" transform="translate(466.699219 0)"/>
     <use xlink:href="#DejaVuSans-65" transform="translate(530.175781 0)"/>
     <use xlink:href="#DejaVuSans-61" transform="translate(591.699219 0)"/>
     <use xlink:href="#DejaVuSans-6d" transform="translate(652.978516 0)"/>
     <use xlink:href="#DejaVuSans-2d" transform="translate(750.390625 0)"/>
     <use xlink:href="#DejaVuSans-6f" transform="translate(788.349609 0)"/>
     <use xlink:href="#DejaVuSans-6e" transform="translate(849.53125 0)"/>
     <use xlink:href="#DejaVuSans-2d" transform="translate(912.910156 0)"/>
     <use xlink:href="#DejaVuSans-6e" transform="translate(948.994141 0)"/>
     <use xlink:href="#DejaVuSans-6f" transform="translate(1012.373047 0)"/>
     <use xlink:href="#DejaVuSans-6e" transform="translate(1073.554688 0)"/>
     <use xlink:href="#DejaVuSans-6c" transform="translate(1136.933594 0)"/>
     <use xlink:href="#DejaVuSans-69" transform="translate(1164.716797 0)"/>
     <use xlink:href="#DejaVuSans-6e" transform="translate(1192.5 0)"/>
     <use xlink:href="#DejaVuSans-65" transform="translate(1255.878906 0)"/>
     <use xlink:href="#DejaVuSans-61" transform="translate(1317.402344 0)"/>
     <use xlink:href="#DejaVuSans-72" transform="translate(1378.681641 0)"/>
     <use xlink:href="#DejaVuSans-2d" transform="translate(1413.419922 0)"/>
     <use xlink:href="#DejaVuSans-57" transform="translate(1445.503906 0)"/>
     <use xlink:href="#DejaVuSans-69" transform="translate(1542.130859 0)"/>
     <use xlink:href="#DejaVuSans-6e" transform="translate(1569.914062 0)"/>
     <use xlink:href="#DejaVuSans-6b" transform="translate(1633.292969 0)"/>
     <use xlink:href="#DejaVuSans-6c" transform="translate(1691.203125 0)"/>
     <use xlink:href="#DejaVuSans-65" transform="translate(1718.986328 0)"/>
     <use xlink:href="#DejaVuSans-72" transform="translate(1780.509766 0)"/>
     <use xlink:href="#DejaVuSans-2d" transform="translate(1815.248047 0)"/>
     <use xlink:href="#DejaVuSans-66" transform="translate(1851.332031 0)"/>
     <use xlink:href="#DejaVuSans-6f" transform="translate(1886.537109 0)"/>
     <use xlink:href="#DejaVuSans-75" transform="translate(1947.71875 0)"/>
     <use xlink:href="#DejaVuSans-6e" transform="translate(2011.097656 0)"/>
     <use xlink:href="#DejaVuSans-64" transform="translate(2074.476562 0)"/>
     <use xlink:href="#DejaVuSans-61" transform="translate(2137.953125 0)"/>
     <use xlink:href="#DejaVuSans-74" transform="translate(2199.232422 0)"/>
     <use xlink:href="#DejaVuSans-69" transform="translate(2238.441406 0)"/>
     <use xlink:href="#DejaVuSans-6f" transform="translate(2266.224609 0)"/>
     <use xlink:href="#DejaVuSans-6e" transform="translate(2327.40625 0)"/>
     <use xlink:href="#DejaVuSans-20" transform="translate(2390.785156 0)"/>
     <use xlink:href="#DejaVuSans-69" transform="translate(2422.572266 0)"/>
     <use xlink:href="#DejaVuSans-64" transform="translate(2450.355469 0)"/>
     <use xlink:href="#DejaVuSans-65" transform="translate(2513.832031 0)"/>
     <use xlink:href="#DejaVuSans-61" transform="translate(2575.355469 0)"/>
     <use xlink:href="#DejaVuSans-6c" transform="translate(2636.634766 0)"/>
     <use xlink:href="#DejaVuSans-69" transform="translate(2664.417969 0)"/>
     <use xlink:href="#DejaVuSans-73" transform="translate(2692.201172 0)"/>
     <use xlink:href="#DejaVuSans-61" transform="translate(2744.300781 0)"/>
     <use xlink:href="#DejaVuSans-74" transform="translate(2805.580078 0)"/>
     <use xlink:href="#DejaVuSans-69" transform="translate(2844.789062 0)"/>
     <use xlink:href="#DejaVuSans-6f" transform="translate(2872.572266 0)"/>
     <use xlink:href="#DejaVuSans-6e" transform="translate(2933.753906 0)"/>
    </g>
   </g>
  </g>
 </g>
 <defs>
  <clipPath id="pb3edebe238">
   <rect x="7.2" y="7.2" width="698.4" height="374.4"/>
  </clipPath>
 </defs>
</svg>
